<svg width="1180" height="646" viewBox="0 0 1180 646" fill="none" xmlns="http://www.w3.org/2000/svg">
<g filter="url(#filter0_d_250_1897)">
<rect x="595" y="526" width="69.4262" height="65.459" rx="23.8033" fill="white"/>
</g>
<path d="M640.039 569.353V551.73C640.039 548.331 637.651 545.405 634.335 544.742C631.091 544.093 627.752 544.093 624.508 544.742C621.192 545.405 618.803 548.331 618.803 551.73V569.353C618.803 571.415 621.029 572.698 622.799 571.656L627.633 568.811C628.738 568.16 630.105 568.16 631.21 568.811L636.044 571.656C637.813 572.698 640.039 571.415 640.039 569.353Z" stroke="#51459D" stroke-width="3.37213" stroke-linecap="round" stroke-linejoin="round"/>
<path d="M618.803 569.353C618.803 571.415 621.029 572.698 622.799 571.656L627.633 568.811C628.738 568.16 630.105 568.16 631.21 568.811L636.044 571.656C637.813 572.698 640.039 571.415 640.039 569.353V551.73C640.039 548.331 637.651 545.405 634.335 544.742C631.091 544.093 627.752 544.093 624.508 544.742" stroke="#CECECE" stroke-width="3.37213" stroke-linecap="round" stroke-linejoin="round"/>
<g filter="url(#filter1_d_250_1897)">
<rect x="1070" y="56" width="69.4262" height="65.459" rx="23.8033" fill="white"/>
</g>
<path d="M1104.13 104.86C1104.13 105.791 1104.89 106.546 1105.82 106.546C1106.75 106.546 1107.5 105.791 1107.5 104.86H1104.13ZM1107.5 101.297C1107.5 100.366 1106.75 99.6114 1105.82 99.6114C1104.89 99.6114 1104.13 100.366 1104.13 101.297H1107.5ZM1104.13 101.297V104.86H1107.5V101.297H1104.13Z" fill="#51459D"/>
<path d="M1110.15 97.1046C1110.15 96.1734 1109.39 95.4185 1108.46 95.4185C1107.53 95.4185 1106.78 96.1734 1106.78 97.1046H1110.15ZM1104.86 97.1046C1104.86 96.1734 1104.1 95.4185 1103.17 95.4185C1102.24 95.4185 1101.49 96.1734 1101.49 97.1046H1104.86ZM1094.29 88.8678L1092.66 89.2918L1094.29 88.8678ZM1094.29 81.217L1095.92 81.641L1094.29 81.217ZM1117.12 81.217L1115.49 81.641L1117.12 81.217ZM1117.12 88.8678L1118.75 89.2918L1117.12 88.8678ZM1109.56 95.4267L1109.21 93.7772H1109.21L1109.56 95.4267ZM1101.85 95.4267L1102.2 93.7772L1102.2 93.7772L1101.85 95.4267ZM1101.85 74.6581L1102.2 76.3076L1101.85 74.6581ZM1109.56 74.6581L1109.91 73.0086V73.0086L1109.56 74.6581ZM1101.07 95.2614L1100.72 96.9109H1100.72L1101.07 95.2614ZM1110.34 95.2614L1110.69 96.9109H1110.69L1110.34 95.2614ZM1110.34 74.8234L1109.99 76.4729L1110.34 74.8234ZM1101.07 74.8234L1100.72 73.1739L1101.07 74.8234ZM1106.78 97.1046V98.5515H1110.15V97.1046H1106.78ZM1104.86 98.5515V97.1046H1101.49V98.5515H1104.86ZM1101.49 98.5515C1101.49 100.947 1103.46 102.822 1105.82 102.822V99.4502C1105.25 99.4502 1104.86 99.0114 1104.86 98.5515H1101.49ZM1106.78 98.5515C1106.78 99.0114 1106.38 99.4502 1105.82 99.4502V102.822C1108.17 102.822 1110.15 100.947 1110.15 98.5515H1106.78ZM1101.42 76.4729L1102.2 76.3076L1101.5 73.0086L1100.72 73.1739L1101.42 76.4729ZM1109.21 76.3076L1109.99 76.4729L1110.69 73.1739L1109.91 73.0086L1109.21 76.3076ZM1109.99 93.612L1109.21 93.7772L1109.91 97.0762L1110.69 96.9109L1109.99 93.612ZM1102.2 93.7772L1101.42 93.612L1100.72 96.9109L1101.5 97.0762L1102.2 93.7772ZM1095.92 88.4438C1095.34 86.2114 1095.34 83.8734 1095.92 81.641L1092.66 80.793C1091.94 83.5815 1091.94 86.5033 1092.66 89.2918L1095.92 88.4438ZM1115.49 81.641C1116.07 83.8734 1116.07 86.2114 1115.49 88.4438L1118.75 89.2918C1119.47 86.5033 1119.47 83.5815 1118.75 80.793L1115.49 81.641ZM1109.21 93.7772C1106.9 94.2664 1104.51 94.2664 1102.2 93.7772L1101.5 97.0762C1104.27 97.6629 1107.14 97.6629 1109.91 97.0762L1109.21 93.7772ZM1102.2 76.3076C1104.51 75.8184 1106.9 75.8184 1109.21 76.3076L1109.91 73.0086C1107.14 72.4219 1104.27 72.4219 1101.5 73.0086L1102.2 76.3076ZM1101.42 93.612C1098.71 93.0384 1096.59 91.0239 1095.92 88.4438L1092.66 89.2918C1093.66 93.1415 1096.79 96.0795 1100.72 96.9109L1101.42 93.612ZM1110.69 96.9109C1114.62 96.0795 1117.75 93.1415 1118.75 89.2918L1115.49 88.4438C1114.82 91.0239 1112.7 93.0384 1109.99 93.612L1110.69 96.9109ZM1109.99 76.4729C1112.7 77.0465 1114.82 79.0609 1115.49 81.641L1118.75 80.793C1117.75 76.9433 1114.62 74.0053 1110.69 73.1739L1109.99 76.4729ZM1100.72 73.1739C1096.79 74.0053 1093.66 76.9433 1092.66 80.793L1095.92 81.641C1096.59 79.0609 1098.71 77.0465 1101.42 76.4729L1100.72 73.1739Z" fill="#CECECE"/>
<path d="M1107.83 81.805C1108.42 81.0845 1108.31 80.0222 1107.59 79.4323C1106.87 78.8424 1105.81 78.9484 1105.22 79.6689L1107.83 81.805ZM1103 85.0449L1101.69 83.9768C1101.28 84.481 1101.19 85.1778 1101.47 85.7667C1101.75 86.3555 1102.35 86.7309 1103 86.7309V85.0449ZM1108.29 85.0449L1109.59 86.1129C1110 85.6087 1110.09 84.9119 1109.81 84.3231C1109.53 83.7342 1108.94 83.3588 1108.29 83.3588V85.0449ZM1103.46 88.2847C1102.87 89.0053 1102.97 90.0676 1103.69 90.6574C1104.41 91.2473 1105.47 91.1414 1106.06 90.4208L1103.46 88.2847ZM1105.22 79.6689L1101.69 83.9768L1104.3 86.1129L1107.83 81.805L1105.22 79.6689ZM1103 86.7309H1108.29V83.3588H1103V86.7309ZM1106.98 83.9768L1103.46 88.2847L1106.06 90.4208L1109.59 86.1129L1106.98 83.9768Z" fill="#51459D"/>
<g filter="url(#filter2_d_250_1897)">
<rect x="52" y="38" width="69.4262" height="65.459" rx="23.8033" fill="white"/>
</g>
<path d="M72.6159 73.702L74.2355 73.2334H74.2355L72.6159 73.702ZM72.6159 62.713L70.9963 62.2443H70.9963L72.6159 62.713ZM100.81 62.713L102.43 62.2443L102.43 62.2443L100.81 62.713ZM100.81 73.702L99.1907 73.2333L99.1907 73.2334L100.81 73.702ZM94.672 79.41L94.357 77.7536L94.672 79.41ZM78.7543 79.41L79.0692 77.7536L78.7543 79.41ZM78.7543 57.005L78.4393 55.3486L78.7543 57.005ZM94.672 57.005L94.9869 55.3486L94.672 57.005ZM72.6957 73.9778L71.0761 74.4465H71.0761L72.6957 73.9778ZM100.731 73.9778L102.35 74.4464L102.35 74.4464L100.731 73.9778ZM100.731 62.4373L99.1109 62.906V62.906L100.731 62.4373ZM72.6957 62.4373L74.3153 62.906V62.906L72.6957 62.4373ZM88.3992 80.9233C88.3992 79.9921 87.6443 79.2372 86.7131 79.2372C85.7819 79.2372 85.027 79.9921 85.027 80.9233H88.3992ZM85.027 86.0096C85.027 86.9408 85.7819 87.6957 86.7131 87.6957C87.6443 87.6957 88.3992 86.9408 88.3992 86.0096H85.027ZM82.3555 84.3235C81.4244 84.3235 80.6695 85.0784 80.6695 86.0096C80.6695 86.9408 81.4244 87.6957 82.3555 87.6957V84.3235ZM91.0707 87.6957C92.0019 87.6957 92.7567 86.9408 92.7567 86.0096C92.7567 85.0784 92.0019 84.3235 91.0707 84.3235V87.6957ZM99.1109 62.906L99.1907 63.1817L102.43 62.2443L102.35 61.9686L99.1109 62.906ZM99.1907 73.2334L99.1109 73.5091L102.35 74.4464L102.43 74.1707L99.1907 73.2334ZM74.3153 73.5091L74.2355 73.2334L70.9963 74.1707L71.0761 74.4465L74.3153 73.5091ZM74.2355 63.1817L74.3153 62.906L71.0761 61.9686L70.9963 62.2443L74.2355 63.1817ZM74.2355 73.2334C73.2843 69.9463 73.2843 66.4687 74.2355 63.1817L70.9963 62.2443C69.8679 66.1437 69.8679 70.2714 70.9963 74.1707L74.2355 73.2334ZM99.1907 63.1817C100.142 66.4687 100.142 69.9463 99.1907 73.2333L102.43 74.1707C103.558 70.2714 103.558 66.1437 102.43 62.2443L99.1907 63.1817ZM94.357 77.7536C89.309 78.7135 84.1173 78.7135 79.0692 77.7536L78.4393 81.0664C83.9036 82.1054 89.5226 82.1054 94.9869 81.0664L94.357 77.7536ZM79.0692 58.6614C84.1173 57.7016 89.309 57.7016 94.357 58.6614L94.9869 55.3486C89.5226 54.3097 83.9036 54.3097 78.4393 55.3486L79.0692 58.6614ZM79.0692 77.7536C76.7618 77.3149 74.9371 75.6578 74.3153 73.5091L71.0761 74.4465C72.062 77.8532 74.9236 80.3979 78.4393 81.0664L79.0692 77.7536ZM94.9869 81.0664C98.5027 80.3979 101.364 77.8532 102.35 74.4464L99.1109 73.5091C98.4891 75.6578 96.6644 77.3149 94.357 77.7536L94.9869 81.0664ZM94.357 58.6614C96.6644 59.1002 98.4891 60.7573 99.1109 62.906L102.35 61.9686C101.364 58.5618 98.5027 56.0171 94.9869 55.3486L94.357 58.6614ZM78.4393 55.3486C74.9236 56.0171 72.062 58.5618 71.0761 61.9686L74.3153 62.906C74.9371 60.7573 76.7618 59.1002 79.0692 58.6614L78.4393 55.3486ZM85.027 80.9233V86.0096H88.3992V80.9233H85.027ZM82.3555 87.6957H91.0707V84.3235H82.3555V87.6957Z" fill="#CECECE"/>
<path d="M80.101 69.8924L83.5042 67.2124C84.1254 66.7232 84.436 66.4786 84.7795 66.5222C85.123 66.5658 85.3626 66.8803 85.8418 67.5092L87.5842 69.7961C88.0634 70.4251 88.303 70.7396 88.6464 70.7832C88.9899 70.8268 89.3005 70.5822 89.9217 70.093L93.325 67.4129" stroke="#51459D" stroke-width="3.37213" stroke-linecap="round"/>
<g filter="url(#filter3_d_250_1897)">
<rect x="591" y="101" width="69.4262" height="65.459" rx="23.8033" fill="white"/>
</g>
<path d="M632.45 146.509L632.748 146.303C633.682 145.657 634.149 145.334 634.567 144.988C636.837 143.107 638.361 140.484 638.869 137.588C638.962 137.055 639.011 136.492 639.108 135.364L639.158 134.781C639.319 132.915 639.303 131.037 639.11 129.174L639.051 128.597C638.714 125.337 636.712 122.479 633.754 121.035C628.89 118.662 623.197 118.662 618.333 121.035C615.375 122.479 613.373 125.337 613.037 128.597L612.977 129.174C612.785 131.037 612.769 132.915 612.929 134.781L612.979 135.364C613.076 136.492 613.125 137.055 613.218 137.588C613.726 140.484 615.25 143.107 617.52 144.988C617.938 145.334 618.405 145.657 619.339 146.303L619.638 146.509C620.907 147.387 621.542 147.826 622.178 148.131C624.621 149.302 627.466 149.302 629.909 148.131C630.545 147.826 631.18 147.387 632.45 146.509Z" stroke="#51459D" stroke-width="3.37213"/>
<path d="M639.108 135.364L639.158 134.781C639.319 132.915 639.303 131.037 639.11 129.174L639.051 128.597C638.714 125.337 636.712 122.479 633.754 121.035C628.89 118.662 623.197 118.662 618.333 121.035C615.375 122.479 613.373 125.337 613.037 128.597L612.977 129.174C612.785 131.037 612.769 132.915 612.929 134.781L612.979 135.364C613.076 136.492 613.125 137.055 613.218 137.588C613.726 140.484 615.25 143.107 617.52 144.988C617.938 145.334 618.405 145.657 619.339 146.303L619.638 146.509C620.907 147.387 621.542 147.826 622.178 148.131" stroke="#CECECE" stroke-width="3.37213" stroke-linecap="round"/>
<path d="M621.498 133.721L624.804 137.027L630.589 130.828" stroke="#51459D" stroke-width="3.37213" stroke-linecap="round" stroke-linejoin="round"/>
<defs>
<filter id="filter0_d_250_1897" x="543.426" y="488.311" width="160.672" height="156.705" filterUnits="userSpaceOnUse" color-interpolation-filters="sRGB">
<feFlood flood-opacity="0" result="BackgroundImageFix"/>
<feColorMatrix in="SourceAlpha" type="matrix" values="0 0 0 0 0 0 0 0 0 0 0 0 0 0 0 0 0 0 127 0" result="hardAlpha"/>
<feOffset dx="-5.95082" dy="7.93443"/>
<feGaussianBlur stdDeviation="22.8115"/>
<feComposite in2="hardAlpha" operator="out"/>
<feColorMatrix type="matrix" values="0 0 0 0 0 0 0 0 0 0 0 0 0 0 0 0 0 0 0.1 0"/>
<feBlend mode="normal" in2="BackgroundImageFix" result="effect1_dropShadow_250_1897"/>
<feBlend mode="normal" in="SourceGraphic" in2="effect1_dropShadow_250_1897" result="shape"/>
</filter>
<filter id="filter1_d_250_1897" x="1018.43" y="18.3115" width="160.672" height="156.705" filterUnits="userSpaceOnUse" color-interpolation-filters="sRGB">
<feFlood flood-opacity="0" result="BackgroundImageFix"/>
<feColorMatrix in="SourceAlpha" type="matrix" values="0 0 0 0 0 0 0 0 0 0 0 0 0 0 0 0 0 0 127 0" result="hardAlpha"/>
<feOffset dx="-5.95082" dy="7.93443"/>
<feGaussianBlur stdDeviation="22.8115"/>
<feComposite in2="hardAlpha" operator="out"/>
<feColorMatrix type="matrix" values="0 0 0 0 0 0 0 0 0 0 0 0 0 0 0 0 0 0 0.1 0"/>
<feBlend mode="normal" in2="BackgroundImageFix" result="effect1_dropShadow_250_1897"/>
<feBlend mode="normal" in="SourceGraphic" in2="effect1_dropShadow_250_1897" result="shape"/>
</filter>
<filter id="filter2_d_250_1897" x="0.426229" y="0.311475" width="160.672" height="156.705" filterUnits="userSpaceOnUse" color-interpolation-filters="sRGB">
<feFlood flood-opacity="0" result="BackgroundImageFix"/>
<feColorMatrix in="SourceAlpha" type="matrix" values="0 0 0 0 0 0 0 0 0 0 0 0 0 0 0 0 0 0 127 0" result="hardAlpha"/>
<feOffset dx="-5.95082" dy="7.93443"/>
<feGaussianBlur stdDeviation="22.8115"/>
<feComposite in2="hardAlpha" operator="out"/>
<feColorMatrix type="matrix" values="0 0 0 0 0 0 0 0 0 0 0 0 0 0 0 0 0 0 0.1 0"/>
<feBlend mode="normal" in2="BackgroundImageFix" result="effect1_dropShadow_250_1897"/>
<feBlend mode="normal" in="SourceGraphic" in2="effect1_dropShadow_250_1897" result="shape"/>
</filter>
<filter id="filter3_d_250_1897" x="539.426" y="63.3115" width="160.672" height="156.705" filterUnits="userSpaceOnUse" color-interpolation-filters="sRGB">
<feFlood flood-opacity="0" result="BackgroundImageFix"/>
<feColorMatrix in="SourceAlpha" type="matrix" values="0 0 0 0 0 0 0 0 0 0 0 0 0 0 0 0 0 0 127 0" result="hardAlpha"/>
<feOffset dx="-5.95082" dy="7.93443"/>
<feGaussianBlur stdDeviation="22.8115"/>
<feComposite in2="hardAlpha" operator="out"/>
<feColorMatrix type="matrix" values="0 0 0 0 0 0 0 0 0 0 0 0 0 0 0 0 0 0 0.1 0"/>
<feBlend mode="normal" in2="BackgroundImageFix" result="effect1_dropShadow_250_1897"/>
<feBlend mode="normal" in="SourceGraphic" in2="effect1_dropShadow_250_1897" result="shape"/>
</filter>
</defs>
</svg>
