<svg width="44" height="42" viewBox="0 0 44 42" fill="none" xmlns="http://www.w3.org/2000/svg">
<path d="M35.9902 41.3469H8.40521C4.22287 41.3469 0.841797 37.9937 0.841797 33.846V7.5478C0.841797 3.40001 4.22287 0.046875 8.40521 0.046875H35.9902C40.1726 0.046875 43.5537 3.40001 43.5537 7.5478V33.846C43.5537 37.9937 40.1726 41.3469 35.9902 41.3469Z" fill="#FF26BE"/>
<path d="M34.8002 39.7734H8.82116C5.29672 39.7734 2.42371 36.927 2.42371 33.4353V8.74487C2.42371 5.25312 5.29672 2.40674 8.82116 2.40674H34.7832C38.3263 2.40674 41.1808 5.25312 41.1808 8.74487V33.4185C41.1976 36.927 38.3246 39.7734 34.8002 39.7734Z" fill="black"/>
<path d="M17.8054 19.334L22.8667 29.005C22.9569 29.1482 22.9032 29.2932 22.7574 29.2932H19.6116C19.4121 29.2932 19.3219 29.2397 19.2316 29.0602C18.0743 26.6873 16.8996 24.3145 15.6885 21.7621H15.6521C14.5676 24.1712 13.3739 26.7063 12.2183 29.0792C12.1281 29.2225 12.0378 29.2777 11.8921 29.2777H8.91289C8.73244 29.2777 8.71335 29.1344 8.80531 29.0257L13.7573 19.6411L8.96841 10.1496C8.8591 10.0064 8.96841 9.89763 9.07599 9.89763H12.1853C12.3658 9.89763 12.4386 9.93387 12.5098 10.0961C13.648 12.469 14.8054 14.9144 15.8898 17.3045H15.9262C16.9742 14.9316 18.1316 12.469 19.2525 10.1133C19.3427 9.97011 19.3965 9.88037 19.5787 9.88037H22.4885C22.6325 9.88037 22.688 9.98909 22.5978 10.1323L17.8054 19.334ZM23.7534 22.2643C23.7534 18.0759 26.5556 14.8039 31.0009 14.8039C31.3809 14.8039 31.5787 14.8039 31.9414 14.8401V10.0771C31.9414 9.96838 32.0316 9.89763 32.1218 9.89763H34.9778C35.1219 9.89763 35.1583 9.95113 35.1583 10.0409V26.5441C35.1583 27.029 35.1583 27.6399 35.2485 28.3061C35.2485 28.4148 35.2121 28.4493 35.1045 28.5045C33.5863 29.2242 31.9952 29.547 30.4769 29.547C26.5538 29.5624 23.7516 27.155 23.7534 22.2643ZM31.9396 17.6635C31.6863 17.5547 31.3254 17.484 30.8916 17.484C28.6134 17.484 27.0241 19.227 27.0241 22.1228C27.0241 25.431 28.6516 26.7615 30.6938 26.7615C31.1276 26.7615 31.5978 26.708 31.9414 26.5631V17.6635H31.9396Z" fill="#FFD9F2"/>
</svg>
