<svg width="38" height="35" viewBox="0 0 38 35" fill="none" xmlns="http://www.w3.org/2000/svg">
<path d="M29.6467 18.5181C25.1198 18.5181 21.4507 22.1656 21.4507 26.665C21.4507 31.1649 25.1198 34.8132 29.6467 34.8132C34.1728 34.8132 37.8418 31.1649 37.8418 26.665C37.8418 22.1656 34.1728 18.5181 29.6467 18.5181ZM8.35374 18.5185C3.82765 18.5189 0.158203 22.1656 0.158203 26.6654C0.158203 31.1649 3.82765 34.8128 8.35374 34.8128C12.8802 34.8128 16.5497 31.1649 16.5497 26.6654C16.5497 22.1656 12.8802 18.5185 8.35334 18.5185H8.35374ZM27.1956 8.33388C27.1956 12.8334 23.5265 16.482 19.0004 16.482C14.4736 16.482 10.8045 12.8334 10.8045 8.33388C10.8045 3.83439 14.4736 0.186523 19.0004 0.186523C23.5265 0.186523 27.1952 3.83439 27.1952 8.33388H27.1956Z" fill="url(#paint0_radial_35_265)"/>
<defs>
<radialGradient id="paint0_radial_35_265" cx="0" cy="0" r="1" gradientUnits="userSpaceOnUse" gradientTransform="translate(17.543 19.1323) scale(24.9842 24.9067)">
<stop stop-color="#FFB900"/>
<stop offset="0.6" stop-color="#F95D8F"/>
<stop offset="0.999" stop-color="#F95353"/>
</radialGradient>
</defs>
</svg>
