<svg width="38" height="38" viewBox="0 0 38 38" fill="none" xmlns="http://www.w3.org/2000/svg">
<path d="M11.7858 17.2161C11.4337 16.7524 10.7763 16.6631 10.3152 17.0162C10.1849 17.1199 10.0797 17.2522 10.0078 17.4031L0.978532 35.6243C0.712233 36.162 0.928237 36.8157 1.46111 37.0847C1.61069 37.161 1.77606 37.2003 1.94369 37.2H14.5238C14.9355 37.2106 15.3144 36.9742 15.4889 36.5979C18.2041 30.9409 16.5582 22.3401 11.7858 17.2161Z" fill="url(#paint0_linear_22_6037)"/>
<path d="M18.3131 0.729855C13.6852 7.81947 13.1507 16.8117 16.9065 24.3952L23.0362 36.5996C23.2208 36.9675 23.5984 37.2001 24.0116 37.2001H36.7227C37.0123 37.2008 37.2902 37.0866 37.4949 36.8828C37.6996 36.679 37.8143 36.4023 37.8137 36.1141C37.8137 35.9458 37.7751 35.7797 37.7007 35.6286L20.169 0.724744C19.9991 0.367747 19.6378 0.140137 19.241 0.140137C18.8442 0.140137 18.483 0.367747 18.3131 0.724744V0.729855Z" fill="#2787DF"/>
<defs>
<linearGradient id="paint0_linear_22_6037" x1="13.6939" y1="20.001" x2="5.03348" y2="35.0415" gradientUnits="userSpaceOnUse">
<stop stop-color="#0052CC"/>
<stop offset="0.92" stop-color="#2684FF"/>
</linearGradient>
</defs>
</svg>
