<svg width="34" height="34" viewBox="0 0 34 34" fill="none" xmlns="http://www.w3.org/2000/svg">
<path d="M30.3904 0.746582H3.91464C2.29554 0.746582 0.983032 2.0659 0.983032 3.69339V30.3064C0.983032 31.9339 2.29554 33.2533 3.91464 33.2533H30.3904C32.0095 33.2533 33.322 31.9339 33.322 30.3064V3.69339C33.322 2.0659 32.0095 0.746582 30.3904 0.746582Z" fill="#FF3A6E"/>
<path d="M11.9272 11.0951C12.9876 11.0951 13.8758 10.2491 13.8758 9.14035C13.8758 8.03236 12.9876 7.18652 11.9272 7.18652C10.8669 7.18652 9.97888 8.03236 9.97888 9.14035C9.97888 10.249 10.8669 11.0951 11.9272 11.0951ZM7.887 21.5612C7.7725 22.0571 7.71506 22.5925 7.71506 23.0294C7.71506 24.7506 8.63198 25.8932 10.5806 25.8932C12.1966 25.8932 13.5068 24.9163 14.4501 23.3389L13.8741 25.692H17.0831L18.9172 18.2041C19.3757 16.3082 20.264 15.3241 21.6109 15.3241C22.6711 15.3241 23.3301 15.9953 23.3301 17.1033C23.3301 17.4243 23.3014 17.774 23.1868 18.1533L22.2411 21.5951C22.0978 22.0911 22.0407 22.5872 22.0407 23.0536C22.0407 24.6875 22.9861 25.8827 24.9633 25.8827C26.654 25.8827 28.0006 24.7748 28.7457 22.1204L27.4851 21.625C26.8546 23.4032 26.3101 23.7248 25.8802 23.7248C25.4504 23.7248 25.2211 23.4333 25.2211 22.8503C25.2211 22.5877 25.2787 22.2964 25.3644 21.9456L26.2816 18.5924C26.5107 17.8051 26.5968 17.1069 26.5968 16.4653C26.5968 13.9569 25.1066 12.6477 23.3014 12.6477C21.6109 12.6477 19.8914 14.2 19.0319 15.8337L19.6622 12.9014H14.7625L14.0747 15.4842H16.3672L14.9555 21.2372C13.8469 23.7457 11.8106 23.7864 11.5551 23.7282C11.1354 23.6318 10.867 23.4696 10.867 22.9146C10.867 22.5943 10.9243 22.1343 11.0676 21.5797L13.2169 12.9014H7.7725L7.08472 15.4842H9.34829L7.88713 21.5612" fill="white"/>
</svg>
