<svg width="27" height="35" viewBox="0 0 27 35" fill="none" xmlns="http://www.w3.org/2000/svg">
<path d="M19.0531 0H0.914375C0.409375 0 0 0.409375 0 1.20375V34.375C0 34.5906 0.409375 35 0.914375 35H25.9606C26.4656 35 26.875 34.5906 26.875 34.375V8.11125C26.875 7.67625 26.8169 7.53625 26.7144 7.43312L19.4419 0.160625C19.3387 0.058125 19.1987 0 19.0531 0Z" fill="#CECECE"/>
<path d="M19.375 0.0947266V7.50035H26.7806L19.375 0.0947266Z" fill="#CECECE"/>
<path d="M8.13383 20.8274C7.91633 20.8274 7.70758 20.7568 7.52946 20.6236C6.87883 20.1355 6.79133 19.5924 6.83258 19.2224C6.94633 18.2049 8.20446 17.1399 10.5732 16.0549C11.5132 13.9949 12.4076 11.4568 12.9407 9.33613C12.317 7.97863 11.7107 6.21738 12.1526 5.18426C12.3076 4.82238 12.5007 4.54488 12.8613 4.42488C13.0038 4.37738 13.3638 4.31738 13.4963 4.31738C13.8113 4.31738 14.0882 4.72301 14.2845 4.97301C14.4688 5.20801 14.887 5.70613 14.0513 9.22426C14.8938 10.9643 16.0876 12.7368 17.2313 13.9505C18.0507 13.8024 18.7557 13.7268 19.3301 13.7268C20.3088 13.7268 20.902 13.9549 21.1438 14.4249C21.3438 14.8136 21.262 15.268 20.9001 15.7749C20.552 16.2618 20.072 16.5193 19.5126 16.5193C18.7526 16.5193 17.8676 16.0393 16.8807 15.0911C15.1076 15.4618 13.037 16.123 11.3632 16.8549C10.8407 17.9636 10.3401 18.8568 9.87383 19.5118C9.23321 20.4086 8.68071 20.8274 8.13383 20.8274ZM9.79758 17.6236C8.46196 18.3743 7.91758 18.9911 7.87821 19.3386C7.87196 19.3961 7.85508 19.5474 8.14758 19.7711C8.24071 19.7418 8.78446 19.4936 9.79758 17.6236ZM18.3207 14.8474C18.8301 15.2393 18.9545 15.4374 19.2876 15.4374C19.4338 15.4374 19.8507 15.4311 20.0438 15.1618C20.137 15.0311 20.1732 14.9474 20.1876 14.9024C20.1107 14.8618 20.0088 14.7793 19.4532 14.7793C19.1376 14.7799 18.7407 14.7936 18.3207 14.8474ZM13.652 10.7336C13.2051 12.2799 12.6151 13.9493 11.9807 15.4611C13.287 14.9543 14.707 14.5118 16.0407 14.1986C15.197 13.2186 14.3538 11.9949 13.652 10.7336ZM13.2726 5.44488C13.2113 5.46551 12.4413 6.54301 13.3326 7.45488C13.9257 6.13301 13.2995 5.43613 13.2726 5.44488Z" fill="#FF3A6E"/>
<path d="M25.9606 35H0.914375C0.409375 35 0 34.5906 0 34.0856V24.375H26.875V34.0856C26.875 34.5906 26.4656 35 25.9606 35Z" fill="#FF3A6E"/>
<path d="M6.80321 33.1246H5.77759V26.8271H7.58884C7.85634 26.8271 8.12134 26.8696 8.38321 26.9553C8.64509 27.0409 8.88009 27.169 9.08821 27.3396C9.29634 27.5103 9.46446 27.7171 9.59259 27.959C9.72071 28.2009 9.78509 28.4728 9.78509 28.7753C9.78509 29.0946 9.73071 29.3834 9.62259 29.6428C9.51446 29.9021 9.36321 30.1203 9.16946 30.2965C8.97571 30.4728 8.74196 30.6096 8.46884 30.7065C8.19571 30.8034 7.89321 30.8515 7.56321 30.8515H6.80259V33.1246H6.80321ZM6.80321 27.6046V30.0996H7.74321C7.86821 30.0996 7.99196 30.0784 8.11509 30.0353C8.23759 29.9928 8.35009 29.9228 8.45259 29.8259C8.55509 29.729 8.63759 29.594 8.70009 29.4203C8.76259 29.2465 8.79384 29.0315 8.79384 28.7753C8.79384 28.6728 8.77946 28.554 8.75134 28.4209C8.72259 28.2871 8.66446 28.159 8.57634 28.0365C8.48759 27.914 8.36384 27.8115 8.20446 27.729C8.04509 27.6465 7.83384 27.6053 7.57196 27.6053H6.80321V27.6046Z" fill="white"/>
<path d="M16.0746 29.8009C16.0746 30.319 16.019 30.7621 15.9077 31.1296C15.7965 31.4971 15.6559 31.8046 15.4846 32.0528C15.3134 32.3009 15.1215 32.4959 14.9077 32.6384C14.694 32.7809 14.4877 32.8871 14.2884 32.959C14.089 33.0303 13.9065 33.0759 13.7415 33.0959C13.5765 33.1146 13.454 33.1246 13.374 33.1246H10.9902V26.8271H12.8871C13.4171 26.8271 13.8827 26.9115 14.284 27.079C14.6852 27.2465 15.019 27.4709 15.284 27.7496C15.549 28.0284 15.7465 28.3465 15.8777 28.7021C16.009 29.0584 16.0746 29.4246 16.0746 29.8009ZM13.0327 32.3728C13.7277 32.3728 14.229 32.1509 14.5365 31.7065C14.844 31.2621 14.9977 30.6184 14.9977 29.7753C14.9977 29.5134 14.9665 29.254 14.904 28.9978C14.8409 28.7415 14.7202 28.5096 14.5409 28.3015C14.3615 28.0934 14.1177 27.9253 13.8102 27.7971C13.5027 27.669 13.104 27.6046 12.614 27.6046H12.0159V32.3728H13.0327Z" fill="white"/>
<path d="M18.6038 27.6046V29.5871H21.2357V30.2878H18.6038V33.1246H17.5613V26.8271H21.5V27.6046H18.6038Z" fill="white"/>
</svg>
