<svg width="37" height="36" viewBox="0 0 37 36" fill="none" xmlns="http://www.w3.org/2000/svg">
<path d="M13.7601 0.333252C11.786 0.334708 10.1884 1.93366 10.1898 3.90395C10.1884 5.87425 11.7875 7.4732 13.7616 7.47465H17.3333V3.90541C17.3347 1.93512 15.7356 0.336164 13.7601 0.333252C13.7616 0.333252 13.7616 0.333252 13.7601 0.333252ZM13.7601 9.85706H4.23837C2.26429 9.85852 0.665175 11.4575 0.66663 13.4278C0.663716 15.3981 2.26283 16.997 4.23691 16.9999H13.7601C15.7342 16.9985 17.3333 15.3995 17.3318 13.4292C17.3333 11.4575 15.7342 9.85852 13.7601 9.85706Z" fill="#2787DF"/>
<path d="M36.3333 13.4278C36.3348 11.4575 34.7355 9.85852 32.7612 9.85706C30.787 9.85852 29.1877 11.4575 29.1892 13.4278V16.9999H32.7612C34.7355 16.9985 36.3348 15.3995 36.3333 13.4278ZM26.8093 13.4278V3.90395C26.8107 1.93512 25.2129 0.336164 23.2387 0.333252C21.2644 0.334708 19.6652 1.93366 19.6666 3.90395V13.4278C19.6637 15.3981 21.263 16.997 23.2372 16.9999C25.2115 16.9985 26.8107 15.3995 26.8093 13.4278Z" fill="#82D616"/>
<path d="M23.2384 35.9999C25.2125 35.9985 26.8116 34.3997 26.8101 32.4295C26.8116 30.4594 25.2125 28.8606 23.2384 28.8591H19.6666V32.4295C19.6652 34.3982 21.2643 35.997 23.2384 35.9999ZM23.2384 26.4755H32.7615C34.7356 26.474 36.3347 24.8752 36.3333 22.9051C36.3362 20.935 34.7371 19.3362 32.763 19.3333H23.2398C21.2657 19.3347 19.6666 20.9335 19.6681 22.9036C19.6666 24.8752 21.2643 26.474 23.2384 26.4755Z" fill="#FFAF75"/>
<path d="M0.666627 22.904C0.665169 24.8742 2.26442 26.4732 4.23868 26.4747C6.21294 26.4732 7.81219 24.8742 7.81073 22.904V19.3333H4.23868C2.26442 19.3347 0.665169 20.9337 0.666627 22.904ZM10.1906 22.904V32.4278C10.1877 34.3981 11.787 35.997 13.7612 35.9999C15.7355 35.9985 17.3347 34.3995 17.3333 32.4292V22.9069C17.3362 20.9366 15.7369 19.3376 13.7627 19.3347C11.787 19.3347 10.1892 20.9337 10.1906 22.904C10.1906 22.9054 10.1906 22.904 10.1906 22.904Z" fill="#FF3A6E"/>
</svg>
