<svg width="37" height="37" viewBox="0 0 37 37" fill="none" xmlns="http://www.w3.org/2000/svg">
<path d="M18.339 0.47998C8.32262 0.47998 0.203369 8.62359 0.203369 18.67C0.203369 28.7164 8.32262 36.86 18.339 36.86C28.3553 36.86 36.4746 28.7164 36.4746 18.67C36.4746 8.62483 28.3553 0.481222 18.339 0.47998ZM26.6562 26.7143C26.3308 27.2505 25.634 27.4181 25.1019 27.0916C20.8437 24.4813 15.4828 23.8918 9.17031 25.3378C8.56146 25.478 7.95508 25.0957 7.81648 24.4851C7.67664 23.8744 8.05656 23.2662 8.66665 23.1272C15.5744 21.5446 21.5008 22.2261 26.2813 25.1553C26.8134 25.4842 26.9829 26.1806 26.6562 26.7143ZM28.8751 21.7631C28.4654 22.4309 27.5942 22.6394 26.9297 22.2298C22.0564 19.2248 14.624 18.3547 8.85846 20.1098C8.11101 20.3369 7.32148 19.9137 7.09378 19.1652C6.86856 18.4155 7.29054 17.6249 8.03676 17.3965C14.6227 15.3919 22.8113 16.3626 28.4085 19.8131C29.0743 20.224 29.2847 21.0966 28.8751 21.7631ZM29.0656 16.6046C23.2197 13.123 13.5771 12.8028 7.99592 14.5007C7.09997 14.7738 6.15204 14.2662 5.88103 13.3675C5.61002 12.4689 6.11492 11.5181 7.01211 11.245C13.4187 9.29509 24.0674 9.67117 30.7969 13.6778C31.6025 14.1582 31.8673 15.202 31.3897 16.0088C30.9132 16.8181 29.87 17.0849 29.0656 16.6046Z" fill="#82D616"/>
</svg>
