<svg width="355" height="245" viewBox="0 0 355 245" fill="none" xmlns="http://www.w3.org/2000/svg">
<g filter="url(#filter0_d_48_2620)">
<rect x="37" y="17" width="284.616" height="175.525" rx="13.9861" fill="white"/>
</g>
<path d="M60.6648 34.2934C61.8106 34.2934 62.7563 34.4328 63.5019 34.7117C64.2536 34.9905 64.8113 35.4149 65.1751 35.9847C65.5449 36.5546 65.7297 37.279 65.7297 38.158C65.7297 38.8127 65.6085 39.3704 65.366 39.8311C65.1235 40.2919 64.8053 40.6738 64.4112 40.9769C64.0172 41.28 63.5959 41.5225 63.1473 41.7043L66.921 47.5876H64.4567L61.2468 42.259H59.1099V47.5876H56.9275V34.2934H60.6648ZM60.5193 36.112H59.1099V40.4586H60.6194C61.6317 40.4586 62.3653 40.2707 62.8199 39.8948C63.2806 39.5189 63.511 38.9643 63.511 38.2307C63.511 37.4609 63.2655 36.9153 62.7745 36.594C62.2895 36.2727 61.5378 36.112 60.5193 36.112ZM72.6133 37.3305C73.5105 37.3305 74.2804 37.5154 74.923 37.8852C75.5656 38.255 76.0596 38.7794 76.4052 39.4583C76.7507 40.1373 76.9235 40.9496 76.9235 41.8953V43.041H70.2036C70.2279 44.0171 70.4885 44.7688 70.9856 45.2962C71.4888 45.8236 72.192 46.0873 73.0952 46.0873C73.7378 46.0873 74.3137 46.0266 74.8229 45.9054C75.3382 45.7781 75.8687 45.5932 76.4143 45.3507V47.0875C75.9111 47.3239 75.3988 47.4967 74.8775 47.6058C74.3562 47.715 73.7318 47.7695 73.0043 47.7695C72.0162 47.7695 71.1463 47.5786 70.3946 47.1966C69.6489 46.8087 69.0639 46.2328 68.6396 45.4689C68.2213 44.7051 68.0121 43.7564 68.0121 42.6228C68.0121 41.4952 68.2031 40.5374 68.585 39.7493C68.9669 38.9612 69.5034 38.3611 70.1945 37.9489C70.8856 37.5366 71.6919 37.3305 72.6133 37.3305ZM72.6133 38.94C71.9404 38.94 71.3948 39.1583 70.9765 39.5947C70.5643 40.0312 70.3218 40.6708 70.2491 41.5134H74.832C74.826 41.0102 74.7411 40.5647 74.5774 40.1767C74.4198 39.7887 74.1773 39.4856 73.85 39.2674C73.5287 39.0491 73.1165 38.94 72.6133 38.94ZM84.3617 39.1492H81.9156V47.5876H79.7787V39.1492H78.1329V38.1216L79.7787 37.4942V36.794C79.7787 35.9393 79.9121 35.2603 80.1788 34.7571C80.4516 34.254 80.8396 33.8933 81.3428 33.6751C81.852 33.4508 82.4582 33.3386 83.1614 33.3386C83.6221 33.3386 84.0434 33.378 84.4254 33.4568C84.8073 33.5296 85.1286 33.6144 85.3892 33.7114L84.8346 35.33C84.6284 35.2633 84.3981 35.2027 84.1435 35.1482C83.8889 35.0875 83.6161 35.0572 83.3251 35.0572C82.8401 35.0572 82.4824 35.2088 82.2521 35.5119C82.0278 35.815 81.9156 36.2575 81.9156 36.8395V37.5215H84.3617V39.1492ZM91.0998 39.1492H88.6537V47.5876H86.5168V39.1492H84.8709V38.1216L86.5168 37.4942V36.794C86.5168 35.9393 86.6502 35.2603 86.9169 34.7571C87.1897 34.254 87.5777 33.8933 88.0808 33.6751C88.59 33.4508 89.1963 33.3386 89.8995 33.3386C90.3602 33.3386 90.7815 33.378 91.1634 33.4568C91.5453 33.5296 91.8666 33.6144 92.1273 33.7114L91.5726 35.33C91.3665 35.2633 91.1361 35.2027 90.8815 35.1482C90.6269 35.0875 90.3541 35.0572 90.0631 35.0572C89.5782 35.0572 89.2205 35.2088 88.9901 35.5119C88.7658 35.815 88.6537 36.2575 88.6537 36.8395V37.5215H91.0998V39.1492ZM96.8194 37.3305C97.7166 37.3305 98.4865 37.5154 99.1291 37.8852C99.7716 38.255 100.266 38.7794 100.611 39.4583C100.957 40.1373 101.13 40.9496 101.13 41.8953V43.041H94.4097C94.4339 44.0171 94.6946 44.7688 95.1917 45.2962C95.6949 45.8236 96.3981 46.0873 97.3013 46.0873C97.9439 46.0873 98.5198 46.0266 99.029 45.9054C99.5443 45.7781 100.075 45.5932 100.62 45.3507V47.0875C100.117 47.3239 99.6049 47.4967 99.0836 47.6058C98.5623 47.715 97.9379 47.7695 97.2104 47.7695C96.2223 47.7695 95.3524 47.5786 94.6006 47.1966C93.855 46.8087 93.27 46.2328 92.8457 45.4689C92.4274 44.7051 92.2182 43.7564 92.2182 42.6228C92.2182 41.4952 92.4092 40.5374 92.7911 39.7493C93.173 38.9612 93.7095 38.3611 94.4006 37.9489C95.0917 37.5366 95.8979 37.3305 96.8194 37.3305ZM96.8194 38.94C96.1465 38.94 95.6009 39.1583 95.1826 39.5947C94.7704 40.0312 94.5279 40.6708 94.4552 41.5134H99.0381C99.0321 41.0102 98.9472 40.5647 98.7835 40.1767C98.6259 39.7887 98.3834 39.4856 98.0561 39.2674C97.7348 39.0491 97.3225 38.94 96.8194 38.94ZM108.641 37.3305C108.81 37.3305 108.995 37.3396 109.195 37.3578C109.395 37.376 109.568 37.4002 109.714 37.4305L109.513 39.431C109.386 39.3947 109.229 39.3674 109.041 39.3492C108.859 39.331 108.695 39.3219 108.55 39.3219C108.168 39.3219 107.804 39.3856 107.458 39.5129C107.113 39.6341 106.807 39.8221 106.54 40.0767C106.273 40.3252 106.064 40.6374 105.913 41.0133C105.761 41.3891 105.685 41.8256 105.685 42.3227V47.5876H103.539V37.5215H105.212L105.503 39.2947H105.603C105.803 38.937 106.052 38.6096 106.349 38.3126C106.646 38.0155 106.986 37.7791 107.367 37.6033C107.755 37.4215 108.18 37.3305 108.641 37.3305ZM115.524 37.3305C116.797 37.3305 117.758 37.6124 118.407 38.1762C119.061 38.74 119.389 39.619 119.389 40.8132V47.5876H117.87L117.461 46.16H117.388C117.103 46.5237 116.809 46.8238 116.506 47.0602C116.203 47.2967 115.851 47.4725 115.451 47.5876C115.057 47.7089 114.575 47.7695 114.006 47.7695C113.405 47.7695 112.869 47.6604 112.396 47.4422C111.923 47.2179 111.55 46.8784 111.278 46.4237C111.005 45.9691 110.868 45.3932 110.868 44.696C110.868 43.6594 111.253 42.8804 112.023 42.3591C112.799 41.8377 113.969 41.5498 115.533 41.4952L117.279 41.4316V40.9041C117.279 40.207 117.115 39.7099 116.788 39.4129C116.467 39.1158 116.012 38.9673 115.424 38.9673C114.921 38.9673 114.433 39.04 113.96 39.1855C113.487 39.331 113.026 39.5099 112.578 39.722L111.887 38.2126C112.378 37.9519 112.936 37.7397 113.56 37.576C114.19 37.4124 114.845 37.3305 115.524 37.3305ZM117.27 42.7773L115.97 42.8228C114.903 42.8592 114.154 43.041 113.724 43.3684C113.293 43.6958 113.078 44.1444 113.078 44.7142C113.078 45.2113 113.227 45.575 113.524 45.8054C113.821 46.0297 114.212 46.1418 114.697 46.1418C115.436 46.1418 116.048 45.9327 116.533 45.5144C117.024 45.09 117.27 44.4687 117.27 43.6503V42.7773ZM124.526 47.5876H122.38V33.4386H124.526V47.5876ZM134.347 44.7142C134.347 45.375 134.186 45.9327 133.865 46.3873C133.544 46.842 133.074 47.1875 132.456 47.424C131.843 47.6543 131.092 47.7695 130.201 47.7695C129.497 47.7695 128.891 47.718 128.382 47.6149C127.879 47.5179 127.403 47.3664 126.954 47.1603V45.3143C127.433 45.5386 127.97 45.7326 128.564 45.8963C129.164 46.06 129.731 46.1418 130.264 46.1418C130.967 46.1418 131.474 46.0327 131.783 45.8145C132.092 45.5902 132.246 45.2931 132.246 44.9233C132.246 44.7051 132.183 44.5111 132.056 44.3414C131.934 44.1656 131.704 43.9867 131.364 43.8049C131.031 43.617 130.54 43.3927 129.891 43.132C129.255 42.8774 128.718 42.6228 128.282 42.3682C127.845 42.1135 127.515 41.8074 127.291 41.4497C127.066 41.086 126.954 40.6223 126.954 40.0585C126.954 39.1673 127.306 38.4914 128.009 38.0307C128.718 37.5639 129.655 37.3305 130.819 37.3305C131.437 37.3305 132.019 37.3942 132.565 37.5215C133.116 37.6427 133.656 37.8216 134.183 38.058L133.51 39.6675C133.056 39.4674 132.598 39.3037 132.137 39.1764C131.683 39.0431 131.219 38.9764 130.746 38.9764C130.194 38.9764 129.773 39.0613 129.482 39.231C129.197 39.4007 129.055 39.6432 129.055 39.9585C129.055 40.1949 129.124 40.3949 129.264 40.5586C129.403 40.7223 129.643 40.886 129.982 41.0496C130.328 41.2133 130.807 41.4164 131.419 41.6589C132.019 41.8892 132.537 42.1317 132.974 42.3863C133.416 42.6349 133.756 42.941 133.992 43.3048C134.229 43.6685 134.347 44.1383 134.347 44.7142Z" fill="#333333"/>
<path d="M209.761 77.0259L209.267 75.6229H207.336L206.842 77.0259H205.967L207.847 71.9532H208.766L210.643 77.0259H209.761ZM209.053 74.9111L208.573 73.5289C208.554 73.469 208.528 73.3849 208.493 73.2767C208.459 73.1661 208.424 73.0544 208.39 72.9415C208.355 72.8263 208.326 72.7295 208.303 72.6512C208.28 72.7457 208.251 72.8516 208.217 72.9691C208.185 73.0843 208.152 73.1926 208.12 73.2939C208.09 73.3953 208.067 73.4736 208.051 73.5289L207.567 74.9111H209.053ZM212.512 77.095C212.056 77.095 211.69 76.9291 211.413 76.5974C211.139 76.2634 211.002 75.7715 211.002 75.1219C211.002 74.4654 211.141 73.9689 211.42 73.6326C211.701 73.2962 212.071 73.1281 212.529 73.1281C212.723 73.1281 212.892 73.1546 213.037 73.2076C213.182 73.2582 213.307 73.3273 213.41 73.4149C213.516 73.5024 213.606 73.6003 213.68 73.7086H213.718C213.706 73.6372 213.693 73.5347 213.676 73.4011C213.663 73.2651 213.656 73.1396 213.656 73.0244V71.6491H214.471V77.0259H213.835L213.69 76.5041H213.656C213.587 76.6147 213.499 76.7149 213.393 76.8047C213.289 76.8923 213.165 76.9625 213.02 77.0155C212.877 77.0685 212.708 77.095 212.512 77.095ZM212.74 76.435C213.088 76.435 213.333 76.3348 213.476 76.1344C213.619 75.9339 213.693 75.6333 213.697 75.2325V75.1254C213.697 74.6969 213.628 74.3686 213.49 74.1405C213.352 73.9102 213.099 73.795 212.733 73.795C212.441 73.795 212.217 73.9136 212.063 74.1509C211.911 74.3859 211.835 74.7142 211.835 75.1357C211.835 75.5573 211.911 75.8798 212.063 76.1033C212.217 76.3244 212.443 76.435 212.74 76.435ZM219.022 75.1046C219.022 75.4225 218.981 75.7047 218.898 75.9512C218.815 76.1977 218.694 76.4062 218.535 76.5767C218.376 76.7448 218.185 76.8738 217.961 76.9637C217.738 77.0512 217.486 77.095 217.205 77.095C216.942 77.095 216.701 77.0512 216.482 76.9637C216.264 76.8738 216.073 76.7448 215.912 76.5767C215.753 76.4062 215.63 76.1977 215.542 75.9512C215.455 75.7047 215.411 75.4225 215.411 75.1046C215.411 74.6831 215.484 74.326 215.629 74.0334C215.776 73.7385 215.986 73.5139 216.258 73.3596C216.53 73.2053 216.853 73.1281 217.229 73.1281C217.581 73.1281 217.892 73.2053 218.162 73.3596C218.431 73.5139 218.642 73.7385 218.794 74.0334C218.946 74.3283 219.022 74.6854 219.022 75.1046ZM216.247 75.1046C216.247 75.3834 216.281 75.6218 216.348 75.8199C216.417 76.018 216.523 76.1701 216.666 76.276C216.808 76.3797 216.993 76.4315 217.218 76.4315C217.444 76.4315 217.628 76.3797 217.771 76.276C217.914 76.1701 218.019 76.018 218.086 75.8199C218.153 75.6218 218.186 75.3834 218.186 75.1046C218.186 74.8259 218.153 74.5898 218.086 74.3962C218.019 74.2004 217.914 74.0518 217.771 73.9505C217.628 73.8468 217.443 73.795 217.215 73.795C216.879 73.795 216.633 73.9079 216.479 74.1336C216.325 74.3594 216.247 74.6831 216.247 75.1046ZM220.767 71.6491V72.9449C220.767 73.0947 220.763 73.2421 220.753 73.3872C220.746 73.5301 220.74 73.6418 220.733 73.7224H220.767C220.871 73.5566 221.015 73.4172 221.199 73.3043C221.386 73.1891 221.624 73.1315 221.914 73.1315C222.368 73.1315 222.733 73.2985 223.01 73.6326C223.286 73.9643 223.424 74.4561 223.424 75.1081C223.424 75.5412 223.361 75.9051 223.234 76.2C223.108 76.4949 222.929 76.7183 222.699 76.8704C222.471 77.0201 222.202 77.095 221.894 77.095C221.603 77.095 221.368 77.042 221.189 76.936C221.011 76.8278 220.872 76.7022 220.771 76.5594H220.712L220.563 77.0259H219.955V71.6491H220.767ZM221.7 73.7915C221.47 73.7915 221.287 73.8376 221.151 73.9298C221.017 74.0219 220.92 74.1601 220.86 74.3444C220.801 74.5264 220.769 74.7579 220.767 75.039V75.1115C220.767 75.5377 220.834 75.8637 220.968 76.0894C221.104 76.3152 221.35 76.4281 221.707 76.4281C221.99 76.4281 222.208 76.314 222.36 76.086C222.512 75.8556 222.588 75.5262 222.588 75.0977C222.588 74.6646 222.512 74.3387 222.36 74.1198C222.21 73.901 221.99 73.7915 221.7 73.7915ZM225.888 73.1281C226.229 73.1281 226.522 73.1983 226.766 73.3389C227.01 73.4794 227.198 73.6787 227.329 73.9367C227.46 74.1947 227.526 74.5034 227.526 74.8627V75.2981H224.973C224.982 75.669 225.081 75.9547 225.27 76.1551C225.461 76.3555 225.728 76.4557 226.071 76.4557C226.316 76.4557 226.534 76.4327 226.728 76.3866C226.924 76.3382 227.125 76.268 227.333 76.1758V76.8358C227.141 76.9257 226.947 76.9913 226.749 77.0328C226.551 77.0743 226.313 77.095 226.037 77.095C225.661 77.095 225.331 77.0224 225.045 76.8773C224.762 76.7299 224.539 76.511 224.378 76.2207C224.219 75.9305 224.14 75.57 224.14 75.1392C224.14 74.7107 224.212 74.3467 224.357 74.0472C224.503 73.7478 224.706 73.5197 224.969 73.3631C225.232 73.2064 225.538 73.1281 225.888 73.1281ZM225.888 73.7397C225.633 73.7397 225.425 73.8226 225.266 73.9885C225.11 74.1544 225.017 74.3974 224.99 74.7176H226.731C226.729 74.5264 226.697 74.3571 226.635 74.2096C226.575 74.0622 226.483 73.947 226.358 73.8641C226.236 73.7812 226.079 73.7397 225.888 73.7397Z" fill="#808191"/>
<path d="M209.761 99.3372L209.267 97.9342H207.336L206.842 99.3372H205.967L207.847 94.2645H208.766L210.643 99.3372H209.761ZM209.053 97.2224L208.573 95.8402C208.554 95.7803 208.528 95.6962 208.493 95.5879C208.459 95.4774 208.424 95.3656 208.39 95.2528C208.355 95.1376 208.326 95.0408 208.303 94.9625C208.28 95.0569 208.251 95.1629 208.217 95.2804C208.185 95.3956 208.152 95.5039 208.12 95.6052C208.09 95.7066 208.067 95.7849 208.051 95.8402L207.567 97.2224H209.053ZM212.65 98.7497C212.756 98.7497 212.861 98.7405 212.965 98.7221C213.068 98.7013 213.163 98.6772 213.248 98.6495V99.2646C213.158 99.3038 213.042 99.3372 212.899 99.3648C212.756 99.3924 212.608 99.4063 212.453 99.4063C212.237 99.4063 212.042 99.3706 211.869 99.2991C211.696 99.2254 211.559 99.0999 211.458 98.9225C211.357 98.7451 211.306 98.4998 211.306 98.1865V96.1305H210.784V95.7676L211.344 95.4808L211.61 94.6619H212.122V95.5119H213.217V96.1305H212.122V98.1761C212.122 98.3696 212.17 98.5136 212.267 98.608C212.363 98.7025 212.491 98.7497 212.65 98.7497ZM214.841 99.3372H214.026V93.9604H214.841V99.3372ZM217.502 95.4394C217.986 95.4394 218.351 95.5465 218.597 95.7607C218.846 95.975 218.97 96.309 218.97 96.7628V99.3372H218.393L218.238 98.7946H218.21C218.102 98.9329 217.99 99.0469 217.875 99.1367C217.76 99.2266 217.626 99.2934 217.474 99.3372C217.324 99.3832 217.141 99.4063 216.925 99.4063C216.697 99.4063 216.493 99.3648 216.313 99.2819C216.133 99.1966 215.992 99.0676 215.888 98.8949C215.784 98.7221 215.733 98.5032 215.733 98.2383C215.733 97.8444 215.879 97.5484 216.171 97.3502C216.466 97.1521 216.911 97.0427 217.505 97.022L218.169 96.9978V96.7974C218.169 96.5324 218.106 96.3435 217.982 96.2307C217.86 96.1178 217.687 96.0613 217.464 96.0613C217.273 96.0613 217.087 96.089 216.907 96.1443C216.728 96.1996 216.553 96.2675 216.382 96.3482L216.12 95.7745C216.306 95.6755 216.518 95.5949 216.755 95.5327C216.995 95.4705 217.244 95.4394 217.502 95.4394ZM218.165 97.5092L217.671 97.5265C217.266 97.5403 216.981 97.6094 216.818 97.7338C216.654 97.8582 216.572 98.0287 216.572 98.2452C216.572 98.4341 216.629 98.5723 216.742 98.6599C216.854 98.7451 217.003 98.7877 217.187 98.7877C217.468 98.7877 217.701 98.7083 217.885 98.5493C218.072 98.388 218.165 98.1519 218.165 97.8409V97.5092ZM222.678 98.2452C222.678 98.4963 222.617 98.7083 222.495 98.881C222.373 99.0538 222.194 99.1851 221.959 99.275C221.727 99.3625 221.441 99.4063 221.102 99.4063C220.835 99.4063 220.605 99.3867 220.411 99.3475C220.22 99.3107 220.039 99.2531 219.869 99.1747V98.4733C220.051 98.5585 220.255 98.6322 220.48 98.6944C220.708 98.7566 220.924 98.7877 221.127 98.7877C221.394 98.7877 221.586 98.7463 221.704 98.6633C221.821 98.5781 221.88 98.4652 221.88 98.3247C221.88 98.2418 221.856 98.168 221.807 98.1035C221.761 98.0367 221.674 97.9688 221.545 97.8997C221.418 97.8283 221.231 97.743 220.985 97.644C220.743 97.5472 220.539 97.4505 220.373 97.3537C220.207 97.2569 220.082 97.1406 219.997 97.0047C219.911 96.8665 219.869 96.6902 219.869 96.476C219.869 96.1374 220.002 95.8805 220.27 95.7054C220.539 95.528 220.895 95.4394 221.337 95.4394C221.572 95.4394 221.793 95.4635 222.001 95.5119C222.21 95.558 222.415 95.626 222.616 95.7158L222.36 96.3274C222.187 96.2514 222.013 96.1892 221.838 96.1408C221.666 96.0901 221.489 96.0648 221.31 96.0648C221.1 96.0648 220.94 96.0971 220.829 96.1616C220.721 96.2261 220.667 96.3182 220.667 96.438C220.667 96.5278 220.693 96.6039 220.746 96.6661C220.799 96.7283 220.89 96.7905 221.019 96.8527C221.151 96.9149 221.333 96.992 221.565 97.0842C221.793 97.1717 221.99 97.2639 222.156 97.3606C222.324 97.4551 222.453 97.5714 222.543 97.7096C222.633 97.8478 222.678 98.0264 222.678 98.2452ZM226.127 98.2452C226.127 98.4963 226.066 98.7083 225.944 98.881C225.821 99.0538 225.643 99.1851 225.408 99.275C225.175 99.3625 224.89 99.4063 224.551 99.4063C224.284 99.4063 224.053 99.3867 223.86 99.3475C223.669 99.3107 223.488 99.2531 223.317 99.1747V98.4733C223.499 98.5585 223.703 98.6322 223.929 98.6944C224.157 98.7566 224.372 98.7877 224.575 98.7877C224.842 98.7877 225.035 98.7463 225.152 98.6633C225.27 98.5781 225.328 98.4652 225.328 98.3247C225.328 98.2418 225.304 98.168 225.256 98.1035C225.21 98.0367 225.122 97.9688 224.993 97.8997C224.867 97.8283 224.68 97.743 224.433 97.644C224.192 97.5472 223.988 97.4505 223.822 97.3537C223.656 97.2569 223.53 97.1406 223.445 97.0047C223.36 96.8665 223.317 96.6902 223.317 96.476C223.317 96.1374 223.451 95.8805 223.718 95.7054C223.988 95.528 224.344 95.4394 224.786 95.4394C225.021 95.4394 225.242 95.4635 225.449 95.5119C225.659 95.558 225.864 95.626 226.064 95.7158L225.809 96.3274C225.636 96.2514 225.462 96.1892 225.287 96.1408C225.114 96.0901 224.938 96.0648 224.758 96.0648C224.549 96.0648 224.389 96.0971 224.278 96.1616C224.17 96.2261 224.116 96.3182 224.116 96.438C224.116 96.5278 224.142 96.6039 224.195 96.6661C224.248 96.7283 224.339 96.7905 224.468 96.8527C224.599 96.9149 224.781 96.992 225.014 97.0842C225.242 97.1717 225.439 97.2639 225.605 97.3606C225.773 97.4551 225.902 97.5714 225.992 97.7096C226.082 97.8478 226.127 98.0264 226.127 98.2452ZM227.816 95.5119V99.3372H227.004V95.5119H227.816ZM227.416 94.0468C227.54 94.0468 227.647 94.0802 227.737 94.147C227.829 94.2138 227.875 94.329 227.875 94.4926C227.875 94.6538 227.829 94.769 227.737 94.8381C227.647 94.9049 227.54 94.9383 227.416 94.9383C227.287 94.9383 227.177 94.9049 227.087 94.8381C227 94.769 226.956 94.6538 226.956 94.4926C226.956 94.329 227 94.2138 227.087 94.147C227.177 94.0802 227.287 94.0468 227.416 94.0468ZM230.481 95.4394C230.964 95.4394 231.329 95.5465 231.576 95.7607C231.825 95.975 231.949 96.309 231.949 96.7628V99.3372H231.372L231.217 98.7946H231.189C231.081 98.9329 230.969 99.0469 230.854 99.1367C230.739 99.2266 230.605 99.2934 230.453 99.3372C230.303 99.3832 230.12 99.4063 229.904 99.4063C229.675 99.4063 229.472 99.3648 229.292 99.2819C229.112 99.1966 228.971 99.0676 228.867 98.8949C228.763 98.7221 228.711 98.5032 228.711 98.2383C228.711 97.8444 228.858 97.5484 229.15 97.3502C229.445 97.1521 229.89 97.0427 230.484 97.022L231.147 96.9978V96.7974C231.147 96.5324 231.085 96.3435 230.961 96.2307C230.839 96.1178 230.666 96.0613 230.443 96.0613C230.251 96.0613 230.066 96.089 229.886 96.1443C229.707 96.1996 229.531 96.2675 229.361 96.3482L229.098 95.7745C229.285 95.6755 229.497 95.5949 229.734 95.5327C229.974 95.4705 230.223 95.4394 230.481 95.4394ZM231.144 97.5092L230.65 97.5265C230.244 97.5403 229.96 97.6094 229.796 97.7338C229.633 97.8582 229.551 98.0287 229.551 98.2452C229.551 98.4341 229.607 98.5723 229.72 98.6599C229.833 98.7451 229.982 98.7877 230.166 98.7877C230.447 98.7877 230.68 98.7083 230.864 98.5493C231.051 98.388 231.144 98.1519 231.144 97.8409V97.5092ZM235.08 95.4394C235.511 95.4394 235.846 95.5511 236.085 95.7745C236.327 95.9957 236.448 96.3516 236.448 96.8423V99.3372H235.636V96.9943C235.636 96.6972 235.575 96.4749 235.453 96.3274C235.331 96.1777 235.142 96.1028 234.886 96.1028C234.515 96.1028 234.257 96.2168 234.112 96.4449C233.969 96.673 233.898 97.0035 233.898 97.4366V99.3372H233.086V95.5119H233.718L233.832 96.0302H233.877C233.96 95.8966 234.063 95.7872 234.185 95.702C234.309 95.6144 234.447 95.5488 234.6 95.505C234.754 95.4612 234.914 95.4394 235.08 95.4394Z" fill="#808191"/>
<path d="M209.547 120.273C209.547 120.573 209.473 120.831 209.326 121.047C209.181 121.264 208.971 121.43 208.697 121.545C208.425 121.66 208.1 121.718 207.723 121.718C207.538 121.718 207.362 121.707 207.194 121.687C207.026 121.666 206.867 121.636 206.717 121.597C206.57 121.555 206.435 121.506 206.313 121.448V120.667C206.518 120.757 206.747 120.839 207 120.913C207.254 120.984 207.512 121.02 207.775 121.02C207.989 121.02 208.166 120.992 208.307 120.937C208.449 120.879 208.555 120.799 208.625 120.695C208.694 120.589 208.728 120.466 208.728 120.325C208.728 120.175 208.688 120.049 208.607 119.945C208.527 119.841 208.405 119.747 208.241 119.662C208.08 119.574 207.877 119.481 207.633 119.382C207.467 119.315 207.308 119.239 207.156 119.154C207.006 119.069 206.873 118.968 206.755 118.853C206.638 118.738 206.544 118.602 206.475 118.445C206.408 118.286 206.375 118.1 206.375 117.886C206.375 117.6 206.443 117.356 206.579 117.153C206.717 116.95 206.911 116.795 207.159 116.687C207.411 116.578 207.703 116.524 208.037 116.524C208.302 116.524 208.551 116.552 208.784 116.607C209.018 116.662 209.249 116.741 209.475 116.842L209.212 117.509C209.005 117.424 208.803 117.356 208.607 117.305C208.414 117.254 208.216 117.229 208.013 117.229C207.838 117.229 207.689 117.256 207.567 117.309C207.445 117.362 207.352 117.436 207.287 117.533C207.225 117.628 207.194 117.741 207.194 117.872C207.194 118.019 207.23 118.144 207.301 118.245C207.375 118.344 207.488 118.435 207.64 118.518C207.794 118.601 207.992 118.693 208.234 118.794C208.513 118.91 208.749 119.031 208.942 119.157C209.138 119.284 209.288 119.436 209.392 119.613C209.495 119.788 209.547 120.008 209.547 120.273ZM211.254 121.649H210.439V116.272H211.254V121.649ZM213.915 117.751C214.399 117.751 214.764 117.858 215.01 118.072C215.259 118.286 215.384 118.621 215.384 119.074V121.649H214.806L214.651 121.106H214.623C214.515 121.244 214.403 121.358 214.288 121.448C214.173 121.538 214.039 121.605 213.887 121.649C213.738 121.695 213.554 121.718 213.338 121.718C213.11 121.718 212.906 121.676 212.726 121.593C212.547 121.508 212.405 121.379 212.301 121.206C212.198 121.034 212.146 120.815 212.146 120.55C212.146 120.156 212.292 119.86 212.585 119.662C212.879 119.464 213.324 119.354 213.918 119.333L214.582 119.309V119.109C214.582 118.844 214.52 118.655 214.395 118.542C214.273 118.429 214.1 118.373 213.877 118.373C213.686 118.373 213.5 118.401 213.321 118.456C213.141 118.511 212.966 118.579 212.795 118.66L212.533 118.086C212.719 117.987 212.931 117.906 213.169 117.844C213.408 117.782 213.657 117.751 213.915 117.751ZM214.578 119.821L214.084 119.838C213.679 119.852 213.394 119.921 213.231 120.045C213.067 120.17 212.985 120.34 212.985 120.557C212.985 120.746 213.042 120.884 213.155 120.971C213.268 121.057 213.416 121.099 213.6 121.099C213.882 121.099 214.114 121.02 214.298 120.861C214.485 120.7 214.578 120.463 214.578 120.152V119.821ZM218.062 121.718C217.7 121.718 217.387 121.648 217.122 121.507C216.857 121.366 216.653 121.151 216.51 120.861C216.367 120.571 216.296 120.202 216.296 119.755C216.296 119.29 216.374 118.91 216.531 118.615C216.687 118.32 216.904 118.102 217.18 117.962C217.459 117.821 217.778 117.751 218.138 117.751C218.366 117.751 218.572 117.774 218.756 117.82C218.943 117.864 219.1 117.918 219.229 117.982L218.988 118.632C218.847 118.574 218.703 118.526 218.556 118.487C218.408 118.448 218.267 118.428 218.131 118.428C217.907 118.428 217.721 118.478 217.571 118.577C217.423 118.676 217.313 118.823 217.239 119.019C217.168 119.215 217.132 119.458 217.132 119.748C217.132 120.029 217.169 120.266 217.243 120.46C217.316 120.651 217.426 120.796 217.571 120.895C217.716 120.992 217.895 121.041 218.106 121.041C218.316 121.041 218.504 121.015 218.67 120.964C218.836 120.914 218.992 120.848 219.14 120.768V121.472C218.995 121.555 218.839 121.616 218.673 121.656C218.507 121.697 218.303 121.718 218.062 121.718ZM220.85 116.272V118.87C220.85 118.988 220.846 119.117 220.836 119.257C220.827 119.396 220.818 119.526 220.809 119.648H220.826C220.886 119.567 220.957 119.473 221.04 119.365C221.125 119.256 221.206 119.162 221.282 119.081L222.45 117.823H223.383L221.852 119.468L223.483 121.649H222.529L221.306 119.969L220.85 120.36V121.649H220.038V116.272H220.85Z" fill="#808191"/>
<path d="M209.547 145.521C209.547 145.821 209.473 146.079 209.326 146.295C209.181 146.512 208.971 146.678 208.697 146.793C208.425 146.908 208.1 146.966 207.723 146.966C207.538 146.966 207.362 146.955 207.194 146.935C207.026 146.914 206.867 146.884 206.717 146.845C206.57 146.803 206.435 146.754 206.313 146.696V145.915C206.518 146.005 206.747 146.087 207 146.161C207.254 146.232 207.512 146.268 207.775 146.268C207.989 146.268 208.166 146.24 208.307 146.185C208.449 146.127 208.555 146.047 208.625 145.943C208.694 145.837 208.728 145.714 208.728 145.573C208.728 145.424 208.688 145.297 208.607 145.193C208.527 145.09 208.405 144.995 208.241 144.91C208.08 144.822 207.877 144.729 207.633 144.63C207.467 144.563 207.308 144.487 207.156 144.402C207.006 144.317 206.873 144.216 206.755 144.101C206.638 143.986 206.544 143.85 206.475 143.693C206.408 143.535 206.375 143.348 206.375 143.134C206.375 142.848 206.443 142.604 206.579 142.401C206.717 142.198 206.911 142.043 207.159 141.935C207.411 141.826 207.703 141.772 208.037 141.772C208.302 141.772 208.551 141.8 208.784 141.855C209.018 141.91 209.249 141.989 209.475 142.09L209.212 142.757C209.005 142.672 208.803 142.604 208.607 142.553C208.414 142.502 208.216 142.477 208.013 142.477C207.838 142.477 207.689 142.504 207.567 142.557C207.445 142.61 207.352 142.684 207.287 142.781C207.225 142.876 207.194 142.989 207.194 143.12C207.194 143.267 207.23 143.392 207.301 143.493C207.375 143.592 207.488 143.683 207.64 143.766C207.794 143.849 207.992 143.941 208.234 144.042C208.513 144.158 208.749 144.279 208.942 144.405C209.138 144.532 209.288 144.684 209.392 144.861C209.495 145.037 209.547 145.257 209.547 145.521ZM212.401 142.999C212.855 142.999 213.219 143.165 213.493 143.497C213.77 143.828 213.908 144.321 213.908 144.975C213.908 145.409 213.844 145.774 213.715 146.071C213.588 146.366 213.409 146.589 213.179 146.741C212.951 146.891 212.685 146.966 212.381 146.966C212.187 146.966 212.019 146.94 211.876 146.89C211.733 146.839 211.611 146.773 211.51 146.693C211.409 146.61 211.323 146.52 211.254 146.423H211.206C211.217 146.515 211.228 146.618 211.237 146.731C211.248 146.841 211.254 146.943 211.254 147.035V148.593H210.439V143.071H211.102L211.216 143.6H211.254C211.326 143.492 211.412 143.392 211.513 143.3C211.617 143.207 211.741 143.135 211.887 143.082C212.034 143.027 212.206 142.999 212.401 142.999ZM212.184 143.662C211.96 143.662 211.781 143.707 211.645 143.797C211.511 143.885 211.413 144.017 211.351 144.195C211.291 144.372 211.259 144.594 211.254 144.861V144.975C211.254 145.259 211.283 145.5 211.341 145.698C211.4 145.893 211.498 146.043 211.634 146.147C211.773 146.248 211.959 146.299 212.194 146.299C212.392 146.299 212.556 146.245 212.685 146.137C212.816 146.028 212.914 145.874 212.978 145.673C213.043 145.473 213.075 145.237 213.075 144.965C213.075 144.553 213.002 144.233 212.854 144.004C212.709 143.776 212.486 143.662 212.184 143.662ZM218.234 144.975C218.234 145.293 218.193 145.576 218.11 145.822C218.027 146.069 217.906 146.277 217.747 146.448C217.588 146.616 217.397 146.745 217.173 146.835C216.95 146.922 216.698 146.966 216.417 146.966C216.154 146.966 215.913 146.922 215.695 146.835C215.476 146.745 215.286 146.616 215.124 146.448C214.965 146.277 214.842 146.069 214.755 145.822C214.667 145.576 214.623 145.293 214.623 144.975C214.623 144.554 214.696 144.197 214.841 143.904C214.988 143.609 215.198 143.385 215.47 143.23C215.742 143.076 216.065 142.999 216.441 142.999C216.793 142.999 217.104 143.076 217.374 143.23C217.643 143.385 217.854 143.609 218.006 143.904C218.158 144.199 218.234 144.556 218.234 144.975ZM215.46 144.975C215.46 145.254 215.493 145.493 215.56 145.691C215.629 145.889 215.735 146.041 215.878 146.147C216.02 146.251 216.205 146.302 216.431 146.302C216.656 146.302 216.841 146.251 216.983 146.147C217.126 146.041 217.231 145.889 217.298 145.691C217.365 145.493 217.398 145.254 217.398 144.975C217.398 144.697 217.365 144.461 217.298 144.267C217.231 144.071 217.126 143.923 216.983 143.821C216.841 143.718 216.655 143.666 216.427 143.666C216.091 143.666 215.845 143.779 215.691 144.004C215.537 144.23 215.46 144.554 215.46 144.975ZM220.591 146.309C220.697 146.309 220.802 146.3 220.905 146.282C221.009 146.261 221.104 146.237 221.189 146.209V146.824C221.099 146.863 220.983 146.897 220.84 146.924C220.697 146.952 220.548 146.966 220.394 146.966C220.177 146.966 219.983 146.93 219.81 146.859C219.637 146.785 219.5 146.659 219.399 146.482C219.297 146.305 219.247 146.059 219.247 145.746V143.69H218.725V143.327L219.285 143.04L219.551 142.221H220.062V143.071H221.158V143.69H220.062V145.736C220.062 145.929 220.111 146.073 220.207 146.168C220.304 146.262 220.432 146.309 220.591 146.309ZM222.778 143.071V146.897H221.966V143.071H222.778ZM222.377 141.606C222.502 141.606 222.609 141.64 222.699 141.707C222.791 141.773 222.837 141.889 222.837 142.052C222.837 142.213 222.791 142.329 222.699 142.398C222.609 142.464 222.502 142.498 222.377 142.498C222.248 142.498 222.139 142.464 222.049 142.398C221.962 142.329 221.918 142.213 221.918 142.052C221.918 141.889 221.962 141.773 222.049 141.707C222.139 141.64 222.248 141.606 222.377 141.606ZM225.854 143.69H224.924V146.897H224.112V143.69H223.487V143.3L224.112 143.061V142.795C224.112 142.47 224.163 142.212 224.264 142.021C224.368 141.83 224.515 141.693 224.706 141.61C224.9 141.525 225.13 141.482 225.398 141.482C225.573 141.482 225.733 141.497 225.878 141.527C226.023 141.555 226.145 141.587 226.244 141.624L226.033 142.239C225.955 142.213 225.867 142.19 225.771 142.17C225.674 142.147 225.57 142.135 225.46 142.135C225.275 142.135 225.14 142.193 225.052 142.308C224.967 142.423 224.924 142.591 224.924 142.812V143.071H225.854V143.69ZM225.93 143.071H226.814L227.599 145.255C227.633 145.354 227.664 145.452 227.692 145.549C227.722 145.644 227.747 145.737 227.768 145.829C227.791 145.921 227.809 146.013 227.823 146.105H227.844C227.867 145.986 227.899 145.852 227.941 145.705C227.985 145.555 228.033 145.405 228.086 145.255L228.839 143.071H229.713L228.072 147.422C227.978 147.671 227.861 147.883 227.723 148.058C227.587 148.235 227.426 148.369 227.239 148.459C227.053 148.551 226.84 148.597 226.6 148.597C226.485 148.597 226.385 148.59 226.299 148.576C226.214 148.565 226.142 148.552 226.082 148.538V147.888C226.13 147.9 226.191 147.91 226.265 147.92C226.339 147.929 226.415 147.933 226.493 147.933C226.638 147.933 226.764 147.905 226.87 147.847C226.976 147.789 227.065 147.708 227.139 147.602C227.213 147.498 227.274 147.379 227.322 147.246L227.457 146.886L225.93 143.071Z" fill="#808191"/>
<path d="M206.002 172.963C205.875 172.963 205.765 172.955 205.67 172.939C205.573 172.925 205.49 172.905 205.421 172.88V172.186C205.495 172.204 205.575 172.22 205.66 172.234C205.745 172.248 205.836 172.255 205.933 172.255C206.059 172.255 206.175 172.23 206.278 172.182C206.382 172.134 206.464 172.046 206.524 171.919C206.586 171.793 206.617 171.614 206.617 171.384V166.505H207.446V171.356C207.446 171.732 207.386 172.037 207.267 172.272C207.147 172.509 206.979 172.683 206.762 172.794C206.546 172.907 206.292 172.963 206.002 172.963ZM209.482 167.731V171.557H208.669V167.731H209.482ZM209.081 166.266C209.205 166.266 209.312 166.3 209.402 166.366C209.494 166.433 209.54 166.548 209.54 166.712C209.54 166.873 209.494 166.988 209.402 167.058C209.312 167.124 209.205 167.158 209.081 167.158C208.952 167.158 208.842 167.124 208.752 167.058C208.665 166.988 208.621 166.873 208.621 166.712C208.621 166.548 208.665 166.433 208.752 166.366C208.842 166.3 208.952 166.266 209.081 166.266ZM212.585 167.659C212.649 167.659 212.719 167.662 212.795 167.669C212.871 167.676 212.937 167.685 212.992 167.697L212.916 168.457C212.868 168.443 212.808 168.433 212.737 168.426C212.667 168.419 212.605 168.416 212.55 168.416C212.405 168.416 212.267 168.44 212.135 168.488C212.004 168.534 211.888 168.606 211.786 168.702C211.685 168.797 211.606 168.915 211.548 169.058C211.49 169.201 211.462 169.367 211.462 169.556V171.557H210.646V167.731H211.282L211.392 168.405H211.43C211.506 168.269 211.601 168.145 211.714 168.032C211.827 167.919 211.956 167.829 212.101 167.763C212.248 167.693 212.409 167.659 212.585 167.659ZM215.2 167.659C215.684 167.659 216.049 167.766 216.296 167.98C216.545 168.194 216.669 168.528 216.669 168.982V171.557H216.092L215.936 171.014H215.909C215.8 171.152 215.689 171.266 215.574 171.356C215.458 171.446 215.325 171.513 215.173 171.557C215.023 171.603 214.84 171.626 214.623 171.626C214.395 171.626 214.191 171.584 214.012 171.501C213.832 171.416 213.69 171.287 213.587 171.114C213.483 170.942 213.431 170.723 213.431 170.458C213.431 170.064 213.577 169.768 213.87 169.57C214.165 169.372 214.609 169.262 215.204 169.241L215.867 169.217V169.017C215.867 168.752 215.805 168.563 215.681 168.45C215.559 168.337 215.386 168.281 215.162 168.281C214.971 168.281 214.786 168.308 214.606 168.364C214.426 168.419 214.251 168.487 214.081 168.568L213.818 167.994C214.005 167.895 214.217 167.814 214.454 167.752C214.694 167.69 214.942 167.659 215.2 167.659ZM215.864 169.729L215.37 169.746C214.964 169.76 214.68 169.829 214.516 169.953C214.353 170.078 214.271 170.248 214.271 170.465C214.271 170.654 214.327 170.792 214.44 170.879C214.553 170.965 214.702 171.007 214.886 171.007C215.167 171.007 215.4 170.928 215.584 170.769C215.771 170.608 215.864 170.371 215.864 170.06V169.729Z" fill="#808191"/>
<path d="M298.041 72.0259H297.225V68.7743C297.225 68.666 297.227 68.5577 297.229 68.4494C297.231 68.3412 297.233 68.2352 297.236 68.1315C297.24 68.0279 297.246 67.9288 297.253 67.8344C297.205 67.8873 297.145 67.9449 297.073 68.0071C297.004 68.0693 296.93 68.1338 296.852 68.2006L296.272 68.6637L295.864 68.1488L297.364 66.9739H298.041V72.0259ZM301.42 68.8676C301.745 68.8676 302.031 68.9263 302.277 69.0438C302.526 69.159 302.72 69.3294 302.858 69.5552C302.996 69.7787 303.065 70.0528 303.065 70.3776C303.065 70.7324 302.99 71.0388 302.841 71.2968C302.691 71.5525 302.471 71.7494 302.181 71.8877C301.89 72.0259 301.537 72.095 301.12 72.095C300.855 72.095 300.607 72.072 300.377 72.0259C300.149 71.9798 299.952 71.9107 299.786 71.8185V71.086C299.959 71.1827 300.166 71.2622 300.408 71.3244C300.65 71.3843 300.881 71.4143 301.102 71.4143C301.337 71.4143 301.539 71.3797 301.707 71.3106C301.875 71.2415 302.004 71.1355 302.094 70.9927C302.186 70.8499 302.232 70.669 302.232 70.4502C302.232 70.1599 302.139 69.9365 301.952 69.7798C301.768 69.6209 301.479 69.5414 301.085 69.5414C300.947 69.5414 300.799 69.554 300.643 69.5794C300.488 69.6024 300.359 69.6278 300.256 69.6554L299.9 69.4446L300.09 66.9739H302.716V67.6892H300.805L300.695 68.947C300.778 68.9286 300.877 68.9113 300.992 68.8952C301.107 68.8768 301.25 68.8676 301.42 68.8676ZM298.715 76.9014C299.086 76.9014 299.367 77.0396 299.558 77.316C299.749 77.5902 299.845 77.9783 299.845 78.4805C299.845 78.9804 299.752 79.3709 299.568 79.652C299.386 79.933 299.102 80.0735 298.715 80.0735C298.353 80.0735 298.078 79.933 297.889 79.652C297.7 79.3709 297.605 78.9804 297.605 78.4805C297.605 77.9783 297.694 77.5902 297.872 77.316C298.051 77.0396 298.332 76.9014 298.715 76.9014ZM298.718 77.4681C298.568 77.4681 298.458 77.5522 298.386 77.7203C298.317 77.8885 298.283 78.1431 298.283 78.484C298.283 78.8226 298.317 79.0783 298.386 79.2511C298.458 79.4216 298.568 79.5068 298.718 79.5068C298.87 79.5068 298.983 79.4216 299.057 79.2511C299.133 79.0806 299.171 78.8249 299.171 78.484C299.171 78.1454 299.134 77.892 299.06 77.7238C298.987 77.5533 298.872 77.4681 298.718 77.4681ZM302.108 76.9739L299.306 82.0259H298.639L301.441 76.9739H302.108ZM302.015 78.9228C302.386 78.9228 302.667 79.0611 302.858 79.3375C303.051 79.6116 303.148 79.9998 303.148 80.502C303.148 80.9996 303.056 81.3889 302.872 81.67C302.69 81.951 302.404 82.0915 302.015 82.0915C301.653 82.0915 301.378 81.951 301.189 81.67C301 81.3889 300.905 80.9996 300.905 80.502C300.905 79.9998 300.994 79.6116 301.172 79.3375C301.351 79.0611 301.632 78.9228 302.015 78.9228ZM302.018 79.4895C301.868 79.4895 301.758 79.5736 301.686 79.7418C301.617 79.91 301.583 80.1645 301.583 80.5055C301.583 80.8441 301.617 81.0998 301.686 81.2726C301.758 81.4431 301.868 81.5283 302.018 81.5283C302.172 81.5283 302.287 81.4442 302.36 81.276C302.434 81.1056 302.471 80.8487 302.471 80.5055C302.471 80.1668 302.434 79.9134 302.36 79.7453C302.287 79.5748 302.172 79.4895 302.018 79.4895Z" fill="#333333"/>
<path d="M298.041 94.3372H297.225V91.0855C297.225 90.9773 297.227 90.869 297.229 90.7607C297.231 90.6524 297.233 90.5465 297.236 90.4428C297.24 90.3391 297.246 90.2401 297.253 90.1456C297.205 90.1986 297.145 90.2562 297.073 90.3184C297.004 90.3806 296.93 90.4451 296.852 90.5119L296.272 90.975L295.864 90.4601L297.364 89.2852H298.041V94.3372ZM302.93 90.4394C302.93 90.6674 302.884 90.8655 302.792 91.0337C302.7 91.2019 302.573 91.3401 302.412 91.4484C302.253 91.5543 302.069 91.6304 301.859 91.6764V91.7006C302.262 91.7513 302.566 91.878 302.771 92.0807C302.979 92.2834 303.082 92.5518 303.082 92.8858C303.082 93.1784 303.012 93.4399 302.872 93.6702C302.731 93.8983 302.516 94.078 302.225 94.2093C301.935 94.3406 301.562 94.4063 301.106 94.4063C300.832 94.4063 300.577 94.3844 300.342 94.3406C300.11 94.2968 299.888 94.2266 299.679 94.1298V93.4076C299.893 93.5136 300.121 93.5954 300.363 93.653C300.605 93.7106 300.834 93.7394 301.051 93.7394C301.472 93.7394 301.773 93.661 301.952 93.5044C302.132 93.3454 302.222 93.1266 302.222 92.8478C302.222 92.6682 302.175 92.5207 302.08 92.4055C301.988 92.2904 301.844 92.204 301.648 92.1464C301.455 92.0888 301.205 92.06 300.899 92.06H300.453V91.4069H300.902C301.195 91.4069 301.43 91.3723 301.607 91.3032C301.784 91.2318 301.912 91.1339 301.99 91.0095C302.071 90.8851 302.111 90.74 302.111 90.5741C302.111 90.3576 302.041 90.1894 301.901 90.0696C301.76 89.9475 301.552 89.8865 301.275 89.8865C301.105 89.8865 300.949 89.9061 300.809 89.9452C300.67 89.9844 300.543 90.0339 300.425 90.0938C300.308 90.1537 300.196 90.2182 300.09 90.2873L299.699 89.7241C299.891 89.5812 300.119 89.4603 300.384 89.3612C300.649 89.2622 300.957 89.2127 301.31 89.2127C301.828 89.2127 302.228 89.3244 302.509 89.5478C302.79 89.769 302.93 90.0662 302.93 90.4394ZM298.715 99.2127C299.086 99.2127 299.367 99.3509 299.558 99.6273C299.749 99.9015 299.845 100.29 299.845 100.792C299.845 101.292 299.752 101.682 299.568 101.963C299.386 102.244 299.102 102.385 298.715 102.385C298.353 102.385 298.078 102.244 297.889 101.963C297.7 101.682 297.605 101.292 297.605 100.792C297.605 100.29 297.694 99.9015 297.872 99.6273C298.051 99.3509 298.332 99.2127 298.715 99.2127ZM298.718 99.7794C298.568 99.7794 298.458 99.8634 298.386 100.032C298.317 100.2 298.283 100.454 298.283 100.795C298.283 101.134 298.317 101.39 298.386 101.562C298.458 101.733 298.568 101.818 298.718 101.818C298.87 101.818 298.983 101.733 299.057 101.562C299.133 101.392 299.171 101.136 299.171 100.795C299.171 100.457 299.134 100.203 299.06 100.035C298.987 99.8646 298.872 99.7794 298.718 99.7794ZM302.108 99.2852L299.306 104.337H298.639L301.441 99.2852H302.108ZM302.015 101.234C302.386 101.234 302.667 101.372 302.858 101.649C303.051 101.923 303.148 102.311 303.148 102.813C303.148 103.311 303.056 103.7 302.872 103.981C302.69 104.262 302.404 104.403 302.015 104.403C301.653 104.403 301.378 104.262 301.189 103.981C301 103.7 300.905 103.311 300.905 102.813C300.905 102.311 300.994 101.923 301.172 101.649C301.351 101.372 301.632 101.234 302.015 101.234ZM302.018 101.801C301.868 101.801 301.758 101.885 301.686 102.053C301.617 102.221 301.583 102.476 301.583 102.817C301.583 103.155 301.617 103.411 301.686 103.584C301.758 103.754 301.868 103.84 302.018 103.84C302.172 103.84 302.287 103.755 302.36 103.587C302.434 103.417 302.471 103.16 302.471 102.817C302.471 102.478 302.434 102.225 302.36 102.057C302.287 101.886 302.172 101.801 302.018 101.801Z" fill="#333333"/>
<path d="M292.958 121.649H289.537V121.037L290.846 119.71C291.1 119.452 291.308 119.23 291.472 119.043C291.635 118.854 291.756 118.676 291.835 118.508C291.915 118.339 291.956 118.156 291.956 117.958C291.956 117.714 291.885 117.53 291.745 117.405C291.604 117.279 291.419 117.215 291.189 117.215C290.97 117.215 290.767 117.259 290.58 117.347C290.396 117.432 290.205 117.554 290.007 117.713L289.561 117.177C289.702 117.057 289.851 116.948 290.01 116.849C290.171 116.75 290.351 116.672 290.549 116.614C290.747 116.554 290.973 116.524 291.227 116.524C291.547 116.524 291.823 116.582 292.056 116.697C292.289 116.81 292.467 116.968 292.591 117.17C292.718 117.373 292.782 117.609 292.782 117.879C292.782 118.151 292.727 118.402 292.619 118.632C292.511 118.862 292.357 119.09 292.156 119.316C291.956 119.54 291.717 119.783 291.441 120.045L290.567 120.899V120.937H292.958V121.649ZM297.008 119.119C297.008 119.527 296.975 119.892 296.911 120.215C296.849 120.535 296.75 120.807 296.614 121.03C296.478 121.254 296.3 121.424 296.082 121.542C295.863 121.659 295.598 121.718 295.287 121.718C294.897 121.718 294.576 121.615 294.323 121.41C294.069 121.203 293.882 120.906 293.759 120.519C293.637 120.129 293.576 119.663 293.576 119.119C293.576 118.576 293.632 118.11 293.742 117.723C293.855 117.334 294.037 117.036 294.288 116.828C294.539 116.621 294.872 116.517 295.287 116.517C295.678 116.517 296.001 116.621 296.254 116.828C296.51 117.033 296.699 117.33 296.821 117.72C296.945 118.107 297.008 118.573 297.008 119.119ZM294.395 119.119C294.395 119.545 294.423 119.901 294.478 120.187C294.536 120.473 294.63 120.687 294.762 120.83C294.893 120.97 295.068 121.041 295.287 121.041C295.506 121.041 295.681 120.97 295.812 120.83C295.943 120.689 296.038 120.476 296.095 120.19C296.155 119.905 296.185 119.548 296.185 119.119C296.185 118.695 296.156 118.341 296.099 118.055C296.041 117.769 295.947 117.555 295.815 117.412C295.684 117.267 295.508 117.195 295.287 117.195C295.066 117.195 294.889 117.267 294.758 117.412C294.629 117.555 294.536 117.769 294.478 118.055C294.423 118.341 294.395 118.695 294.395 119.119ZM298.715 116.524C299.086 116.524 299.367 116.662 299.558 116.939C299.749 117.213 299.845 117.601 299.845 118.103C299.845 118.603 299.752 118.994 299.568 119.275C299.386 119.556 299.102 119.696 298.715 119.696C298.353 119.696 298.078 119.556 297.889 119.275C297.7 118.994 297.605 118.603 297.605 118.103C297.605 117.601 297.694 117.213 297.871 116.939C298.051 116.662 298.332 116.524 298.715 116.524ZM298.718 117.091C298.568 117.091 298.458 117.175 298.386 117.343C298.317 117.511 298.283 117.766 298.283 118.107C298.283 118.445 298.317 118.701 298.386 118.874C298.458 119.044 298.568 119.13 298.718 119.13C298.87 119.13 298.983 119.044 299.057 118.874C299.133 118.703 299.171 118.448 299.171 118.107C299.171 117.768 299.134 117.515 299.06 117.347C298.986 117.176 298.872 117.091 298.718 117.091ZM302.108 116.597L299.306 121.649H298.639L301.441 116.597H302.108ZM302.015 118.546C302.386 118.546 302.667 118.684 302.858 118.96C303.051 119.234 303.148 119.623 303.148 120.125C303.148 120.622 303.056 121.012 302.872 121.293C302.69 121.574 302.404 121.714 302.015 121.714C301.653 121.714 301.378 121.574 301.189 121.293C301 121.012 300.905 120.622 300.905 120.125C300.905 119.623 300.994 119.234 301.171 118.96C301.351 118.684 301.632 118.546 302.015 118.546ZM302.018 119.112C301.868 119.112 301.758 119.196 301.686 119.365C301.617 119.533 301.583 119.787 301.583 120.128C301.583 120.467 301.617 120.723 301.686 120.895C301.758 121.066 301.868 121.151 302.018 121.151C302.172 121.151 302.286 121.067 302.36 120.899C302.434 120.728 302.471 120.472 302.471 120.128C302.471 119.79 302.434 119.536 302.36 119.368C302.286 119.198 302.172 119.112 302.018 119.112Z" fill="#333333"/>
<path d="M292.957 146.897H289.536V146.285L290.846 144.958C291.099 144.7 291.308 144.478 291.471 144.291C291.635 144.102 291.756 143.924 291.834 143.756C291.915 143.588 291.955 143.404 291.955 143.206C291.955 142.962 291.885 142.778 291.744 142.653C291.604 142.527 291.418 142.463 291.188 142.463C290.969 142.463 290.766 142.507 290.58 142.595C290.396 142.68 290.204 142.802 290.006 142.961L289.561 142.425C289.701 142.306 289.851 142.196 290.01 142.097C290.171 141.998 290.351 141.92 290.549 141.862C290.747 141.802 290.973 141.772 291.226 141.772C291.546 141.772 291.823 141.83 292.055 141.945C292.288 142.058 292.467 142.216 292.591 142.418C292.718 142.621 292.781 142.857 292.781 143.127C292.781 143.399 292.727 143.65 292.619 143.88C292.51 144.11 292.356 144.339 292.156 144.564C291.955 144.788 291.717 145.031 291.44 145.293L290.566 146.147V146.185H292.957V146.897ZM297.007 144.367C297.007 144.775 296.975 145.14 296.91 145.463C296.848 145.783 296.749 146.055 296.613 146.278C296.477 146.502 296.3 146.672 296.081 146.79C295.862 146.907 295.597 146.966 295.286 146.966C294.897 146.966 294.576 146.863 294.322 146.658C294.069 146.451 293.881 146.154 293.759 145.767C293.637 145.377 293.576 144.911 293.576 144.367C293.576 143.824 293.631 143.358 293.742 142.971C293.855 142.582 294.037 142.284 294.288 142.076C294.539 141.869 294.872 141.765 295.286 141.765C295.678 141.765 296 141.869 296.254 142.076C296.51 142.281 296.698 142.579 296.821 142.968C296.945 143.355 297.007 143.821 297.007 144.367ZM294.395 144.367C294.395 144.793 294.422 145.149 294.478 145.435C294.535 145.721 294.63 145.935 294.761 146.078C294.892 146.218 295.067 146.289 295.286 146.289C295.505 146.289 295.68 146.218 295.812 146.078C295.943 145.937 296.037 145.724 296.095 145.439C296.155 145.153 296.185 144.796 296.185 144.367C296.185 143.943 296.156 143.589 296.098 143.303C296.041 143.017 295.946 142.803 295.815 142.66C295.684 142.515 295.507 142.443 295.286 142.443C295.065 142.443 294.889 142.515 294.758 142.66C294.629 142.803 294.535 143.017 294.478 143.303C294.422 143.589 294.395 143.943 294.395 144.367ZM298.714 141.772C299.085 141.772 299.366 141.91 299.557 142.187C299.748 142.461 299.844 142.849 299.844 143.351C299.844 143.851 299.752 144.242 299.568 144.523C299.386 144.804 299.101 144.944 298.714 144.944C298.352 144.944 298.077 144.804 297.888 144.523C297.699 144.242 297.605 143.851 297.605 143.351C297.605 142.849 297.694 142.461 297.871 142.187C298.051 141.91 298.332 141.772 298.714 141.772ZM298.718 142.339C298.568 142.339 298.457 142.423 298.386 142.591C298.317 142.759 298.282 143.014 298.282 143.355C298.282 143.693 298.317 143.949 298.386 144.122C298.457 144.292 298.568 144.378 298.718 144.378C298.87 144.378 298.983 144.292 299.056 144.122C299.132 143.951 299.17 143.696 299.17 143.355C299.17 143.016 299.133 142.763 299.06 142.595C298.986 142.424 298.872 142.339 298.718 142.339ZM302.107 141.845L299.305 146.897H298.638L301.441 141.845H302.107ZM302.014 143.794C302.385 143.794 302.666 143.932 302.857 144.208C303.051 144.482 303.148 144.871 303.148 145.373C303.148 145.87 303.055 146.26 302.871 146.541C302.689 146.822 302.403 146.962 302.014 146.962C301.652 146.962 301.377 146.822 301.188 146.541C300.999 146.26 300.905 145.87 300.905 145.373C300.905 144.871 300.994 144.482 301.171 144.208C301.351 143.932 301.632 143.794 302.014 143.794ZM302.018 144.36C301.868 144.36 301.757 144.444 301.686 144.613C301.617 144.781 301.582 145.035 301.582 145.376C301.582 145.715 301.617 145.971 301.686 146.143C301.757 146.314 301.868 146.399 302.018 146.399C302.172 146.399 302.286 146.315 302.36 146.147C302.433 145.976 302.47 145.72 302.47 145.376C302.47 145.038 302.433 144.784 302.36 144.616C302.286 144.446 302.172 144.36 302.018 144.36Z" fill="#333333"/>
<path d="M292.764 167.659C292.764 167.887 292.718 168.085 292.626 168.253C292.534 168.421 292.407 168.56 292.246 168.668C292.087 168.774 291.902 168.85 291.693 168.896V168.92C292.096 168.971 292.4 169.097 292.605 169.3C292.812 169.503 292.916 169.771 292.916 170.105C292.916 170.398 292.846 170.659 292.705 170.89C292.565 171.118 292.349 171.297 292.059 171.429C291.769 171.56 291.396 171.626 290.94 171.626C290.665 171.626 290.411 171.604 290.176 171.56C289.943 171.516 289.722 171.446 289.512 171.349V170.627C289.727 170.733 289.955 170.815 290.197 170.872C290.438 170.93 290.668 170.959 290.884 170.959C291.306 170.959 291.606 170.881 291.786 170.724C291.966 170.565 292.056 170.346 292.056 170.067C292.056 169.888 292.008 169.74 291.914 169.625C291.822 169.51 291.678 169.423 291.482 169.366C291.289 169.308 291.039 169.279 290.732 169.279H290.286V168.626H290.736C291.028 168.626 291.263 168.592 291.441 168.523C291.618 168.451 291.746 168.353 291.824 168.229C291.905 168.105 291.945 167.959 291.945 167.794C291.945 167.577 291.875 167.409 291.734 167.289C291.594 167.167 291.385 167.106 291.109 167.106C290.938 167.106 290.783 167.126 290.642 167.165C290.504 167.204 290.376 167.253 290.259 167.313C290.141 167.373 290.03 167.438 289.924 167.507L289.533 166.944C289.724 166.801 289.952 166.68 290.217 166.581C290.482 166.482 290.791 166.432 291.143 166.432C291.662 166.432 292.061 166.544 292.342 166.767C292.624 166.988 292.764 167.286 292.764 167.659ZM297.007 171.557H293.586V170.945L294.896 169.618C295.149 169.36 295.358 169.138 295.522 168.951C295.685 168.762 295.806 168.584 295.884 168.416C295.965 168.247 296.005 168.064 296.005 167.866C296.005 167.622 295.935 167.438 295.794 167.313C295.654 167.187 295.469 167.123 295.238 167.123C295.019 167.123 294.817 167.167 294.63 167.255C294.446 167.34 294.254 167.462 294.056 167.621L293.611 167.085C293.751 166.965 293.901 166.856 294.06 166.757C294.221 166.658 294.401 166.58 294.599 166.522C294.797 166.462 295.023 166.432 295.276 166.432C295.596 166.432 295.873 166.49 296.105 166.605C296.338 166.718 296.517 166.876 296.641 167.078C296.768 167.281 296.831 167.517 296.831 167.787C296.831 168.059 296.777 168.31 296.669 168.54C296.56 168.77 296.406 168.998 296.206 169.224C296.005 169.448 295.767 169.691 295.49 169.953L294.616 170.807V170.845H297.007V171.557ZM298.714 166.432C299.085 166.432 299.366 166.57 299.558 166.847C299.749 167.121 299.844 167.509 299.844 168.011C299.844 168.511 299.752 168.902 299.568 169.183C299.386 169.464 299.101 169.604 298.714 169.604C298.353 169.604 298.077 169.464 297.889 169.183C297.7 168.902 297.605 168.511 297.605 168.011C297.605 167.509 297.694 167.121 297.871 166.847C298.051 166.57 298.332 166.432 298.714 166.432ZM298.718 166.999C298.568 166.999 298.458 167.083 298.386 167.251C298.317 167.419 298.282 167.674 298.282 168.015C298.282 168.353 298.317 168.609 298.386 168.782C298.458 168.952 298.568 169.038 298.718 169.038C298.87 169.038 298.983 168.952 299.056 168.782C299.133 168.611 299.171 168.356 299.171 168.015C299.171 167.676 299.134 167.423 299.06 167.255C298.986 167.084 298.872 166.999 298.718 166.999ZM302.108 166.505L299.305 171.557H298.638L301.441 166.505H302.108ZM302.014 168.454C302.385 168.454 302.666 168.592 302.858 168.868C303.051 169.142 303.148 169.531 303.148 170.033C303.148 170.53 303.056 170.92 302.871 171.201C302.689 171.482 302.404 171.622 302.014 171.622C301.653 171.622 301.377 171.482 301.189 171.201C301 170.92 300.905 170.53 300.905 170.033C300.905 169.531 300.994 169.142 301.171 168.868C301.351 168.592 301.632 168.454 302.014 168.454ZM302.018 169.02C301.868 169.02 301.758 169.104 301.686 169.273C301.617 169.441 301.582 169.695 301.582 170.036C301.582 170.375 301.617 170.631 301.686 170.803C301.758 170.974 301.868 171.059 302.018 171.059C302.172 171.059 302.286 170.975 302.36 170.807C302.434 170.636 302.471 170.379 302.471 170.036C302.471 169.698 302.434 169.444 302.36 169.276C302.286 169.106 302.172 169.02 302.018 169.02Z" fill="#333333"/>
<path fill-rule="evenodd" clip-rule="evenodd" d="M299.239 48.4687C295.376 48.4687 292.246 45.3378 292.246 41.4757C292.246 37.6136 295.376 34.4827 299.239 34.4827C303.101 34.4827 306.232 37.6136 306.232 41.4757C306.232 45.3378 303.101 48.4687 299.239 48.4687ZM299.239 35.8813C296.149 35.8813 293.644 38.386 293.644 41.4757C293.644 44.5654 296.149 47.0701 299.239 47.0701C302.328 47.0701 304.833 44.5654 304.833 41.4757C304.833 38.386 302.328 35.8813 299.239 35.8813ZM299.239 40.6016C299.721 40.6016 300.113 40.9929 300.113 41.4757V44.2729C300.113 44.7557 299.721 45.147 299.239 45.147C298.756 45.147 298.365 44.7557 298.365 44.2729V41.4757C298.365 40.9929 298.756 40.6016 299.239 40.6016ZM299.239 37.9792C298.756 37.9792 298.365 38.3705 298.365 38.8533C298.365 39.3361 298.756 39.7274 299.239 39.7274C299.721 39.7274 300.113 39.3361 300.113 38.8533C300.113 38.3705 299.721 37.9792 299.239 37.9792Z" fill="#CECECE"/>
<path d="M303.435 85.4667L183.656 86.0527" stroke="#CECECE" stroke-width="0.587151"/>
<path d="M303.435 107.777L183.656 107.777" stroke="#CECECE" stroke-width="0.587151"/>
<path d="M303.435 131.264L183.656 131.264" stroke="#CECECE" stroke-width="0.587151"/>
<path d="M303.435 156.511L183.656 156.511" stroke="#CECECE" stroke-width="0.587151"/>
<circle cx="109.728" cy="119.098" r="46.154" stroke="#CECECE" stroke-width="15.3847"/>
<path d="M155.882 119.098C155.882 144.588 135.218 165.252 109.728 165.252" stroke="#FFAF75" stroke-width="15.3847"/>
<path d="M155.882 119.098C155.882 93.6082 135.218 72.9443 109.728 72.9443C84.2376 72.9443 63.5737 93.6082 63.5737 119.098" stroke="#2787DF" stroke-width="15.3847"/>
<path d="M63.5737 119.098C63.5737 93.6082 84.2376 72.9443 109.728 72.9443" stroke="#51459D" stroke-width="15.3847"/>
<path d="M63.5737 119.098C63.5737 93.6082 84.2376 72.9443 109.728 72.9443" stroke="url(#paint0_linear_48_2620)" stroke-width="15.3847"/>
<path d="M196.217 81.191H186.499C185.026 81.191 183.835 79.9897 183.835 78.5037V69.0821C183.835 67.5961 185.026 66.3948 186.499 66.3948H196.217C197.691 66.3948 198.882 67.5961 198.882 69.0821V78.5037C198.882 79.9897 197.691 81.191 196.217 81.191Z" fill="#FF26BE"/>
<path d="M195.798 80.6275H186.646C185.405 80.6275 184.393 79.6078 184.393 78.3568V69.5112C184.393 68.2602 185.405 67.2405 186.646 67.2405H195.793C197.041 67.2405 198.046 68.2602 198.046 69.5112V78.3508C198.052 79.6078 197.04 80.6275 195.798 80.6275Z" fill="black"/>
<path d="M189.811 73.3043L191.594 76.7691C191.626 76.8204 191.607 76.8724 191.556 76.8724H190.448C190.377 76.8724 190.345 76.8532 190.314 76.7889C189.906 75.9388 189.492 75.0887 189.065 74.1742H189.053C188.671 75.0373 188.25 75.9456 187.843 76.7957C187.811 76.847 187.779 76.8668 187.728 76.8668H186.678C186.615 76.8668 186.608 76.8155 186.641 76.7765L188.385 73.4144L186.698 70.0139C186.66 69.9626 186.698 69.9237 186.736 69.9237H187.831C187.895 69.9237 187.921 69.9366 187.946 69.9948C188.347 70.8449 188.754 71.721 189.136 72.5773H189.149C189.518 71.7271 189.926 70.8449 190.321 70.0009C190.353 69.9496 190.372 69.9175 190.436 69.9175H191.461C191.512 69.9175 191.531 69.9564 191.5 70.0077L189.811 73.3043ZM191.907 74.3542C191.907 72.8536 192.894 71.6814 194.46 71.6814C194.594 71.6814 194.663 71.6814 194.791 71.6944V69.988C194.791 69.949 194.823 69.9237 194.855 69.9237H195.861C195.912 69.9237 195.924 69.9428 195.924 69.975V75.8875C195.924 76.0612 195.924 76.2801 195.956 76.5187C195.956 76.5577 195.943 76.57 195.906 76.5898C195.371 76.8476 194.81 76.9633 194.275 76.9633C192.893 76.9688 191.906 76.1063 191.907 74.3542ZM194.791 72.7059C194.701 72.6669 194.574 72.6416 194.421 72.6416C193.619 72.6416 193.059 73.266 193.059 74.3035C193.059 75.4887 193.632 75.9654 194.352 75.9654C194.505 75.9654 194.67 75.9462 194.791 75.8943V72.7059H194.791Z" fill="#FFD9F2"/>
<path d="M188.888 95.3114C188.771 95.1566 188.552 95.1268 188.399 95.2447C188.355 95.2793 188.32 95.3235 188.297 95.3739L185.292 101.457C185.204 101.637 185.276 101.855 185.453 101.945C185.503 101.97 185.558 101.984 185.613 101.983H189.799C189.936 101.987 190.062 101.908 190.12 101.782C191.024 99.8937 190.476 97.0222 188.888 95.3114Z" fill="url(#paint1_linear_48_2620)"/>
<path d="M191.06 89.8075C189.52 92.1745 189.343 95.1767 190.592 97.7086L192.632 101.783C192.693 101.906 192.819 101.984 192.956 101.984H197.185C197.282 101.984 197.374 101.946 197.442 101.878C197.51 101.81 197.549 101.717 197.548 101.621C197.548 101.565 197.536 101.51 197.511 101.459L191.678 89.8058C191.621 89.6866 191.501 89.6106 191.369 89.6106C191.237 89.6106 191.117 89.6866 191.06 89.8058V89.8075Z" fill="#2787DF"/>
<path d="M189.874 114.628C189.285 114.628 188.808 115.098 188.808 115.676C188.808 116.254 189.285 116.724 189.874 116.724H190.941V115.676C190.941 115.098 190.464 114.629 189.874 114.628C189.874 114.628 189.874 114.628 189.874 114.628ZM189.874 117.424H187.031C186.442 117.424 185.964 117.893 185.965 118.472C185.964 119.05 186.441 119.52 187.031 119.521H189.874C190.463 119.52 190.941 119.051 190.94 118.472C190.941 117.893 190.463 117.424 189.874 117.424Z" fill="#2787DF"/>
<path d="M196.613 118.471C196.613 117.893 196.136 117.423 195.546 117.423C194.957 117.423 194.479 117.893 194.48 118.471V119.52H195.546C196.136 119.519 196.613 119.05 196.613 118.471ZM193.769 118.471V115.675C193.77 115.097 193.293 114.628 192.703 114.627C192.114 114.627 191.636 115.097 191.637 115.675V118.471C191.636 119.05 192.113 119.519 192.703 119.52C193.292 119.519 193.77 119.05 193.769 118.471Z" fill="#82D616"/>
<path d="M192.703 125.098C193.292 125.098 193.77 124.628 193.769 124.05C193.77 123.471 193.292 123.002 192.703 123.002H191.637V124.05C191.636 124.628 192.114 125.097 192.703 125.098ZM192.703 122.302H195.546C196.136 122.301 196.613 121.832 196.613 121.254C196.613 120.675 196.136 120.206 195.547 120.205H192.704C192.114 120.206 191.637 120.675 191.637 121.253C191.637 121.832 192.114 122.301 192.703 122.302Z" fill="#FFAF75"/>
<path d="M185.964 121.253C185.964 121.832 186.441 122.301 187.031 122.302C187.62 122.301 188.098 121.832 188.097 121.253V120.205H187.031C186.441 120.206 185.964 120.675 185.964 121.253ZM188.808 121.253V124.049C188.807 124.628 189.284 125.097 189.874 125.098C190.463 125.098 190.941 124.628 190.94 124.05V121.254C190.941 120.676 190.464 120.206 189.874 120.206C189.284 120.206 188.807 120.675 188.808 121.253C188.808 121.253 188.808 121.254 188.808 121.253Z" fill="#FF3A6E"/>
<path d="M191.698 137.957C188.268 137.957 185.487 140.77 185.487 144.24C185.487 147.709 188.268 150.522 191.698 150.522C195.129 150.522 197.91 147.709 197.91 144.24C197.91 140.77 195.129 137.957 191.698 137.957ZM194.547 147.018C194.436 147.203 194.197 147.261 194.015 147.148C192.556 146.247 190.72 146.043 188.558 146.542C188.35 146.591 188.142 146.459 188.094 146.248C188.046 146.037 188.177 145.827 188.386 145.779C190.751 145.232 192.781 145.468 194.419 146.479C194.601 146.593 194.659 146.834 194.547 147.018ZM195.307 145.308C195.167 145.538 194.868 145.611 194.641 145.469C192.972 144.431 190.426 144.131 188.451 144.737C188.195 144.815 187.925 144.669 187.847 144.411C187.77 144.152 187.914 143.879 188.17 143.8C190.426 143.107 193.23 143.443 195.147 144.634C195.375 144.776 195.447 145.078 195.307 145.308ZM195.372 143.526C193.37 142.324 190.067 142.213 188.156 142.8C187.849 142.894 187.524 142.719 187.431 142.408C187.339 142.098 187.512 141.769 187.819 141.675C190.013 141.002 193.66 141.132 195.965 142.515C196.241 142.681 196.332 143.042 196.168 143.32C196.005 143.6 195.648 143.692 195.372 143.526Z" fill="#82D616"/>
<path d="M198.457 167.407L192.456 161.478L191.875 160.904L187.358 165.367L185.293 167.407C185.078 167.62 185.078 167.965 185.293 168.178L189.419 172.256L191.875 174.682L196.391 170.219L196.462 170.15L198.457 168.182C198.561 168.079 198.62 167.94 198.62 167.794C198.62 167.649 198.561 167.51 198.457 167.407ZM191.875 169.83L189.813 167.793L191.875 165.756L193.936 167.793L191.875 169.83Z" fill="#2787DF"/>
<path d="M191.813 165.743C190.46 164.408 190.453 162.246 191.798 160.903L187.275 165.363L189.736 167.792L191.813 165.743Z" fill="url(#paint2_linear_48_2620)"/>
<path d="M193.886 167.792L191.813 169.833C193.173 171.172 193.173 173.342 191.813 174.681L196.351 170.216L193.886 167.792Z" fill="url(#paint3_linear_48_2620)"/>
<defs>
<filter id="filter0_d_48_2620" x="0.9032" y="0.916025" width="353.148" height="244.057" filterUnits="userSpaceOnUse" color-interpolation-filters="sRGB">
<feFlood flood-opacity="0" result="BackgroundImageFix"/>
<feColorMatrix in="SourceAlpha" type="matrix" values="0 0 0 0 0 0 0 0 0 0 0 0 0 0 0 0 0 0 127 0" result="hardAlpha"/>
<feOffset dx="-1.83094" dy="18.1819"/>
<feGaussianBlur stdDeviation="17.1329"/>
<feComposite in2="hardAlpha" operator="out"/>
<feColorMatrix type="matrix" values="0 0 0 0 0.712934 0 0 0 0 0.731068 0 0 0 0 0.795833 0 0 0 0.3 0"/>
<feBlend mode="normal" in2="BackgroundImageFix" result="effect1_dropShadow_48_2620"/>
<feBlend mode="normal" in="SourceGraphic" in2="effect1_dropShadow_48_2620" result="shape"/>
</filter>
<linearGradient id="paint0_linear_48_2620" x1="65.3888" y1="74.3645" x2="104.262" y2="123.325" gradientUnits="userSpaceOnUse">
<stop stop-color="#51459D" stop-opacity="0"/>
<stop offset="1" stop-color="#FF3A6E" stop-opacity="0.6"/>
</linearGradient>
<linearGradient id="paint1_linear_48_2620" x1="189.523" y1="96.2412" x2="186.627" y2="101.254" gradientUnits="userSpaceOnUse">
<stop stop-color="#0052CC"/>
<stop offset="0.92" stop-color="#2684FF"/>
</linearGradient>
<linearGradient id="paint2_linear_48_2620" x1="190.357" y1="163.68" x2="188.315" y2="165.721" gradientUnits="userSpaceOnUse">
<stop offset="0.18" stop-color="#0052CC"/>
<stop offset="1" stop-color="#2684FF"/>
</linearGradient>
<linearGradient id="paint3_linear_48_2620" x1="193.279" y1="166.185" x2="195.317" y2="168.216" gradientUnits="userSpaceOnUse">
<stop offset="0.18" stop-color="#0052CC"/>
<stop offset="1" stop-color="#2684FF"/>
</linearGradient>
</defs>
</svg>
