<svg width="383" height="243" viewBox="0 0 383 243" fill="none" xmlns="http://www.w3.org/2000/svg">
<g filter="url(#filter0_d_48_2586)">
<rect x="36.4893" y="17" width="313.288" height="173.427" rx="13.9861" fill="white"/>
</g>
<rect x="50.4756" y="40.0771" width="46.154" height="33.5666" rx="12.1365" fill="#FFAF75"/>
<path d="M114.481 49.3845V40.898H116.28V49.3845H114.481ZM121.963 42.7729C122.656 42.7729 123.213 42.9625 123.635 43.3418C124.057 43.7171 124.268 44.3208 124.268 45.1528V49.3845H122.497V45.594C122.497 45.1296 122.412 44.7794 122.242 44.5433C122.075 44.3073 121.812 44.1893 121.452 44.1893C120.91 44.1893 120.541 44.3731 120.343 44.7407C120.146 45.1083 120.047 45.6385 120.047 46.3312V49.3845H118.277V42.8948H119.629L119.867 43.7249H119.966C120.105 43.5004 120.278 43.3185 120.483 43.1792C120.692 43.0399 120.922 42.9374 121.174 42.8716C121.429 42.8058 121.692 42.7729 121.963 42.7729ZM128.726 49.5006C128.083 49.5006 127.536 49.3845 127.083 49.1523C126.63 48.9163 126.286 48.5525 126.05 48.061C125.814 47.5696 125.695 46.9407 125.695 46.1745C125.695 45.3812 125.829 44.7349 126.096 44.2357C126.367 43.7326 126.74 43.363 127.216 43.127C127.696 42.8909 128.252 42.7729 128.882 42.7729C129.331 42.7729 129.718 42.8174 130.043 42.9064C130.372 42.9915 130.659 43.0941 130.902 43.2141L130.38 44.584C130.101 44.4718 129.842 44.3808 129.602 44.3112C129.362 44.2376 129.122 44.2009 128.882 44.2009C128.573 44.2009 128.315 44.2744 128.11 44.4214C127.905 44.5646 127.752 44.7813 127.652 45.0716C127.551 45.3618 127.501 45.7256 127.501 46.1629C127.501 46.5924 127.555 46.9485 127.663 47.231C127.772 47.5135 127.928 47.7244 128.133 47.8637C128.339 47.9991 128.588 48.0668 128.882 48.0668C129.25 48.0668 129.577 48.0185 129.863 47.9217C130.15 47.8211 130.428 47.6818 130.699 47.5038V49.0188C130.428 49.1891 130.144 49.311 129.846 49.3845C129.552 49.4619 129.178 49.5006 128.726 49.5006ZM138.106 46.128C138.106 46.6698 138.033 47.1497 137.885 47.5676C137.742 47.9856 137.531 48.3397 137.253 48.6299C136.978 48.9163 136.645 49.133 136.254 49.28C135.867 49.4271 135.43 49.5006 134.942 49.5006C134.486 49.5006 134.066 49.4271 133.683 49.28C133.304 49.133 132.973 48.9163 132.69 48.6299C132.412 48.3397 132.195 47.9856 132.04 47.5676C131.889 47.1497 131.814 46.6698 131.814 46.128C131.814 45.4083 131.941 44.7988 132.197 44.2995C132.452 43.8003 132.816 43.4211 133.288 43.1618C133.76 42.9025 134.323 42.7729 134.977 42.7729C135.585 42.7729 136.123 42.9025 136.591 43.1618C137.063 43.4211 137.433 43.8003 137.7 44.2995C137.971 44.7988 138.106 45.4083 138.106 46.128ZM133.619 46.128C133.619 46.5537 133.665 46.9117 133.758 47.2019C133.851 47.4922 133.996 47.7108 134.194 47.8579C134.391 48.0049 134.648 48.0784 134.966 48.0784C135.279 48.0784 135.533 48.0049 135.726 47.8579C135.923 47.7108 136.067 47.4922 136.156 47.2019C136.249 46.9117 136.295 46.5537 136.295 46.128C136.295 45.6985 136.249 45.3425 136.156 45.06C136.067 44.7736 135.923 44.5588 135.726 44.4156C135.529 44.2725 135.271 44.2009 134.954 44.2009C134.486 44.2009 134.145 44.3615 133.932 44.6827C133.723 45.0039 133.619 45.4857 133.619 46.128ZM147.191 42.7729C147.926 42.7729 148.481 42.9625 148.856 43.3418C149.236 43.7171 149.425 44.3208 149.425 45.1528V49.3845H147.649V45.594C147.649 45.1296 147.57 44.7794 147.411 44.5433C147.252 44.3073 147.007 44.1893 146.674 44.1893C146.206 44.1893 145.873 44.3576 145.675 44.6943C145.478 45.0271 145.379 45.505 145.379 46.128V49.3845H143.609V45.594C143.609 45.2844 143.574 45.0251 143.504 44.8162C143.435 44.6072 143.328 44.4505 143.185 44.346C143.042 44.2415 142.858 44.1893 142.634 44.1893C142.305 44.1893 142.046 44.2725 141.856 44.4389C141.67 44.6014 141.537 44.8433 141.455 45.1645C141.378 45.4818 141.339 45.8707 141.339 46.3312V49.3845H139.569V42.8948H140.921L141.159 43.7249H141.258C141.39 43.5004 141.554 43.3185 141.751 43.1792C141.953 43.0399 142.173 42.9374 142.413 42.8716C142.653 42.8058 142.897 42.7729 143.145 42.7729C143.621 42.7729 144.023 42.8503 144.352 43.0051C144.685 43.1599 144.94 43.3998 145.118 43.7249H145.275C145.468 43.3921 145.741 43.1502 146.093 42.9993C146.449 42.8484 146.815 42.7729 147.191 42.7729ZM153.924 42.7729C154.524 42.7729 155.04 42.889 155.474 43.1212C155.907 43.3495 156.242 43.6823 156.478 44.1196C156.714 44.5569 156.832 45.0909 156.832 45.7217V46.5808H152.647C152.666 47.08 152.815 47.4728 153.094 47.7592C153.376 48.0417 153.767 48.1829 154.267 48.1829C154.681 48.1829 155.06 48.1404 155.404 48.0552C155.749 47.9701 156.103 47.8424 156.467 47.6721V49.042C156.145 49.2007 155.809 49.3168 155.456 49.3903C155.108 49.4639 154.684 49.5006 154.185 49.5006C153.535 49.5006 152.959 49.3807 152.455 49.1407C151.956 48.9008 151.563 48.5351 151.277 48.0436C150.995 47.5522 150.853 46.933 150.853 46.1861C150.853 45.4276 150.981 44.7968 151.236 44.2937C151.496 43.7868 151.856 43.4076 152.316 43.156C152.777 42.9006 153.313 42.7729 153.924 42.7729ZM153.936 44.0325C153.591 44.0325 153.305 44.1428 153.077 44.3634C152.852 44.584 152.722 44.9303 152.688 45.4025H155.172C155.168 45.1393 155.12 44.9052 155.027 44.7001C154.938 44.495 154.802 44.3324 154.621 44.2125C154.443 44.0925 154.214 44.0325 153.936 44.0325Z" fill="#808191"/>
<path d="M119.005 73.5505V71.3265C118.112 71.3121 117.288 71.2329 116.533 71.089C115.784 70.9378 115.136 70.7435 114.589 70.506V68.2064C115.144 68.4656 115.827 68.6995 116.641 68.9082C117.454 69.1169 118.242 69.2357 119.005 69.2645V65.2159C117.961 64.8633 117.112 64.4962 116.457 64.1148C115.809 63.7333 115.334 63.2907 115.032 62.7868C114.73 62.2758 114.579 61.6641 114.579 60.9515C114.579 60.2174 114.762 59.5876 115.129 59.0622C115.503 58.5296 116.022 58.1086 116.684 57.7991C117.353 57.4896 118.127 57.3061 119.005 57.2485V55.4887H120.408V57.2161C121.207 57.2377 121.945 57.3277 122.622 57.486C123.305 57.6371 123.957 57.8495 124.576 58.123L123.788 60.131C123.248 59.9151 122.686 59.7388 122.103 59.602C121.52 59.4653 120.955 59.3717 120.408 59.3213V63.2727C121.286 63.5606 122.067 63.87 122.751 64.2011C123.442 64.5322 123.982 64.9496 124.371 65.4535C124.766 65.9501 124.964 66.6014 124.964 67.4075C124.964 68.4656 124.576 69.34 123.798 70.031C123.021 70.7147 121.891 71.125 120.408 71.2617V73.5505H119.005ZM120.408 69.1781C121.099 69.0917 121.614 68.9118 121.952 68.6383C122.291 68.3576 122.46 67.9941 122.46 67.5479C122.46 67.2456 122.388 66.9901 122.244 66.7814C122.107 66.5726 121.887 66.3855 121.585 66.22C121.29 66.0544 120.898 65.8925 120.408 65.7342V69.1781ZM119.005 62.7437V59.3645C118.587 59.4077 118.235 59.4941 117.947 59.6236C117.659 59.7532 117.443 59.9223 117.299 60.131C117.155 60.3398 117.083 60.5881 117.083 60.876C117.083 61.1926 117.148 61.4625 117.278 61.6857C117.407 61.9088 117.612 62.1031 117.893 62.2686C118.181 62.4342 118.552 62.5925 119.005 62.7437ZM134.519 72.2657H131.971V62.1067C131.971 61.7684 131.975 61.4301 131.982 61.0919C131.989 60.7536 131.996 60.4225 132.003 60.0986C132.018 59.7748 132.036 59.4653 132.057 59.1702C131.906 59.3357 131.719 59.5157 131.496 59.71C131.28 59.9043 131.05 60.1058 130.805 60.3146L128.991 61.7612L127.717 60.1526L132.403 56.482H134.519V72.2657ZM149.795 60.0878C149.795 60.8004 149.651 61.4194 149.363 61.9448C149.075 62.4702 148.68 62.902 148.176 63.2403C147.679 63.5714 147.103 63.8089 146.448 63.9528V64.0284C147.708 64.1867 148.658 64.5826 149.299 65.2159C149.946 65.8493 150.27 66.6878 150.27 67.7314C150.27 68.6455 150.051 69.4624 149.612 70.1821C149.173 70.8947 148.5 71.456 147.593 71.8663C146.686 72.2765 145.52 72.4817 144.095 72.4817C143.238 72.4817 142.443 72.4133 141.709 72.2765C140.982 72.1398 140.291 71.9203 139.636 71.618V69.3616C140.305 69.6927 141.018 69.9482 141.774 70.1281C142.529 70.3081 143.246 70.398 143.922 70.398C145.239 70.398 146.179 70.1533 146.74 69.6639C147.301 69.1673 147.582 68.4835 147.582 67.6127C147.582 67.0513 147.434 66.5906 147.139 66.2308C146.851 65.8709 146.402 65.601 145.79 65.4211C145.185 65.2411 144.404 65.1512 143.447 65.1512H142.054V63.1107H143.458C144.372 63.1107 145.106 63.0028 145.66 62.7868C146.214 62.5637 146.614 62.2578 146.859 61.8692C147.111 61.4805 147.237 61.0271 147.237 60.5089C147.237 59.8323 147.017 59.3069 146.578 58.9327C146.139 58.5512 145.488 58.3605 144.624 58.3605C144.091 58.3605 143.605 58.4217 143.166 58.544C142.735 58.6664 142.335 58.8211 141.968 59.0082C141.601 59.1954 141.252 59.3969 140.921 59.6128L139.701 57.8531C140.298 57.4068 141.011 57.029 141.839 56.7195C142.666 56.41 143.631 56.2553 144.732 56.2553C146.351 56.2553 147.6 56.6043 148.478 57.3025C149.356 57.9934 149.795 58.9219 149.795 60.0878ZM163.053 64.3631C163.053 65.637 162.952 66.7778 162.75 67.7854C162.556 68.7858 162.247 69.6351 161.822 70.3333C161.397 71.0314 160.843 71.564 160.159 71.9311C159.476 72.2981 158.648 72.4817 157.676 72.4817C156.46 72.4817 155.456 72.1614 154.664 71.5208C153.872 70.8731 153.286 69.9446 152.904 68.7355C152.523 67.5191 152.332 66.0616 152.332 64.3631C152.332 62.6645 152.505 61.2106 152.85 60.0015C153.203 58.7851 153.772 57.8531 154.556 57.2053C155.341 56.5575 156.381 56.2337 157.676 56.2337C158.9 56.2337 159.907 56.5575 160.699 57.2053C161.498 57.8459 162.088 58.7743 162.47 59.9907C162.858 61.1998 163.053 62.6573 163.053 64.3631ZM154.891 64.3631C154.891 65.6946 154.977 66.8066 155.15 67.699C155.33 68.5915 155.625 69.2609 156.035 69.7071C156.446 70.1461 156.993 70.3656 157.676 70.3656C158.36 70.3656 158.907 70.1461 159.317 69.7071C159.727 69.2681 160.023 68.6023 160.203 67.7098C160.39 66.8174 160.483 65.7018 160.483 64.3631C160.483 63.0388 160.393 61.9304 160.213 61.0379C160.033 60.1454 159.738 59.4761 159.328 59.0298C158.918 58.5764 158.367 58.3497 157.676 58.3497C156.985 58.3497 156.435 58.5764 156.024 59.0298C155.621 59.4761 155.33 60.1454 155.15 61.0379C154.977 61.9304 154.891 63.0388 154.891 64.3631ZM168.397 69.6963L168.548 69.9446C168.418 70.4628 168.253 71.0206 168.051 71.618C167.85 72.2154 167.63 72.8127 167.393 73.4101C167.155 74.0147 166.914 74.5833 166.669 75.1159H164.812C164.964 74.5329 165.108 73.9211 165.244 73.2806C165.388 72.6472 165.518 72.021 165.633 71.4021C165.755 70.7759 165.852 70.2073 165.924 69.6963H168.397ZM176.364 56.2661C177.278 56.2661 178.102 56.41 178.836 56.6979C179.571 56.9786 180.154 57.3996 180.585 57.961C181.017 58.5224 181.233 59.217 181.233 60.0447C181.233 60.6852 181.1 61.243 180.834 61.718C180.575 62.1931 180.222 62.6105 179.776 62.9704C179.329 63.323 178.829 63.6361 178.275 63.9096C178.894 64.2119 179.463 64.561 179.981 64.9568C180.506 65.3455 180.927 65.8025 181.244 66.3279C181.568 66.8533 181.73 67.4687 181.73 68.1741C181.73 69.0593 181.503 69.8258 181.05 70.4736C180.603 71.1142 179.981 71.6108 179.182 71.9635C178.383 72.3089 177.451 72.4817 176.386 72.4817C175.241 72.4817 174.266 72.3125 173.46 71.9743C172.654 71.636 172.042 71.1538 171.625 70.5276C171.207 69.8942 170.999 69.1385 170.999 68.2604C170.999 67.5335 171.142 66.9037 171.43 66.3711C171.718 65.8385 172.103 65.3779 172.586 64.9892C173.075 64.6006 173.611 64.2731 174.194 64.0068C173.698 63.7117 173.244 63.3806 172.834 63.0136C172.424 62.6393 172.096 62.2111 171.851 61.7288C171.614 61.2394 171.495 60.6744 171.495 60.0339C171.495 59.2134 171.715 58.526 172.154 57.9718C172.593 57.4104 173.179 56.9858 173.913 56.6979C174.655 56.41 175.472 56.2661 176.364 56.2661ZM173.417 68.1633C173.417 68.8542 173.662 69.4228 174.151 69.869C174.64 70.3153 175.371 70.5384 176.343 70.5384C177.307 70.5384 178.041 70.3189 178.545 69.8798C179.049 69.4408 179.301 68.8614 179.301 68.1417C179.301 67.681 179.171 67.2744 178.912 66.9217C178.66 66.5691 178.318 66.256 177.886 65.9825C177.462 65.7018 176.99 65.4427 176.472 65.2052L176.127 65.0648C175.565 65.3023 175.083 65.5722 174.68 65.8745C174.277 66.1696 173.964 66.5043 173.741 66.8785C173.525 67.2528 173.417 67.681 173.417 68.1633ZM176.343 58.2201C175.644 58.2201 175.069 58.3929 174.615 58.7383C174.169 59.0766 173.946 59.566 173.946 60.2066C173.946 60.66 174.054 61.0487 174.27 61.3726C174.493 61.6964 174.792 61.9771 175.166 62.2147C175.54 62.445 175.954 62.6609 176.407 62.8624C176.846 62.6681 177.242 62.4558 177.595 62.2255C177.955 61.9879 178.239 61.7072 178.448 61.3834C178.664 61.0523 178.772 60.6564 178.772 60.1958C178.772 59.5624 178.545 59.0766 178.092 58.7383C177.645 58.3929 177.062 58.2201 176.343 58.2201ZM193.778 60.0878C193.778 60.8004 193.634 61.4194 193.346 61.9448C193.058 62.4702 192.663 62.902 192.159 63.2403C191.662 63.5714 191.086 63.8089 190.431 63.9528V64.0284C191.691 64.1867 192.641 64.5826 193.282 65.2159C193.929 65.8493 194.253 66.6878 194.253 67.7314C194.253 68.6455 194.034 69.4624 193.595 70.1821C193.156 70.8947 192.483 71.456 191.576 71.8663C190.669 72.2765 189.503 72.4817 188.078 72.4817C187.221 72.4817 186.426 72.4133 185.692 72.2765C184.965 72.1398 184.274 71.9203 183.619 71.618V69.3616C184.288 69.6927 185.001 69.9482 185.757 70.1281C186.512 70.3081 187.229 70.398 187.905 70.398C189.222 70.398 190.161 70.1533 190.723 69.6639C191.284 69.1673 191.565 68.4835 191.565 67.6127C191.565 67.0513 191.417 66.5906 191.122 66.2308C190.834 65.8709 190.385 65.601 189.773 65.4211C189.168 65.2411 188.387 65.1512 187.43 65.1512H186.037V63.1107H187.441C188.355 63.1107 189.089 63.0028 189.643 62.7868C190.197 62.5637 190.597 62.2578 190.842 61.8692C191.094 61.4805 191.219 61.0271 191.219 60.5089C191.219 59.8323 191 59.3069 190.561 58.9327C190.122 58.5512 189.471 58.3605 188.607 58.3605C188.074 58.3605 187.588 58.4217 187.149 58.544C186.718 58.6664 186.318 58.8211 185.951 59.0082C185.584 59.1954 185.235 59.3969 184.904 59.6128L183.684 57.8531C184.281 57.4068 184.994 57.029 185.821 56.7195C186.649 56.41 187.614 56.2553 188.715 56.2553C190.334 56.2553 191.583 56.6043 192.461 57.3025C193.339 57.9934 193.778 58.9219 193.778 60.0878ZM207.036 72.2657H196.348V70.3549L200.439 66.2092C201.231 65.4031 201.882 64.7085 202.393 64.1256C202.904 63.5354 203.282 62.9776 203.527 62.4522C203.779 61.9268 203.905 61.3546 203.905 60.7356C203.905 59.9727 203.685 59.3969 203.246 59.0082C202.807 58.6124 202.228 58.4145 201.508 58.4145C200.824 58.4145 200.191 58.5512 199.608 58.8247C199.032 59.091 198.435 59.4725 197.816 59.9691L196.423 58.2957C196.862 57.9214 197.33 57.5796 197.827 57.2701C198.33 56.9606 198.892 56.7159 199.511 56.536C200.13 56.3488 200.835 56.2553 201.627 56.2553C202.627 56.2553 203.491 56.4352 204.218 56.7951C204.945 57.1477 205.503 57.6407 205.891 58.2741C206.287 58.9075 206.485 59.6452 206.485 60.4873C206.485 61.3366 206.316 62.1211 205.978 62.8408C205.639 63.5606 205.157 64.2731 204.531 64.9784C203.905 65.6766 203.16 66.4359 202.296 67.2564L199.565 69.923V70.0418H207.036V72.2657Z" fill="#333333"/>
<path d="M260.815 68.1681H262.388V68.868H260.815V70.4564H260.115V68.868H258.546V68.1681H260.115V66.5639H260.815V68.1681ZM267.023 68.058C267.023 68.3988 266.998 68.733 266.949 69.0606C266.902 69.3883 266.818 69.695 266.697 69.9807C266.579 70.2664 266.415 70.5193 266.206 70.7395C265.999 70.9571 265.736 71.1275 265.419 71.2507C265.102 71.3738 264.719 71.4354 264.271 71.4354C264.158 71.4354 264.027 71.4289 263.878 71.4158C263.731 71.4053 263.611 71.3896 263.516 71.3686V70.598C263.616 70.6268 263.727 70.6504 263.85 70.6687C263.976 70.6845 264.101 70.6923 264.224 70.6923C264.709 70.6923 265.086 70.6019 265.356 70.421C265.629 70.2402 265.822 69.9912 265.934 69.674C266.05 69.3568 266.115 68.9964 266.131 68.5927H266.084C266.008 68.7186 265.912 68.8339 265.797 68.9387C265.681 69.041 265.538 69.1235 265.368 69.1864C265.198 69.2467 264.991 69.2769 264.747 69.2769C264.417 69.2769 264.128 69.2074 263.882 69.0685C263.638 68.9296 263.448 68.7277 263.312 68.463C263.178 68.1956 263.111 67.8745 263.111 67.4997C263.111 67.0934 263.189 66.7435 263.343 66.4499C263.498 66.1563 263.717 65.9309 264 65.7736C264.283 65.6137 264.616 65.5338 264.999 65.5338C265.287 65.5338 265.553 65.5862 265.797 65.6911C266.043 65.7933 266.258 65.9506 266.441 66.1629C266.625 66.3726 266.768 66.636 266.87 66.9532C266.972 67.2677 267.023 67.636 267.023 68.058ZM265.01 66.2966C264.719 66.2966 264.482 66.3949 264.299 66.5914C264.115 66.7854 264.023 67.0842 264.023 67.4879C264.023 67.8156 264.102 68.0751 264.259 68.2664C264.417 68.4578 264.658 68.5534 264.983 68.5534C265.208 68.5534 265.402 68.5076 265.565 68.4158C265.73 68.3214 265.857 68.2022 265.946 68.058C266.038 67.9138 266.084 67.7671 266.084 67.6177C266.084 67.463 266.061 67.3083 266.017 67.1537C265.975 66.999 265.909 66.8575 265.82 66.7291C265.731 66.6006 265.618 66.4971 265.482 66.4184C265.348 66.3372 265.191 66.2966 265.01 66.2966ZM271.639 68.4787C271.639 68.9427 271.603 69.3581 271.529 69.7251C271.458 70.0895 271.346 70.3988 271.191 70.653C271.036 70.9073 270.835 71.1012 270.586 71.2349C270.337 71.3686 270.035 71.4354 269.681 71.4354C269.238 71.4354 268.873 71.3188 268.584 71.0855C268.296 70.8496 268.082 70.5115 267.943 70.0711C267.805 69.6281 267.735 69.0973 267.735 68.4787C267.735 67.8601 267.798 67.3306 267.924 66.8903C268.052 66.4473 268.259 66.1078 268.545 65.8719C268.831 65.636 269.209 65.5181 269.681 65.5181C270.127 65.5181 270.494 65.636 270.782 65.8719C271.073 66.1052 271.288 66.4433 271.427 66.8863C271.569 67.3267 271.639 67.8575 271.639 68.4787ZM268.667 68.4787C268.667 68.9636 268.698 69.3686 268.761 69.6937C268.827 70.0187 268.934 70.2625 269.084 70.425C269.233 70.5849 269.432 70.6648 269.681 70.6648C269.93 70.6648 270.13 70.5849 270.279 70.425C270.428 70.2651 270.536 70.0226 270.601 69.6976C270.67 69.3726 270.704 68.9663 270.704 68.4787C270.704 67.9964 270.671 67.5928 270.605 67.2677C270.54 66.9427 270.432 66.6989 270.283 66.5364C270.133 66.3713 269.933 66.2887 269.681 66.2887C269.43 66.2887 269.229 66.3713 269.08 66.5364C268.933 66.6989 268.827 66.9427 268.761 67.2677C268.698 67.5928 268.667 67.9964 268.667 68.4787ZM273.582 65.5259C274.004 65.5259 274.323 65.6832 274.541 65.9977C274.759 66.3097 274.867 66.7513 274.867 67.3228C274.867 67.8916 274.763 68.3359 274.553 68.6557C274.346 68.9754 274.022 69.1353 273.582 69.1353C273.17 69.1353 272.857 68.9754 272.642 68.6557C272.427 68.3359 272.32 67.8916 272.32 67.3228C272.32 66.7513 272.42 66.3097 272.622 65.9977C272.827 65.6832 273.147 65.5259 273.582 65.5259ZM273.586 66.1707C273.415 66.1707 273.289 66.2664 273.208 66.4578C273.13 66.6491 273.09 66.9388 273.09 67.3267C273.09 67.712 273.13 68.003 273.208 68.1996C273.289 68.3935 273.415 68.4905 273.586 68.4905C273.759 68.4905 273.887 68.3935 273.971 68.1996C274.057 68.0056 274.101 67.7146 274.101 67.3267C274.101 66.9414 274.059 66.653 273.975 66.4617C273.891 66.2677 273.761 66.1707 273.586 66.1707ZM277.443 65.6085L274.254 71.3568H273.495L276.684 65.6085H277.443ZM277.337 67.826C277.759 67.826 278.078 67.9833 278.296 68.2979C278.516 68.6098 278.626 69.0515 278.626 69.6229C278.626 70.1891 278.521 70.632 278.312 70.9518C278.105 71.2716 277.78 71.4315 277.337 71.4315C276.925 71.4315 276.612 71.2716 276.397 70.9518C276.182 70.632 276.074 70.1891 276.074 69.6229C276.074 69.0515 276.175 68.6098 276.377 68.2979C276.582 67.9833 276.901 67.826 277.337 67.826ZM277.34 68.4709C277.17 68.4709 277.044 68.5665 276.963 68.7579C276.884 68.9492 276.845 69.2389 276.845 69.6268C276.845 70.0121 276.884 70.3031 276.963 70.4997C277.044 70.6936 277.17 70.7906 277.34 70.7906C277.516 70.7906 277.646 70.695 277.73 70.5036C277.814 70.3096 277.856 70.0174 277.856 69.6268C277.856 69.2415 277.814 68.9532 277.73 68.7618C277.646 68.5678 277.516 68.4709 277.34 68.4709Z" fill="#82D616"/>
<path d="M247.86 71.2367L247.86 62.7085" stroke="#82D616" stroke-width="1.21832" stroke-linecap="round" stroke-linejoin="round"/>
<path d="M243.635 66.0292L247.86 62.3026L252.086 66.0292" stroke="#82D616" stroke-width="1.21832" stroke-linecap="round" stroke-linejoin="round"/>
<path d="M62.7436 99.7775H61.9287L60.5453 100.682V101.483L61.8718 100.617H61.9043V105.322H62.7436V99.7775ZM66.1738 105.414C67.4544 105.414 68.2043 104.369 68.2043 102.553C68.2043 100.749 67.4435 99.7017 66.1738 99.7017C64.9013 99.7017 64.1433 100.747 64.1406 102.553C64.1406 104.366 64.8905 105.411 66.1738 105.414ZM66.1738 104.691C65.4239 104.691 64.9717 103.939 64.9717 102.553C64.9744 101.172 65.4266 100.411 66.1738 100.411C66.9183 100.411 67.3731 101.172 67.3731 102.553C67.3731 103.939 66.921 104.691 66.1738 104.691ZM71.095 105.414C72.3756 105.414 73.1255 104.369 73.1255 102.553C73.1255 100.749 72.3648 99.7017 71.095 99.7017C69.8226 99.7017 69.0645 100.747 69.0618 102.553C69.0618 104.366 69.8118 105.411 71.095 105.414ZM71.095 104.691C70.3451 104.691 69.893 103.939 69.893 102.553C69.8957 101.172 70.3478 100.411 71.095 100.411C71.8396 100.411 72.2944 101.172 72.2944 102.553C72.2944 103.939 71.8423 104.691 71.095 104.691Z" fill="#808191"/>
<path d="M66.2672 128.475C67.3826 128.475 68.1786 127.687 68.1759 126.607C68.1786 125.535 67.4313 124.755 66.4215 124.755C66.01 124.755 65.6283 124.912 65.4117 125.123H65.3792L65.5552 123.572H67.9078V122.854H64.8594L64.548 125.648L65.3142 125.762C65.5227 125.575 65.8963 125.448 66.232 125.448C66.8899 125.453 67.3664 125.946 67.3664 126.623C67.3664 127.289 66.9034 127.771 66.2672 127.771C65.7311 127.771 65.3061 127.43 65.2628 126.953H64.4506C64.4831 127.836 65.2492 128.475 66.2672 128.475ZM71.095 128.491C72.3756 128.491 73.1255 127.446 73.1255 125.629C73.1255 123.826 72.3648 122.779 71.095 122.779C69.8226 122.779 69.0645 123.824 69.0618 125.629C69.0618 127.443 69.8118 128.488 71.095 128.491ZM71.095 127.768C70.3451 127.768 69.893 127.015 69.893 125.629C69.8957 124.249 70.3478 123.488 71.095 123.488C71.8396 123.488 72.2944 124.249 72.2944 125.629C72.2944 127.015 71.8423 127.768 71.095 127.768Z" fill="#808191"/>
<path d="M71.095 152.267C72.3756 152.267 73.1255 151.222 73.1255 149.406C73.1255 147.602 72.3648 146.555 71.095 146.555C69.8226 146.555 69.0645 147.6 69.0618 149.406C69.0618 151.219 69.8118 152.265 71.095 152.267ZM71.095 151.544C70.3451 151.544 69.893 150.792 69.893 149.406C69.8957 148.025 70.3478 147.264 71.095 147.264C71.8396 147.264 72.2944 148.025 72.2944 149.406C72.2944 150.792 71.8423 151.544 71.095 151.544Z" fill="#808191"/>
<path d="M94.3681 172.854L94.8772 171.386H97.0436L97.55 172.854H98.4383L96.4424 167.308H95.4757L93.4798 172.854H94.3681ZM95.1209 170.682L95.9387 168.315H95.9821L96.7999 170.682H95.1209ZM99.1742 174.413H99.9839V172.206H100.033C100.179 172.472 100.477 172.935 101.235 172.935C102.242 172.935 102.974 172.128 102.974 170.782C102.974 169.433 102.232 168.64 101.227 168.64C100.455 168.64 100.176 169.111 100.033 169.368H99.9649V168.694H99.1742V174.413ZM99.9677 170.774C99.9677 169.905 100.347 169.328 101.054 169.328C101.787 169.328 102.156 169.948 102.156 170.774C102.156 171.608 101.777 172.244 101.054 172.244C100.358 172.244 99.9677 171.649 99.9677 170.774ZM103.881 172.854H104.69V170.313C104.69 169.769 105.11 169.376 105.684 169.376C105.852 169.376 106.042 169.406 106.107 169.425V168.651C106.026 168.64 105.866 168.632 105.763 168.632C105.275 168.632 104.858 168.908 104.707 169.355H104.663V168.694H103.881V172.854Z" fill="#808191"/>
<path d="M143.444 167.308V171.24C143.441 171.879 143.143 172.22 142.613 172.22C142.123 172.22 141.781 171.927 141.779 171.467H140.947C140.947 172.404 141.651 172.929 142.591 172.929C143.609 172.929 144.275 172.307 144.278 171.24V167.308H143.444ZM148.066 171.129C148.069 171.835 147.543 172.171 147.088 172.171C146.587 172.171 146.241 171.808 146.241 171.242V168.694H145.431V171.34C145.431 172.372 145.997 172.908 146.796 172.908C147.422 172.908 147.847 172.577 148.039 172.133H148.082V172.854H148.878V168.694H148.066V171.129ZM150.776 170.384C150.776 169.72 151.182 169.341 151.746 169.341C152.295 169.341 152.628 169.701 152.628 170.305V172.854H153.438V170.208C153.438 169.179 152.872 168.64 152.022 168.64C151.396 168.64 150.987 168.93 150.795 169.371H150.744V168.694H149.966V172.854H150.776V170.384Z" fill="#808191"/>
<path d="M188.319 172.854L188.828 171.386H190.995L191.501 172.854H192.389L190.393 167.308H189.427L187.431 172.854H188.319ZM189.072 170.682L189.89 168.315H189.933L190.751 170.682H189.072ZM195.76 171.129C195.763 171.835 195.238 172.171 194.783 172.171C194.282 172.171 193.935 171.808 193.935 171.242V168.694H193.125V171.34C193.125 172.372 193.691 172.908 194.49 172.908C195.116 172.908 195.541 172.577 195.733 172.133H195.776V172.854H196.573V168.694H195.76V171.129ZM199.405 174.5C200.463 174.5 201.281 174.015 201.281 172.946V168.694H200.488V169.368H200.428C200.285 169.111 199.998 168.64 199.223 168.64C198.218 168.64 197.479 169.433 197.479 170.758C197.479 172.085 198.235 172.791 199.218 172.791C199.981 172.791 200.277 172.361 200.423 172.095H200.474V172.913C200.474 173.566 200.027 173.847 199.413 173.847C198.738 173.847 198.476 173.509 198.332 173.271L197.636 173.558C197.856 174.067 198.411 174.5 199.405 174.5ZM199.396 172.12C198.673 172.12 198.297 171.565 198.297 170.747C198.297 169.948 198.665 169.328 199.396 169.328C200.103 169.328 200.482 169.905 200.482 170.747C200.482 171.605 200.095 172.12 199.396 172.12Z" fill="#808191"/>
<path d="M240.65 170.081C240.65 168.307 239.588 167.232 238.153 167.232C236.712 167.232 235.653 168.307 235.653 170.081C235.653 171.852 236.712 172.929 238.153 172.929C239.588 172.929 240.65 171.854 240.65 170.081ZM239.821 170.081C239.821 171.432 239.106 172.166 238.153 172.166C237.197 172.166 236.485 171.432 236.485 170.081C236.485 168.729 237.197 167.995 238.153 167.995C239.106 167.995 239.821 168.729 239.821 170.081ZM243.38 172.938C244.363 172.938 244.999 172.347 245.089 171.538H244.301C244.198 171.987 243.849 172.252 243.385 172.252C242.7 172.252 242.259 171.681 242.259 170.774C242.259 169.883 242.708 169.322 243.385 169.322C243.9 169.322 244.214 169.647 244.301 170.037H245.089C245.002 169.198 244.317 168.64 243.372 168.64C242.199 168.64 241.441 169.523 241.441 170.793C241.441 172.047 242.172 172.938 243.38 172.938ZM247.896 168.694H247.043V167.698H246.234V168.694H245.624V169.344H246.234V171.8C246.231 172.556 246.808 172.921 247.447 172.908C247.704 172.905 247.877 172.856 247.972 172.821L247.826 172.152C247.772 172.163 247.672 172.187 247.542 172.187C247.279 172.187 247.043 172.101 247.043 171.632V169.344H247.896V168.694Z" fill="#808191"/>
<path d="M284.54 172.854C286.23 172.854 287.207 171.806 287.207 170.072C287.207 168.347 286.23 167.308 284.597 167.308H282.744V172.854H284.54ZM283.581 172.122V168.039H284.545C285.758 168.039 286.384 168.764 286.384 170.072C286.384 171.386 285.758 172.122 284.494 172.122H283.581ZM289.975 172.938C290.883 172.938 291.524 172.491 291.709 171.814L290.942 171.676C290.796 172.068 290.444 172.269 289.984 172.269C289.29 172.269 288.825 171.819 288.803 171.018H291.76V170.731C291.76 169.228 290.861 168.64 289.919 168.64C288.76 168.64 287.996 169.523 287.996 170.801C287.996 172.093 288.749 172.938 289.975 172.938ZM288.806 170.411C288.838 169.821 289.266 169.309 289.924 169.309C290.552 169.309 290.964 169.775 290.967 170.411H288.806ZM294.411 172.938C295.394 172.938 296.03 172.347 296.119 171.538H295.331C295.228 171.987 294.879 172.252 294.416 172.252C293.731 172.252 293.289 171.681 293.289 170.774C293.289 169.883 293.739 169.322 294.416 169.322C294.931 169.322 295.245 169.647 295.331 170.037H296.119C296.033 169.198 295.348 168.64 294.402 168.64C293.23 168.64 292.472 169.523 292.472 170.793C292.472 172.047 293.203 172.938 294.411 172.938Z" fill="#808191"/>
<path d="M91.7344 153.364L91.7344 99.5179" stroke="#CECECE" stroke-width="0.669345" stroke-linecap="round" stroke-linejoin="round" stroke-dasharray="2.68 2.68"/>
<path d="M137.889 153.364L137.889 99.5179" stroke="#CECECE" stroke-width="0.669345" stroke-linecap="round" stroke-linejoin="round" stroke-dasharray="2.68 2.68"/>
<path d="M184.742 153.364L184.742 99.5179" stroke="#CECECE" stroke-width="0.669345" stroke-linecap="round" stroke-linejoin="round" stroke-dasharray="2.68 2.68"/>
<path d="M230.896 153.364L230.896 99.5179" stroke="#CECECE" stroke-width="0.669345" stroke-linecap="round" stroke-linejoin="round" stroke-dasharray="2.68 2.68"/>
<path d="M277.05 153.364L277.05 99.5179" stroke="#CECECE" stroke-width="0.669345" stroke-linecap="round" stroke-linejoin="round" stroke-dasharray="2.68 2.68"/>
<path d="M321.231 154.175L281.741 143.454C280.948 143.239 280.124 143.164 279.305 143.233L236.655 146.819C234.715 146.982 232.795 146.335 231.349 145.033L202.885 119.405C200.793 117.521 197.781 117.063 195.224 118.24L161.351 133.828C159.846 134.52 158.145 134.66 156.546 134.223L129.774 126.902C128.166 126.462 126.454 126.606 124.943 127.309L90.9356 143.129" stroke="#9F3DBE" stroke-width="0.5872" stroke-linecap="round" stroke-linejoin="round"/>
<path d="M281.742 143.455L321.231 154.176H90.9359V143.129L124.943 127.31C126.455 126.607 128.166 126.463 129.774 126.902L156.547 134.224C158.145 134.661 159.846 134.521 161.351 133.828L195.224 118.241C197.781 117.064 200.793 117.522 202.885 119.405L231.35 145.034C232.796 146.336 234.716 146.982 236.655 146.819L279.305 143.234C280.124 143.165 280.949 143.24 281.742 143.455Z" fill="url(#paint0_linear_48_2586)"/>
<path d="M274.851 143.531C274.851 143.988 275.091 144.422 275.519 144.751C275.947 145.081 276.551 145.293 277.23 145.293C277.909 145.293 278.513 145.081 278.941 144.751C279.369 144.422 279.609 143.988 279.609 143.531C279.609 143.073 279.369 142.639 278.941 142.31C278.513 141.981 277.909 141.769 277.23 141.769C276.551 141.769 275.947 141.981 275.519 142.31C275.091 142.639 274.851 143.073 274.851 143.531Z" fill="white" stroke="#9F3DBE" stroke-width="0.5872"/>
<path d="M228.467 144.23C228.467 144.688 228.708 145.122 229.136 145.451C229.564 145.78 230.168 145.992 230.847 145.992C231.526 145.992 232.13 145.78 232.558 145.451C232.985 145.122 233.226 144.688 233.226 144.23C233.226 143.773 232.985 143.339 232.558 143.01C232.13 142.681 231.526 142.469 230.847 142.469C230.168 142.469 229.564 142.681 229.136 143.01C228.708 143.339 228.467 143.773 228.467 144.23Z" fill="white" stroke="#9F3DBE" stroke-width="0.5872"/>
<path d="M182.085 122.552C182.085 123.01 182.326 123.444 182.753 123.773C183.181 124.102 183.785 124.314 184.464 124.314C185.143 124.314 185.747 124.102 186.175 123.773C186.603 123.444 186.844 123.01 186.844 122.552C186.844 122.095 186.603 121.661 186.175 121.332C185.747 121.002 185.143 120.791 184.464 120.791C183.785 120.791 183.181 121.002 182.753 121.332C182.326 121.661 182.085 122.095 182.085 122.552Z" fill="white" stroke="#9F3DBE" stroke-width="0.5872"/>
<path d="M135.703 129.545C135.703 130.003 135.943 130.437 136.371 130.766C136.799 131.095 137.403 131.307 138.082 131.307C138.761 131.307 139.365 131.095 139.793 130.766C140.221 130.437 140.461 130.003 140.461 129.545C140.461 129.088 140.221 128.654 139.793 128.325C139.365 127.996 138.761 127.784 138.082 127.784C137.403 127.784 136.799 127.996 136.371 128.325C135.943 128.654 135.703 129.088 135.703 129.545Z" fill="white" stroke="#9F3DBE" stroke-width="0.5872"/>
<path d="M89.32 142.432C89.32 142.889 89.5604 143.323 89.9882 143.652C90.4163 143.981 91.0203 144.193 91.6992 144.193C92.3782 144.193 92.9822 143.981 93.4102 143.652C93.838 143.323 94.0785 142.889 94.0785 142.432C94.0785 141.974 93.838 141.54 93.4102 141.211C92.9822 140.882 92.3782 140.67 91.6992 140.67C91.0203 140.67 90.4163 140.882 89.9882 141.211C89.5604 141.54 89.32 141.974 89.32 142.432Z" fill="white" stroke="#9F3DBE" stroke-width="0.5872"/>
<path d="M70.8984 63.0822C70.9466 63.1616 70.9568 63.2334 70.947 63.2958L72.329 63.5113C72.3922 63.1057 72.3041 62.7027 72.0941 62.3567L70.8984 63.0822ZM70.947 63.2958C70.9369 63.3608 70.9 63.4461 70.8078 63.534L71.7728 64.5463C72.0617 64.2709 72.2661 63.9145 72.329 63.5113L70.947 63.2958ZM70.8078 63.534C70.7141 63.6233 70.5728 63.7047 70.3913 63.7506L70.7343 65.1065C71.1219 65.0084 71.4854 64.8203 71.7728 64.5463L70.8078 63.534ZM70.3913 63.7506C70.2104 63.7963 70.0133 63.8005 69.8279 63.7618L69.5417 65.1308C69.9339 65.2128 70.3462 65.2046 70.7343 65.1065L70.3913 63.7506ZM69.8279 63.7618C69.642 63.7229 69.4921 63.6462 69.3889 63.5575L68.4772 64.6181C68.7782 64.8768 69.15 65.0489 69.5417 65.1308L69.8279 63.7618ZM69.3889 63.5575C69.2869 63.4698 69.2422 63.3817 69.2272 63.3144L67.8619 63.6179C67.9502 64.0151 68.1751 64.3584 68.4772 64.6181L69.3889 63.5575ZM69.2272 63.3144C69.2129 63.2503 69.2195 63.1804 69.2599 63.1041L68.0235 62.4503C67.8337 62.8092 67.7729 63.2175 67.8619 63.6179L69.2272 63.3144ZM69.2599 63.1041C69.3024 63.0236 69.3873 62.9295 69.5296 62.8516L68.8581 61.6247C68.5094 61.8156 68.2111 62.0955 68.0235 62.4503L69.2599 63.1041ZM78.8787 62.9582C79.0041 63.0424 79.0701 63.1356 79.0987 63.2102L80.4042 62.7085C80.2589 62.3304 79.9899 62.0199 79.659 61.7975L78.8787 62.9582ZM79.0987 63.2102C79.1258 63.2805 79.1263 63.3489 79.1014 63.4181L80.4177 63.8909C80.5563 63.505 80.5512 63.0908 80.4042 62.7085L79.0987 63.2102ZM79.1014 63.4181C79.075 63.4916 79.0124 63.5842 78.8904 63.6693L79.6906 64.8164C80.0176 64.5883 80.2806 64.2725 80.4177 63.8909L79.1014 63.4181ZM78.8904 63.6693C78.7679 63.7548 78.6016 63.8203 78.4085 63.8438L78.5775 65.2322C78.9767 65.1836 79.364 65.0442 79.6906 64.8164L78.8904 63.6693ZM78.4085 63.8438C78.2157 63.8673 78.0208 63.8458 77.8511 63.7863L77.3887 65.1063C77.7667 65.2387 78.1779 65.2808 78.5775 65.2322L78.4085 63.8438ZM77.8511 63.7863C77.6807 63.7266 77.5588 63.6374 77.4849 63.5488L76.411 64.4448C76.6667 64.7512 77.0112 64.974 77.3887 65.1063L77.8511 63.7863ZM77.4849 63.5488C77.4131 63.4627 77.3904 63.3837 77.3895 63.3218L75.991 63.3423C75.997 63.7534 76.1532 64.1358 76.411 64.4448L77.4849 63.5488ZM77.3895 63.3218C77.3886 63.2601 77.4088 63.1824 77.4764 63.0972L76.3805 62.2283C76.1301 62.544 75.985 62.9309 75.991 63.3423L77.3895 63.3218Z" fill="#CECECE"/>
<path d="M67.0466 59.395L66.3802 59.6072L67.0466 59.395ZM67.0466 55.4833L67.7129 55.6955L67.0466 55.4833ZM81.4445 55.4833L82.1109 55.2711L81.4445 55.4833ZM81.4445 59.395L82.1109 59.6072L81.4445 59.395ZM76.6905 62.7785L76.5715 62.0894H76.5715L76.6905 62.7785ZM71.8006 62.7785L71.9196 62.0894H71.9196L71.8006 62.7785ZM71.8006 52.0998L71.9196 52.7889L71.8006 52.0998ZM76.6905 52.0998L76.8096 51.4107V51.4107L76.6905 52.0998ZM71.3699 62.7041L71.2508 63.3932H71.2509L71.3699 62.7041ZM77.1212 62.7041L77.2402 63.3932H77.2402L77.1212 62.7041ZM77.1212 52.1742L77.0021 52.8633L77.1212 52.1742ZM71.3699 52.1742L71.2508 51.4851V51.4851L71.3699 52.1742ZM67.8587 53.1931L67.1785 53.3555L67.1785 53.3555L67.8587 53.1931ZM67.3079 53.8975C67.3976 54.2732 67.7748 54.505 68.1505 54.4153C68.5262 54.3256 68.758 53.9484 68.6683 53.5727L67.3079 53.8975ZM65.4757 50.5729C65.093 50.5205 64.7404 50.7883 64.688 51.1709C64.6356 51.5536 64.9034 51.9062 65.286 51.9586L65.4757 50.5729ZM71.489 52.8633L71.9196 52.7889L71.6815 51.4107L71.2508 51.4851L71.489 52.8633ZM76.5715 52.7889L77.0021 52.8633L77.2402 51.4851L76.8096 51.4107L76.5715 52.7889ZM77.0021 62.015L76.5715 62.0894L76.8096 63.4676L77.2402 63.3932L77.0021 62.015ZM71.9196 62.0894L71.489 62.015L71.2509 63.3932L71.6815 63.4676L71.9196 62.0894ZM67.7129 59.1829C67.348 58.0369 67.348 56.8414 67.7129 55.6955L66.3802 55.2711C65.9274 56.6931 65.9274 58.1852 66.3802 59.6072L67.7129 59.1829ZM80.7782 55.6955C81.1431 56.8414 81.1431 58.0369 80.7782 59.1829L82.1109 59.6072C82.5637 58.1852 82.5637 56.6931 82.1109 55.2711L80.7782 55.6955ZM76.5715 62.0894C75.0393 62.3542 73.4518 62.3542 71.9196 62.0894L71.6815 63.4676C73.3712 63.7596 75.1199 63.7596 76.8096 63.4676L76.5715 62.0894ZM71.9196 52.7889C73.4518 52.5241 75.0393 52.5241 76.5715 52.7889L76.8096 51.4107C75.1199 51.1187 73.3712 51.1187 71.6815 51.4107L71.9196 52.7889ZM71.489 62.015C69.5544 61.6808 68.1428 60.5328 67.7129 59.1829L66.3802 59.6072C67.0082 61.5795 68.9457 62.9949 71.2508 63.3932L71.489 62.015ZM77.2402 63.3932C79.5454 62.9949 81.4829 61.5795 82.1109 59.6072L80.7782 59.1829C80.3483 60.5328 78.9367 61.6808 77.0021 62.015L77.2402 63.3932ZM77.0021 52.8633C78.9367 53.1976 80.3483 54.3455 80.7782 55.6955L82.1109 55.2711C81.4829 53.2989 79.5454 51.8834 77.2402 51.4851L77.0021 52.8633ZM71.2508 51.4851C68.9457 51.8834 67.0082 53.2989 66.3802 55.2711L67.7129 55.6955C68.1428 54.3455 69.5544 53.1976 71.489 52.8633L71.2508 51.4851ZM67.4667 60.6078H81.0244V59.2092H67.4667V60.6078ZM67.1785 53.3555L67.3079 53.8975L68.6683 53.5727L68.5389 53.0307L67.1785 53.3555ZM65.286 51.9586C66.3433 52.1033 67.0284 52.7267 67.1785 53.3555L68.5389 53.0307C68.2175 51.6846 66.9273 50.7716 65.4757 50.5729L65.286 51.9586Z" fill="white"/>
<path d="M76.2944 54.0627L76.3316 54.0675C77.8846 54.2665 79.0228 55.2997 79.0228 56.5103" stroke="#CECECE" stroke-width="1.39861" stroke-linecap="round"/>
<defs>
<filter id="filter0_d_48_2586" x="0.392458" y="0.916025" width="381.82" height="241.959" filterUnits="userSpaceOnUse" color-interpolation-filters="sRGB">
<feFlood flood-opacity="0" result="BackgroundImageFix"/>
<feColorMatrix in="SourceAlpha" type="matrix" values="0 0 0 0 0 0 0 0 0 0 0 0 0 0 0 0 0 0 127 0" result="hardAlpha"/>
<feOffset dx="-1.83094" dy="18.1819"/>
<feGaussianBlur stdDeviation="17.1329"/>
<feComposite in2="hardAlpha" operator="out"/>
<feColorMatrix type="matrix" values="0 0 0 0 0.712934 0 0 0 0 0.731068 0 0 0 0 0.795833 0 0 0 0.3 0"/>
<feBlend mode="normal" in2="BackgroundImageFix" result="effect1_dropShadow_48_2586"/>
<feBlend mode="normal" in="SourceGraphic" in2="effect1_dropShadow_48_2586" result="shape"/>
</filter>
<linearGradient id="paint0_linear_48_2586" x1="230.497" y1="116.302" x2="230.497" y2="154.176" gradientUnits="userSpaceOnUse">
<stop stop-color="#9F3DBE"/>
<stop offset="1" stop-color="#9F3DBE" stop-opacity="0"/>
</linearGradient>
</defs>
</svg>
