<svg width="546" height="260" viewBox="0 0 546 260" fill="none" xmlns="http://www.w3.org/2000/svg">
<g filter="url(#filter0_d_48_2529)">
<rect x="36.5908" y="17" width="476.334" height="190.297" rx="13.9861" fill="white"/>
</g>
<path d="M58.4401 43.0911H56.2487V31.6518H52.3568V29.7968H62.3229V31.6518H58.4401V43.0911ZM69.2428 32.8339C69.4126 32.8339 69.5975 32.843 69.7975 32.8612C69.9976 32.8794 70.1704 32.9037 70.3158 32.934L70.1158 34.9345C69.9885 34.8981 69.8309 34.8708 69.6429 34.8526C69.4611 34.8344 69.2974 34.8253 69.1519 34.8253C68.77 34.8253 68.4063 34.889 68.0607 35.0163C67.7152 35.1375 67.4091 35.3255 67.1423 35.5801C66.8756 35.8286 66.6664 36.1408 66.5149 36.5167C66.3633 36.8925 66.2876 37.329 66.2876 37.8261V43.0911H64.1416V33.0249H65.8147L66.1057 34.7981H66.2057C66.4058 34.4404 66.6543 34.113 66.9514 33.816C67.2484 33.519 67.5879 33.2825 67.9698 33.1067C68.3578 32.9249 68.7821 32.8339 69.2428 32.8339ZM76.1264 32.8339C77.3994 32.8339 78.3603 33.1158 79.0089 33.6796C79.6637 34.2434 79.991 35.1224 79.991 36.3166V43.0911H78.4724L78.0632 41.6634H77.9905C77.7056 42.0272 77.4116 42.3272 77.1085 42.5637C76.8054 42.8001 76.4538 42.9759 76.0537 43.0911C75.6596 43.2123 75.1777 43.2729 74.6078 43.2729C74.0077 43.2729 73.4712 43.1638 72.9983 42.9456C72.5255 42.7213 72.1527 42.3818 71.8799 41.9271C71.6071 41.4725 71.4707 40.8966 71.4707 40.1994C71.4707 39.1628 71.8556 38.3838 72.6255 37.8625C73.4015 37.3411 74.5715 37.0532 76.1355 36.9986L77.8814 36.935V36.4076C77.8814 35.7104 77.7177 35.2133 77.3904 34.9163C77.0691 34.6192 76.6144 34.4707 76.0264 34.4707C75.5232 34.4707 75.0352 34.5435 74.5624 34.689C74.0895 34.8344 73.6288 35.0133 73.1802 35.2254L72.4891 33.716C72.9802 33.4553 73.5379 33.2431 74.1623 33.0795C74.7927 32.9158 75.4474 32.8339 76.1264 32.8339ZM77.8723 38.2808L76.572 38.3262C75.505 38.3626 74.7564 38.5445 74.3259 38.8718C73.8955 39.1992 73.6803 39.6478 73.6803 40.2176C73.6803 40.7147 73.8289 41.0784 74.1259 41.3088C74.4229 41.5331 74.8139 41.6452 75.2989 41.6452C76.0385 41.6452 76.6508 41.4361 77.1357 41.0178C77.6268 40.5935 77.8723 39.9721 77.8723 39.1537V38.2808ZM88.0112 34.6526H85.5651V43.0911H83.4282V34.6526H81.7824V33.625L83.4282 32.9976V32.2974C83.4282 31.4427 83.5616 30.7637 83.8283 30.2606C84.1011 29.7574 84.4891 29.3967 84.9923 29.1785C85.5015 28.9542 86.1077 28.842 86.8109 28.842C87.2716 28.842 87.6929 28.8814 88.0749 28.9602C88.4568 29.033 88.7781 29.1179 89.0387 29.2148L88.4841 30.8334C88.2779 30.7668 88.0476 30.7061 87.793 30.6516C87.5384 30.5909 87.2656 30.5606 86.9746 30.5606C86.4896 30.5606 86.1319 30.7122 85.9016 31.0153C85.6773 31.3184 85.5651 31.7609 85.5651 32.3429V33.0249H88.0112V34.6526ZM94.7493 34.6526H92.3032V43.0911H90.1663V34.6526H88.5204V33.625L90.1663 32.9976V32.2974C90.1663 31.4427 90.2997 30.7637 90.5664 30.2606C90.8392 29.7574 91.2272 29.3967 91.7303 29.1785C92.2395 28.9542 92.8458 28.842 93.549 28.842C94.0097 28.842 94.431 28.8814 94.8129 28.9602C95.1948 29.033 95.5161 29.1179 95.7768 29.2148L95.2221 30.8334C95.016 30.7668 94.7856 30.7061 94.531 30.6516C94.2764 30.5909 94.0036 30.5606 93.7126 30.5606C93.2277 30.5606 92.87 30.7122 92.6396 31.0153C92.4153 31.3184 92.3032 31.7609 92.3032 32.3429V33.0249H94.7493V34.6526ZM98.5957 33.0249V43.0911H96.4588V33.0249H98.5957ZM97.5409 29.1694C97.8682 29.1694 98.1501 29.2573 98.3865 29.4331C98.629 29.6089 98.7503 29.912 98.7503 30.3424C98.7503 30.7668 98.629 31.0699 98.3865 31.2517C98.1501 31.4275 97.8682 31.5154 97.5409 31.5154C97.2014 31.5154 96.9134 31.4275 96.677 31.2517C96.4467 31.0699 96.3315 30.7668 96.3315 30.3424C96.3315 29.912 96.4467 29.6089 96.677 29.4331C96.9134 29.2573 97.2014 29.1694 97.5409 29.1694ZM105.697 43.2729C104.746 43.2729 103.921 43.088 103.224 42.7182C102.527 42.3485 101.99 41.7816 101.615 41.0178C101.239 40.254 101.051 39.284 101.051 38.108C101.051 36.8834 101.257 35.8832 101.669 35.1072C102.081 34.3313 102.651 33.7584 103.379 33.3886C104.112 33.0188 104.952 32.8339 105.898 32.8339C106.498 32.8339 107.04 32.8946 107.525 33.0158C108.016 33.131 108.431 33.2734 108.771 33.4432L108.134 35.1527C107.765 35.0012 107.386 34.8738 106.998 34.7708C106.61 34.6677 106.237 34.6162 105.879 34.6162C105.291 34.6162 104.8 34.7465 104.406 35.0072C104.018 35.2679 103.727 35.6559 103.533 36.1711C103.345 36.6864 103.251 37.326 103.251 38.0898C103.251 38.8294 103.348 39.4538 103.542 39.963C103.736 40.4662 104.024 40.8481 104.406 41.1087C104.788 41.3634 105.258 41.4907 105.816 41.4907C106.367 41.4907 106.861 41.424 107.298 41.2906C107.734 41.1572 108.147 40.9845 108.535 40.7723V42.6273C108.153 42.8455 107.743 43.0062 107.307 43.1093C106.87 43.2184 106.334 43.2729 105.697 43.2729ZM119.792 43.2729C118.84 43.2729 118.016 43.088 117.319 42.7182C116.621 42.3485 116.085 41.7816 115.709 41.0178C115.333 40.254 115.145 39.284 115.145 38.108C115.145 36.8834 115.351 35.8832 115.764 35.1072C116.176 34.3313 116.746 33.7584 117.473 33.3886C118.207 33.0188 119.046 32.8339 119.992 32.8339C120.592 32.8339 121.135 32.8946 121.62 33.0158C122.111 33.131 122.526 33.2734 122.865 33.4432L122.229 35.1527C121.859 35.0012 121.48 34.8738 121.092 34.7708C120.704 34.6677 120.331 34.6162 119.974 34.6162C119.386 34.6162 118.895 34.7465 118.501 35.0072C118.113 35.2679 117.822 35.6559 117.628 36.1711C117.44 36.6864 117.346 37.326 117.346 38.0898C117.346 38.8294 117.443 39.4538 117.637 39.963C117.831 40.4662 118.119 40.8481 118.501 41.1087C118.883 41.3634 119.352 41.4907 119.91 41.4907C120.462 41.4907 120.956 41.424 121.392 41.2906C121.829 41.1572 122.241 40.9845 122.629 40.7723V42.6273C122.247 42.8455 121.838 43.0062 121.401 43.1093C120.965 43.2184 120.428 43.2729 119.792 43.2729ZM127.13 28.942V32.4975C127.13 32.8673 127.118 33.228 127.094 33.5796C127.076 33.9312 127.054 34.204 127.03 34.398H127.148C127.361 34.0464 127.621 33.7584 127.93 33.5341C128.24 33.3038 128.585 33.131 128.967 33.0158C129.355 32.9006 129.767 32.843 130.204 32.843C130.974 32.843 131.628 32.9734 132.168 33.234C132.707 33.4886 133.12 33.8857 133.404 34.4252C133.695 34.9648 133.841 35.665 133.841 36.5258V43.0911H131.704V36.9259C131.704 36.1439 131.543 35.5589 131.222 35.1709C130.901 34.7769 130.404 34.5798 129.731 34.5798C129.082 34.5798 128.567 34.7162 128.185 34.989C127.809 35.2558 127.539 35.6528 127.376 36.1802C127.212 36.7016 127.13 37.3381 127.13 38.0898V43.0911H124.993V28.942H127.13ZM140.779 32.8339C142.052 32.8339 143.013 33.1158 143.662 33.6796C144.316 34.2434 144.644 35.1224 144.644 36.3166V43.0911H143.125L142.716 41.6634H142.643C142.358 42.0272 142.064 42.3272 141.761 42.5637C141.458 42.8001 141.106 42.9759 140.706 43.0911C140.312 43.2123 139.83 43.2729 139.26 43.2729C138.66 43.2729 138.124 43.1638 137.651 42.9456C137.178 42.7213 136.805 42.3818 136.533 41.9271C136.26 41.4725 136.123 40.8966 136.123 40.1994C136.123 39.1628 136.508 38.3838 137.278 37.8625C138.054 37.3411 139.224 37.0532 140.788 36.9986L142.534 36.935V36.4076C142.534 35.7104 142.37 35.2133 142.043 34.9163C141.722 34.6192 141.267 34.4707 140.679 34.4707C140.176 34.4707 139.688 34.5435 139.215 34.689C138.742 34.8344 138.281 35.0133 137.833 35.2254L137.142 33.716C137.633 33.4553 138.19 33.2431 138.815 33.0795C139.445 32.9158 140.1 32.8339 140.779 32.8339ZM142.525 38.2808L141.225 38.3262C140.158 38.3626 139.409 38.5445 138.979 38.8718C138.548 39.1992 138.333 39.6478 138.333 40.2176C138.333 40.7147 138.481 41.0784 138.779 41.3088C139.076 41.5331 139.467 41.6452 139.952 41.6452C140.691 41.6452 141.303 41.4361 141.788 41.0178C142.279 40.5935 142.525 39.9721 142.525 39.1537V38.2808ZM152.882 32.8339C154.016 32.8339 154.898 33.128 155.528 33.716C156.165 34.2979 156.483 35.2345 156.483 36.5258V43.0911H154.346V36.9259C154.346 36.1439 154.185 35.5589 153.864 35.1709C153.543 34.7769 153.046 34.5798 152.373 34.5798C151.397 34.5798 150.718 34.8799 150.336 35.4801C149.96 36.0802 149.772 36.9501 149.772 38.0898V43.0911H147.635V33.0249H149.299L149.599 34.3889H149.718C149.936 34.0373 150.206 33.7493 150.527 33.525C150.854 33.2947 151.218 33.1219 151.618 33.0067C152.024 32.8915 152.446 32.8339 152.882 32.8339ZM164.721 32.8339C165.855 32.8339 166.737 33.128 167.368 33.716C168.004 34.2979 168.322 35.2345 168.322 36.5258V43.0911H166.185V36.9259C166.185 36.1439 166.025 35.5589 165.703 35.1709C165.382 34.7769 164.885 34.5798 164.212 34.5798C163.236 34.5798 162.557 34.8799 162.175 35.4801C161.799 36.0802 161.612 36.9501 161.612 38.0898V43.0911H159.475V33.0249H161.139L161.439 34.3889H161.557C161.775 34.0373 162.045 33.7493 162.366 33.525C162.694 33.2947 163.057 33.1219 163.457 33.0067C163.864 32.8915 164.285 32.8339 164.721 32.8339ZM175.324 32.8339C176.221 32.8339 176.991 33.0188 177.634 33.3886C178.276 33.7584 178.77 34.2828 179.116 34.9617C179.461 35.6407 179.634 36.453 179.634 37.3987V38.5445H172.914C172.939 39.5205 173.199 40.2722 173.696 40.7996C174.2 41.327 174.903 41.5907 175.806 41.5907C176.449 41.5907 177.025 41.5301 177.534 41.4088C178.049 41.2815 178.579 41.0966 179.125 40.8541V42.5909C178.622 42.8274 178.11 43.0001 177.588 43.1093C177.067 43.2184 176.443 43.2729 175.715 43.2729C174.727 43.2729 173.857 43.082 173.105 42.7001C172.36 42.3121 171.775 41.7362 171.35 40.9723C170.932 40.2085 170.723 39.2598 170.723 38.1262C170.723 36.9986 170.914 36.0408 171.296 35.2527C171.678 34.4647 172.214 33.8645 172.905 33.4523C173.596 33.0401 174.403 32.8339 175.324 32.8339ZM175.324 34.4434C174.651 34.4434 174.106 34.6617 173.687 35.0981C173.275 35.5346 173.033 36.1742 172.96 37.0168H177.543C177.537 36.5137 177.452 36.0681 177.288 35.6801C177.131 35.2921 176.888 34.989 176.561 34.7708C176.239 34.5526 175.827 34.4434 175.324 34.4434ZM184.19 43.0911H182.044V28.942H184.19V43.0911ZM194.011 40.2176C194.011 40.8784 193.85 41.4361 193.529 41.8908C193.207 42.3454 192.738 42.691 192.119 42.9274C191.507 43.1577 190.755 43.2729 189.864 43.2729C189.161 43.2729 188.555 43.2214 188.045 43.1183C187.542 43.0213 187.066 42.8698 186.618 42.6637V40.8178C187.097 41.0421 187.633 41.2361 188.227 41.3997C188.827 41.5634 189.394 41.6452 189.928 41.6452C190.631 41.6452 191.137 41.5361 191.446 41.3179C191.755 41.0936 191.91 40.7965 191.91 40.4268C191.91 40.2085 191.846 40.0145 191.719 39.8448C191.598 39.669 191.368 39.4902 191.028 39.3083C190.695 39.1204 190.204 38.8961 189.555 38.6354C188.918 38.3808 188.382 38.1262 187.945 37.8716C187.509 37.617 187.179 37.3108 186.954 36.9532C186.73 36.5894 186.618 36.1257 186.618 35.5619C186.618 34.6708 186.969 33.9948 187.673 33.5341C188.382 33.0673 189.319 32.8339 190.482 32.8339C191.101 32.8339 191.683 32.8976 192.228 33.0249C192.78 33.1461 193.32 33.325 193.847 33.5614L193.174 35.1709C192.719 34.9708 192.262 34.8072 191.801 34.6799C191.346 34.5465 190.883 34.4798 190.41 34.4798C189.858 34.4798 189.437 34.5647 189.146 34.7344C188.861 34.9042 188.718 35.1466 188.718 35.4619C188.718 35.6983 188.788 35.8983 188.928 36.062C189.067 36.2257 189.306 36.3894 189.646 36.5531C189.991 36.7167 190.47 36.9198 191.083 37.1623C191.683 37.3927 192.201 37.6351 192.638 37.8898C193.08 38.1383 193.42 38.4444 193.656 38.8082C193.892 39.1719 194.011 39.6417 194.011 40.2176Z" fill="#333333"/>
<path d="M54.3258 73.7179C55.4846 73.7287 56.2534 72.8949 56.2507 71.8309C56.2534 70.7696 55.4819 70.0089 54.5207 70.0089C53.936 70.0089 53.4297 70.2904 53.1454 70.7588H53.1048C53.1075 69.4999 53.584 68.7527 54.3962 68.7527C54.9296 68.7527 55.2653 69.0775 55.379 69.5378H56.2047C56.0775 68.6606 55.3871 68.0217 54.3962 68.0217C53.1075 68.0217 52.3034 69.129 52.3034 71.0566C52.3007 73.0979 53.3404 73.7098 54.3258 73.7179ZM54.3231 73.014C53.6788 73.014 53.2077 72.4725 53.2077 71.8498C53.2104 71.2299 53.7031 70.6884 54.3421 70.6884C54.9756 70.6884 55.4412 71.2001 55.4385 71.8417C55.4412 72.4969 54.9566 73.014 54.3231 73.014ZM59.1672 73.7341C60.4478 73.7341 61.1977 72.6891 61.1977 70.8725C61.1977 69.0694 60.4369 68.0217 59.1672 68.0217C57.8948 68.0217 57.1367 69.0667 57.134 70.8725C57.134 72.6864 57.8839 73.7314 59.1672 73.7341ZM59.1672 73.0113C58.4173 73.0113 57.9651 72.2586 57.9651 70.8725C57.9679 69.4918 58.42 68.731 59.1672 68.731C59.9117 68.731 60.3666 69.4918 60.3666 70.8725C60.3666 72.2586 59.9144 73.0113 59.1672 73.0113ZM64.0885 73.7341C65.369 73.7341 66.119 72.6891 66.119 70.8725C66.119 69.0694 65.3582 68.0217 64.0885 68.0217C62.816 68.0217 62.058 69.0667 62.0552 70.8725C62.0552 72.6864 62.8052 73.7314 64.0885 73.7341ZM64.0885 73.0113C63.3385 73.0113 62.8864 72.2586 62.8864 70.8725C62.8891 69.4918 63.3412 68.731 64.0885 68.731C64.833 68.731 65.2878 69.4918 65.2878 70.8725C65.2878 72.2586 64.8357 73.0113 64.0885 73.0113Z" fill="#808191"/>
<path d="M52.1322 91.7916H54.761V92.8745H55.5597V91.7916H56.2934V91.0823H55.5597V87.3299H54.5282L52.1322 91.1147V91.7916ZM54.7664 91.0823H53.0094V91.0389L54.7231 88.3262H54.7664V91.0823ZM59.1672 92.9666C60.4478 92.9666 61.1977 91.9215 61.1977 90.1049C61.1977 88.3018 60.4369 87.2541 59.1672 87.2541C57.8948 87.2541 57.1367 88.2991 57.134 90.1049C57.134 91.9188 57.8839 92.9639 59.1672 92.9666ZM59.1672 92.2437C58.4173 92.2437 57.9651 91.4911 57.9651 90.1049C57.9679 88.7242 58.42 87.9634 59.1672 87.9634C59.9117 87.9634 60.3666 88.7242 60.3666 90.1049C60.3666 91.4911 59.9144 92.2437 59.1672 92.2437ZM64.0885 92.9666C65.369 92.9666 66.119 91.9215 66.119 90.1049C66.119 88.3018 65.3582 87.2541 64.0885 87.2541C62.816 87.2541 62.058 88.2991 62.0552 90.1049C62.0552 91.9188 62.8052 92.9639 64.0885 92.9666ZM64.0885 92.2437C63.3385 92.2437 62.8864 91.4911 62.8864 90.1049C62.8891 88.7242 63.3412 87.9634 64.0885 87.9634C64.833 87.9634 65.2878 88.7242 65.2878 90.1049C65.2878 91.4911 64.8357 92.2437 64.0885 92.2437Z" fill="#808191"/>
<path d="M54.2534 112.183C55.3851 112.183 56.2162 111.507 56.2135 110.586C56.2162 109.885 55.7912 109.381 55.0548 109.268V109.224C55.6341 109.075 56.0105 108.621 56.0077 107.998C56.0105 107.183 55.3417 106.487 54.2751 106.487C53.2571 106.487 52.4395 107.102 52.4124 108.003H53.2219C53.2409 107.494 53.7201 107.186 54.2642 107.186C54.8301 107.186 55.201 107.53 55.1983 108.041C55.201 108.577 54.7705 108.929 54.1559 108.929H53.6876V109.612H54.1559C54.9248 109.612 55.3688 110.001 55.3688 110.559C55.3688 111.098 54.9005 111.463 54.248 111.463C53.647 111.463 53.1786 111.155 53.1461 110.662H52.296C52.3312 111.566 53.1326 112.183 54.2534 112.183ZM59.1672 112.2C60.4478 112.2 61.1977 111.155 61.1977 109.338C61.1977 107.535 60.4369 106.487 59.1672 106.487C57.8948 106.487 57.1367 107.532 57.134 109.338C57.134 111.152 57.8839 112.197 59.1672 112.2ZM59.1672 111.477C58.4173 111.477 57.9651 110.724 57.9651 109.338C57.9679 107.957 58.42 107.197 59.1672 107.197C59.9117 107.197 60.3666 107.957 60.3666 109.338C60.3666 110.724 59.9144 111.477 59.1672 111.477ZM64.0885 112.2C65.369 112.2 66.119 111.155 66.119 109.338C66.119 107.535 65.3582 106.487 64.0885 106.487C62.816 106.487 62.058 107.532 62.0552 109.338C62.0552 111.152 62.8052 112.197 64.0885 112.2ZM64.0885 111.477C63.3385 111.477 62.8864 110.724 62.8864 109.338C62.8891 107.957 63.3412 107.197 64.0885 107.197C64.833 107.197 65.2878 107.957 65.2878 109.338C65.2878 110.724 64.8357 111.477 64.0885 111.477Z" fill="#808191"/>
<path d="M52.5613 131.906H56.2108V131.188H53.7146V131.147L54.8165 129.994C55.8318 128.968 56.1215 128.478 56.1215 127.858C56.1215 126.967 55.3959 126.285 54.3509 126.285C53.314 126.285 52.5559 126.957 52.5559 127.969H53.3546C53.3519 127.373 53.7363 126.984 54.3346 126.984C54.8977 126.984 55.3255 127.33 55.3255 127.882C55.3255 128.372 55.0331 128.724 54.4375 129.355L52.5613 131.299V131.906ZM59.1672 131.998C60.4478 131.998 61.1977 130.953 61.1977 129.136C61.1977 127.333 60.4369 126.285 59.1672 126.285C57.8948 126.285 57.1367 127.33 57.134 129.136C57.134 130.95 57.8839 131.995 59.1672 131.998ZM59.1672 131.275C58.4173 131.275 57.9651 130.522 57.9651 129.136C57.9679 127.755 58.42 126.994 59.1672 126.994C59.9117 126.994 60.3666 127.755 60.3666 129.136C60.3666 130.522 59.9144 131.275 59.1672 131.275ZM64.0885 131.998C65.369 131.998 66.119 130.953 66.119 129.136C66.119 127.333 65.3582 126.285 64.0885 126.285C62.816 126.285 62.058 127.33 62.0552 129.136C62.0552 130.95 62.8052 131.995 64.0885 131.998ZM64.0885 131.275C63.3385 131.275 62.8864 130.522 62.8864 129.136C62.8891 127.755 63.3412 126.994 64.0885 126.994C64.833 126.994 65.2878 127.755 65.2878 129.136C65.2878 130.522 64.8357 131.275 64.0885 131.275Z" fill="#808191"/>
<path d="M55.737 145.594H54.9221L53.5387 146.498V147.299L54.8653 146.433H54.8977V151.138H55.737V145.594ZM59.1672 151.23C60.4478 151.23 61.1977 150.185 61.1977 148.369C61.1977 146.566 60.4369 145.518 59.1672 145.518C57.8948 145.518 57.1367 146.563 57.134 148.369C57.134 150.182 57.8839 151.228 59.1672 151.23ZM59.1672 150.507C58.4173 150.507 57.9651 149.755 57.9651 148.369C57.9679 146.988 58.42 146.227 59.1672 146.227C59.9117 146.227 60.3666 146.988 60.3666 148.369C60.3666 149.755 59.9144 150.507 59.1672 150.507ZM64.0885 151.23C65.369 151.23 66.119 150.185 66.119 148.369C66.119 146.566 65.3582 145.518 64.0885 145.518C62.816 145.518 62.058 146.563 62.0552 148.369C62.0552 150.182 62.8052 151.228 64.0885 151.23ZM64.0885 150.507C63.3385 150.507 62.8864 149.755 62.8864 148.369C62.8891 146.988 63.3412 146.227 64.0885 146.227C64.833 146.227 65.2878 146.988 65.2878 148.369C65.2878 149.755 64.8357 150.507 64.0885 150.507Z" fill="#808191"/>
<path d="M64.0885 171.594C65.369 171.594 66.119 170.549 66.119 168.732C66.119 166.929 65.3582 165.882 64.0885 165.882C62.816 165.882 62.058 166.927 62.0552 168.732C62.0552 170.546 62.8052 171.591 64.0885 171.594ZM64.0885 170.871C63.3385 170.871 62.8864 170.119 62.8864 168.732C62.8891 167.352 63.3412 166.591 64.0885 166.591C64.833 166.591 65.2878 167.352 65.2878 168.732C65.2878 170.119 64.8357 170.871 64.0885 170.871Z" fill="#808191"/>
<path d="M84.3138 188.604L84.8229 187.136H86.9894L87.4958 188.604H88.384L86.3882 183.058H85.4214L83.4256 188.604H84.3138ZM85.0666 186.432L85.8845 184.065H85.9278L86.7456 186.432H85.0666ZM89.1199 190.164H89.9296V187.957H89.9784C90.1246 188.222 90.4225 188.685 91.1808 188.685C92.1881 188.685 92.9193 187.878 92.9193 186.532C92.9193 185.183 92.1773 184.39 91.1726 184.39C90.4008 184.39 90.1219 184.861 89.9784 185.118H89.9107V184.444H89.1199V190.164ZM89.9134 186.524C89.9134 185.655 90.2925 185.078 90.9993 185.078C91.7332 185.078 92.1015 185.698 92.1015 186.524C92.1015 187.358 91.7224 187.994 90.9993 187.994C90.3033 187.994 89.9134 187.399 89.9134 186.524ZM93.8265 188.604H94.6362V186.064C94.6362 185.519 95.056 185.127 95.6301 185.127C95.798 185.127 95.9875 185.156 96.0525 185.175V184.401C95.9713 184.39 95.8115 184.382 95.7086 184.382C95.2212 184.382 94.8041 184.658 94.6525 185.105H94.6091V184.444H93.8265V188.604Z" fill="#808191"/>
<path d="M131.863 183.058V188.604H132.66V184.588H132.711L134.347 188.596H135.007L136.643 184.59H136.695V188.604H137.491V183.058H136.475L134.71 187.369H134.645L132.879 183.058H131.863ZM139.853 188.696C140.541 188.696 140.928 188.346 141.082 188.035H141.115V188.604H141.906V185.842C141.906 184.631 140.952 184.39 140.292 184.39C139.539 184.39 138.845 184.693 138.575 185.452L139.336 185.625C139.455 185.33 139.758 185.045 140.302 185.045C140.825 185.045 141.093 185.319 141.093 185.79V185.809C141.093 186.104 140.79 186.099 140.042 186.185C139.254 186.278 138.447 186.483 138.447 187.428C138.447 188.246 139.062 188.696 139.853 188.696ZM140.029 188.046C139.571 188.046 139.241 187.84 139.241 187.439C139.241 187.006 139.625 186.852 140.094 186.789C140.357 186.754 140.979 186.684 141.096 186.567V187.103C141.096 187.596 140.703 188.046 140.029 188.046ZM143.347 190.164C144.016 190.164 144.438 189.814 144.679 189.159L146.399 184.452L145.524 184.444L144.471 187.672H144.427L143.374 184.444H142.507L144.029 188.658L143.929 188.934C143.723 189.487 143.434 189.533 142.989 189.411L142.794 190.074C142.892 190.118 143.103 190.164 143.347 190.164Z" fill="#808191"/>
<path d="M184.263 183.058V186.99C184.261 187.629 183.963 187.97 183.432 187.97C182.942 187.97 182.601 187.678 182.598 187.217H181.767C181.767 188.154 182.471 188.68 183.41 188.68C184.429 188.68 185.095 188.057 185.097 186.99V183.058H184.263ZM188.885 186.879C188.888 187.586 188.363 187.921 187.908 187.921C187.407 187.921 187.06 187.558 187.06 186.992V184.444H186.25V187.09C186.25 188.122 186.816 188.658 187.615 188.658C188.241 188.658 188.666 188.328 188.858 187.883H188.902V188.604H189.698V184.444H188.885V186.879ZM191.595 186.134C191.595 185.471 192.002 185.091 192.565 185.091C193.115 185.091 193.448 185.452 193.448 186.055V188.604H194.257V185.958C194.257 184.929 193.691 184.39 192.841 184.39C192.216 184.39 191.807 184.68 191.614 185.121H191.563V184.444H190.786V188.604H191.595V186.134Z" fill="#808191"/>
<path d="M234.806 183.058V186.99C234.803 187.629 234.505 187.97 233.974 187.97C233.484 187.97 233.143 187.678 233.14 187.217H232.309C232.309 188.154 233.013 188.68 233.953 188.68C234.971 188.68 235.637 188.057 235.64 186.99V183.058H234.806ZM239.428 186.879C239.43 187.586 238.905 187.921 238.45 187.921C237.949 187.921 237.602 187.558 237.602 186.992V184.444H236.793V187.09C236.793 188.122 237.359 188.658 238.157 188.658C238.783 188.658 239.208 188.328 239.4 187.883H239.444V188.604H240.24V184.444H239.428V186.879ZM242.138 183.058H241.328V188.604H242.138V183.058Z" fill="#808191"/>
<path d="M280.362 188.604L280.871 187.136H283.038L283.544 188.604H284.432L282.436 183.058H281.47L279.474 188.604H280.362ZM281.115 186.432L281.933 184.065H281.976L282.794 186.432H281.115ZM287.803 186.879C287.806 187.586 287.28 187.921 286.825 187.921C286.325 187.921 285.978 187.558 285.978 186.992V184.444H285.168V187.09C285.168 188.122 285.734 188.658 286.533 188.658C287.159 188.658 287.584 188.328 287.776 187.883H287.819V188.604H288.616V184.444H287.803V186.879ZM291.447 190.25C292.506 190.25 293.324 189.766 293.324 188.696V184.444H292.531V185.118H292.471C292.328 184.861 292.041 184.39 291.266 184.39C290.261 184.39 289.522 185.183 289.522 186.508C289.522 187.835 290.278 188.541 291.261 188.541C292.024 188.541 292.319 188.111 292.466 187.846H292.517V188.663C292.517 189.316 292.07 189.598 291.456 189.598C290.781 189.598 290.519 189.259 290.375 189.021L289.679 189.308C289.898 189.817 290.454 190.25 291.447 190.25ZM291.439 187.87C290.716 187.87 290.34 187.315 290.34 186.497C290.34 185.698 290.708 185.078 291.439 185.078C292.146 185.078 292.525 185.655 292.525 186.497C292.525 187.355 292.138 187.87 291.439 187.87Z" fill="#808191"/>
<path d="M332.377 184.515H333.184C333.16 183.626 332.374 182.982 331.248 182.982C330.135 182.982 329.282 183.618 329.282 184.574C329.282 185.346 329.834 185.798 330.725 186.039L331.381 186.218C331.974 186.375 332.431 186.57 332.431 187.063C332.431 187.604 331.914 187.962 331.202 187.962C330.557 187.962 330.021 187.675 329.972 187.071H329.133C329.187 188.076 329.964 188.696 331.207 188.696C332.51 188.696 333.26 188.011 333.26 187.071C333.26 186.072 332.369 185.684 331.665 185.511L331.123 185.37C330.69 185.259 330.113 185.056 330.116 184.525C330.116 184.054 330.546 183.705 331.229 183.705C331.865 183.705 332.318 184.003 332.377 184.515ZM335.988 188.688C336.895 188.688 337.537 188.241 337.721 187.564L336.954 187.426C336.808 187.818 336.456 188.019 335.996 188.019C335.302 188.019 334.837 187.569 334.815 186.768H337.772V186.481C337.772 184.978 336.873 184.39 335.931 184.39C334.772 184.39 334.008 185.273 334.008 186.551C334.008 187.843 334.761 188.688 335.988 188.688ZM334.818 186.161C334.85 185.571 335.278 185.059 335.936 185.059C336.564 185.059 336.976 185.525 336.979 186.161H334.818ZM338.671 190.164H339.48V187.957H339.529C339.675 188.222 339.973 188.685 340.731 188.685C341.739 188.685 342.47 187.878 342.47 186.532C342.47 185.183 341.728 184.39 340.723 184.39C339.952 184.39 339.673 184.861 339.529 185.118H339.461V184.444H338.671V190.164ZM339.464 186.524C339.464 185.655 339.843 185.078 340.55 185.078C341.284 185.078 341.652 185.698 341.652 186.524C341.652 187.358 341.273 187.994 340.55 187.994C339.854 187.994 339.464 187.399 339.464 186.524Z" fill="#808191"/>
<path d="M384.145 185.831C384.145 184.057 383.084 182.982 381.649 182.982C380.208 182.982 379.149 184.057 379.149 185.831C379.149 187.602 380.208 188.68 381.649 188.68C383.084 188.68 384.145 187.604 384.145 185.831ZM383.317 185.831C383.317 187.182 382.602 187.916 381.649 187.916C380.693 187.916 379.98 187.182 379.98 185.831C379.98 184.479 380.693 183.746 381.649 183.746C382.602 183.746 383.317 184.479 383.317 185.831ZM386.876 188.688C387.859 188.688 388.495 188.097 388.585 187.288H387.796C387.694 187.737 387.344 188.003 386.881 188.003C386.196 188.003 385.755 187.431 385.755 186.524C385.755 185.633 386.204 185.072 386.881 185.072C387.396 185.072 387.71 185.397 387.796 185.787H388.585C388.498 184.948 387.813 184.39 386.868 184.39C385.695 184.39 384.937 185.273 384.937 186.543C384.937 187.797 385.668 188.688 386.876 188.688ZM391.392 184.444H390.539V183.448H389.729V184.444H389.12V185.094H389.729V187.55C389.727 188.306 390.303 188.671 390.943 188.658C391.2 188.655 391.373 188.606 391.468 188.571L391.322 187.902C391.268 187.913 391.167 187.938 391.037 187.938C390.775 187.938 390.539 187.851 390.539 187.382V185.094H391.392V184.444Z" fill="#808191"/>
<path d="M432.298 183.058H431.47V187.131H431.418L428.596 183.058H427.822V188.604H428.659V184.536H428.71L431.529 188.604H432.298V183.058ZM435.206 188.688C436.379 188.688 437.145 187.829 437.145 186.543C437.145 185.248 436.379 184.39 435.206 184.39C434.034 184.39 433.267 185.248 433.267 186.543C433.267 187.829 434.034 188.688 435.206 188.688ZM435.209 188.008C434.442 188.008 434.085 187.339 434.085 186.54C434.085 185.744 434.442 185.067 435.209 185.067C435.97 185.067 436.327 185.744 436.327 186.54C436.327 187.339 435.97 188.008 435.209 188.008ZM441.458 184.444H440.589L439.538 187.645H439.495L438.442 184.444H437.572L439.083 188.604H439.95L441.458 184.444Z" fill="#808191"/>
<path d="M478.909 188.604C480.599 188.604 481.576 187.556 481.576 185.823C481.576 184.098 480.599 183.058 478.966 183.058H477.114V188.604H478.909ZM477.95 187.873V183.789H478.914C480.128 183.789 480.753 184.515 480.753 185.823C480.753 187.136 480.128 187.873 478.863 187.873H477.95ZM484.345 188.688C485.252 188.688 485.894 188.241 486.078 187.564L485.311 187.426C485.165 187.818 484.813 188.019 484.353 188.019C483.66 188.019 483.194 187.569 483.172 186.768H486.129V186.481C486.129 184.978 485.23 184.39 484.288 184.39C483.129 184.39 482.365 185.273 482.365 186.551C482.365 187.843 483.118 188.688 484.345 188.688ZM483.175 186.161C483.207 185.571 483.635 185.059 484.293 185.059C484.922 185.059 485.333 185.525 485.336 186.161H483.175ZM488.78 188.688C489.763 188.688 490.399 188.097 490.489 187.288H489.701C489.598 187.737 489.248 188.003 488.785 188.003C488.1 188.003 487.659 187.431 487.659 186.524C487.659 185.633 488.108 185.072 488.785 185.072C489.3 185.072 489.614 185.397 489.701 185.787H490.489C490.402 184.948 489.717 184.39 488.772 184.39C487.599 184.39 486.841 185.273 486.841 186.543C486.841 187.797 487.572 188.688 488.78 188.688Z" fill="#808191"/>
<path d="M82.3848 168.725H495.322" stroke="#CECECE" stroke-width="0.669345" stroke-linecap="round" stroke-linejoin="round" stroke-dasharray="2.68 2.68"/>
<path d="M82.3848 148.361H495.322" stroke="#CECECE" stroke-width="0.669345" stroke-linecap="round" stroke-linejoin="round" stroke-dasharray="2.68 2.68"/>
<path d="M82.3848 129.128H495.322" stroke="#CECECE" stroke-width="0.669345" stroke-linecap="round" stroke-linejoin="round" stroke-dasharray="2.68 2.68"/>
<path d="M82.3848 109.33H495.322" stroke="#CECECE" stroke-width="0.669345" stroke-linecap="round" stroke-linejoin="round" stroke-dasharray="2.68 2.68"/>
<path d="M82.3848 90.0969H495.322" stroke="#CECECE" stroke-width="0.669345" stroke-linecap="round" stroke-linejoin="round" stroke-dasharray="2.68 2.68"/>
<path d="M82.3848 70.8643H495.322" stroke="#CECECE" stroke-width="0.669345" stroke-linecap="round" stroke-linejoin="round" stroke-dasharray="2.68 2.68"/>
<path d="M81.8193 137.805L137.675 157.313C148.208 160.992 159.782 160.248 169.757 155.252L202.648 138.777C210.312 134.938 218.98 133.582 227.45 134.895L256.568 139.412C273.128 141.98 289.597 134.277 298.24 119.92L309.542 101.146C322.665 79.3477 352.197 74.5061 371.593 90.9731L374.443 93.393C386.574 103.692 403.692 105.726 417.898 98.5583V98.5583C432.173 91.3556 449.38 93.4474 461.514 103.861L495.322 132.876" stroke="#FF3A6E" stroke-width="1.33869" stroke-linecap="round" stroke-linejoin="round"/>
<circle cx="214.751" cy="134.219" r="3.29033" fill="white" stroke="#FF3A6E" stroke-width="1.33869"/>
<circle cx="154.225" cy="161.937" r="3.29033" fill="white" stroke="#FF3A6E" stroke-width="1.33869"/>
<circle cx="82.385" cy="137.047" r="3.29033" fill="white" stroke="#FF3A6E" stroke-width="1.33869"/>
<circle cx="336.369" cy="78.7888" r="3.29033" fill="white" stroke="#FF3A6E" stroke-width="1.33869"/>
<circle cx="395.199" cy="103.61" r="3.29033" fill="white" stroke="#FF3A6E" stroke-width="1.33869"/>
<circle cx="439.887" cy="93.5632" r="3.29033" fill="white" stroke="#FF3A6E" stroke-width="1.33869"/>
<circle cx="494.191" cy="131.391" r="3.29033" fill="white" stroke="#FF3A6E" stroke-width="1.33869"/>
<path d="M81.8193 87.642L137.954 68.0362C148.309 64.4198 159.686 65.1509 169.493 70.0628L202.848 86.7703C210.382 90.5438 218.903 91.8775 227.23 90.586L257.032 85.9634C273.312 83.4383 289.501 91.0109 297.998 105.125L309.967 125.006C322.867 146.435 351.899 151.194 370.966 135.006L374.443 132.054C386.574 121.755 403.692 119.721 417.898 126.889V126.889C432.173 134.091 449.38 132 461.514 121.586L495.322 92.5714" stroke="#2787DF" stroke-width="1.33869" stroke-linecap="round" stroke-linejoin="round"/>
<circle r="3.29033" transform="matrix(1 0 0 -1 214.751 91.2278)" fill="white" stroke="#2787DF" stroke-width="1.33869"/>
<circle r="3.29033" transform="matrix(1 0 0 -1 154.225 64.6048)" fill="white" stroke="#2787DF" stroke-width="1.33869"/>
<circle r="3.29033" transform="matrix(1 0 0 -1 82.385 88.3995)" fill="white" stroke="#2787DF" stroke-width="1.33869"/>
<circle r="3.29033" transform="matrix(1 0 0 -1 336.369 146.752)" fill="white" stroke="#2787DF" stroke-width="1.33869"/>
<circle r="3.29033" transform="matrix(1 0 0 -1 395.199 121.339)" fill="white" stroke="#2787DF" stroke-width="1.33869"/>
<circle r="3.29033" transform="matrix(1 0 0 -1 439.887 131.386)" fill="white" stroke="#2787DF" stroke-width="1.33869"/>
<circle r="3.29033" transform="matrix(1 0 0 -1 494.191 94.056)" fill="white" stroke="#2787DF" stroke-width="1.33869"/>
<path d="M494.756 124.33L433.991 139.29C426.444 141.148 418.519 140.76 411.19 138.172L370.716 123.881C365.075 121.889 359.058 121.193 353.112 121.843L313.581 126.165C300.471 127.598 287.501 122.455 278.937 112.427L263.869 94.7831C251.238 79.9929 229.778 76.478 213.088 86.466L198.241 95.3518C188.031 101.462 175.625 102.692 164.414 98.7045L152.915 94.6145C141.641 90.6047 129.162 91.8716 118.925 98.0651L81.2536 120.855" stroke="#FFAF75" stroke-width="1.33869" stroke-linecap="round" stroke-linejoin="round"/>
<circle r="3.29033" transform="matrix(-1 0 0 1 361.824 121.34)" fill="white" stroke="#FFAF75" stroke-width="1.33869"/>
<circle r="3.29033" transform="matrix(-1 0 0 1 422.35 141.007)" fill="white" stroke="#FFAF75" stroke-width="1.33869"/>
<circle r="3.29033" transform="matrix(-1 0 0 1 494.19 125.169)" fill="white" stroke="#FFAF75" stroke-width="1.33869"/>
<circle r="3.29033" transform="matrix(-1 0 0 1 240.206 78.7885)" fill="white" stroke="#FFAF75" stroke-width="1.33869"/>
<circle r="3.29033" transform="matrix(-1 0 0 1 181.376 101.837)" fill="white" stroke="#FFAF75" stroke-width="1.33869"/>
<circle r="3.29033" transform="matrix(-1 0 0 1 136.688 91.1992)" fill="white" stroke="#FFAF75" stroke-width="1.33869"/>
<circle r="3.29033" transform="matrix(-1 0 0 1 82.3846 119.512)" fill="white" stroke="#FFAF75" stroke-width="1.33869"/>
<path d="M372.708 32.1512C372.708 32.4077 372.675 32.6414 372.61 32.8524C372.546 33.0618 372.45 33.2424 372.321 33.3941C372.192 33.5444 372.03 33.6605 371.836 33.7424C371.642 33.8244 371.414 33.8654 371.153 33.8654C370.887 33.8654 370.657 33.8244 370.461 33.7424C370.267 33.6605 370.105 33.5436 369.976 33.3919C369.849 33.2401 369.753 33.0588 369.689 32.8478C369.626 32.6369 369.594 32.4032 369.594 32.1467C369.594 31.8037 369.65 31.5047 369.762 31.2498C369.876 30.9933 370.048 30.7945 370.279 30.6534C370.511 30.5107 370.804 30.4394 371.158 30.4394C371.504 30.4394 371.791 30.51 372.02 30.6511C372.249 30.7922 372.421 30.991 372.535 31.2475C372.65 31.5025 372.708 31.8037 372.708 32.1512ZM370.167 32.1512C370.167 32.4077 370.202 32.63 370.272 32.8182C370.342 33.0049 370.449 33.1491 370.593 33.2507C370.739 33.3509 370.925 33.401 371.153 33.401C371.382 33.401 371.569 33.3509 371.713 33.2507C371.857 33.1491 371.963 33.0049 372.032 32.8182C372.1 32.63 372.134 32.4077 372.134 32.1512C372.134 31.7612 372.056 31.4562 371.9 31.2361C371.745 31.0146 371.497 30.9038 371.158 30.9038C370.93 30.9038 370.742 30.9539 370.595 31.054C370.45 31.1542 370.342 31.2976 370.272 31.4843C370.202 31.6694 370.167 31.8917 370.167 32.1512ZM374.645 31.2521C374.687 31.2521 374.734 31.2543 374.784 31.2589C374.834 31.2635 374.877 31.2695 374.914 31.2771L374.863 31.7779C374.832 31.7688 374.792 31.762 374.745 31.7574C374.7 31.7529 374.659 31.7506 374.622 31.7506C374.527 31.7506 374.435 31.7665 374.349 31.7984C374.262 31.8288 374.186 31.8758 374.119 31.9395C374.052 32.0018 374 32.0799 373.962 32.174C373.924 32.2681 373.905 32.3774 373.905 32.5018V33.8198H373.368V31.2999H373.787L373.86 31.7438H373.885C373.935 31.6542 373.997 31.5723 374.071 31.4979C374.146 31.4236 374.231 31.3644 374.326 31.3204C374.423 31.2748 374.53 31.2521 374.645 31.2521ZM376.1 34.9398C375.758 34.9398 375.496 34.8783 375.314 34.7554C375.132 34.6325 375.041 34.4602 375.041 34.2387C375.041 34.0839 375.09 33.9526 375.187 33.8449C375.284 33.7386 375.423 33.665 375.603 33.6241C375.535 33.5937 375.476 33.5467 375.426 33.4829C375.377 33.4177 375.353 33.3456 375.353 33.2667C375.353 33.1726 375.379 33.0921 375.433 33.0254C375.486 32.9586 375.565 32.8941 375.672 32.8319C375.54 32.7757 375.433 32.6847 375.353 32.5587C375.274 32.4312 375.235 32.2818 375.235 32.1103C375.235 31.9282 375.273 31.7734 375.351 31.6459C375.428 31.5169 375.541 31.419 375.69 31.3522C375.838 31.2839 376.018 31.2498 376.229 31.2498C376.275 31.2498 376.324 31.2528 376.377 31.2589C376.432 31.2635 376.482 31.2695 376.527 31.2771C376.575 31.2832 376.61 31.29 376.634 31.2976H377.506V31.5958L377.078 31.6755C377.119 31.7331 377.152 31.7992 377.176 31.8735C377.201 31.9464 377.213 32.026 377.213 32.1125C377.213 32.3736 377.122 32.5792 376.942 32.7294C376.763 32.8782 376.515 32.9525 376.2 32.9525C376.124 32.9495 376.05 32.9434 375.979 32.9343C375.924 32.9677 375.883 33.0049 375.854 33.0459C375.825 33.0853 375.81 33.1301 375.81 33.1802C375.81 33.2211 375.825 33.2545 375.854 33.2803C375.883 33.3046 375.925 33.3228 375.981 33.335C376.039 33.3471 376.109 33.3532 376.191 33.3532H376.625C376.902 33.3532 377.113 33.4116 377.258 33.5284C377.404 33.6453 377.477 33.8168 377.477 34.0429C377.477 34.3297 377.358 34.5505 377.122 34.7053C376.885 34.8616 376.544 34.9398 376.1 34.9398ZM376.12 34.5642C376.307 34.5642 376.464 34.546 376.591 34.5096C376.719 34.4731 376.815 34.4208 376.88 34.3525C376.946 34.2857 376.978 34.206 376.978 34.1135C376.978 34.0315 376.958 33.9685 376.917 33.9245C376.876 33.8805 376.814 33.8502 376.732 33.8335C376.65 33.8168 376.549 33.8084 376.427 33.8084H376.031C375.933 33.8084 375.845 33.8236 375.769 33.854C375.694 33.8858 375.634 33.9314 375.592 33.9906C375.551 34.0497 375.53 34.1211 375.53 34.2045C375.53 34.3199 375.581 34.4086 375.683 34.4709C375.786 34.5331 375.932 34.5642 376.12 34.5642ZM376.225 32.602C376.381 32.602 376.497 32.5595 376.573 32.4745C376.649 32.388 376.687 32.2666 376.687 32.1103C376.687 31.9403 376.647 31.8128 376.568 31.7278C376.491 31.6428 376.376 31.6004 376.222 31.6004C376.072 31.6004 375.958 31.6436 375.879 31.7301C375.801 31.8166 375.763 31.9448 375.763 32.1148C375.763 32.2681 375.801 32.388 375.879 32.4745C375.958 32.5595 376.073 32.602 376.225 32.602ZM378.954 31.2521C379.273 31.2521 379.513 31.3226 379.676 31.4638C379.84 31.6049 379.922 31.825 379.922 32.1239V33.8198H379.541L379.439 33.4624H379.421C379.349 33.5535 379.276 33.6286 379.2 33.6878C379.124 33.747 379.036 33.791 378.936 33.8198C378.837 33.8502 378.717 33.8654 378.574 33.8654C378.424 33.8654 378.289 33.838 378.171 33.7834C378.053 33.7273 377.959 33.6423 377.891 33.5284C377.823 33.4146 377.789 33.2705 377.789 33.0959C377.789 32.8364 377.885 32.6414 378.078 32.5109C378.272 32.3804 378.565 32.3083 378.956 32.2947L379.393 32.2787V32.1467C379.393 31.9722 379.352 31.8477 379.271 31.7734C379.19 31.699 379.076 31.6618 378.929 31.6618C378.803 31.6618 378.681 31.68 378.563 31.7165C378.444 31.7529 378.329 31.7976 378.217 31.8508L378.044 31.4729C378.166 31.4076 378.306 31.3545 378.462 31.3135C378.62 31.2726 378.784 31.2521 378.954 31.2521ZM379.391 32.6156L379.066 32.627C378.799 32.6361 378.611 32.6816 378.503 32.7636C378.396 32.8455 378.342 32.9578 378.342 33.1005C378.342 33.2249 378.379 33.316 378.453 33.3737C378.528 33.4298 378.626 33.4579 378.747 33.4579C378.932 33.4579 379.085 33.4055 379.207 33.3008C379.33 33.1946 379.391 33.039 379.391 32.8342V32.6156ZM381.984 31.2521C382.268 31.2521 382.489 31.3257 382.646 31.4729C382.806 31.6186 382.885 31.853 382.885 32.1763V33.8198H382.35V32.2764C382.35 32.0807 382.31 31.9342 382.23 31.8371C382.149 31.7385 382.025 31.6891 381.856 31.6891C381.612 31.6891 381.442 31.7643 381.347 31.9145C381.252 32.0647 381.205 32.2825 381.205 32.5678V33.8198H380.67V31.2999H381.087L381.162 31.6413H381.192C381.246 31.5533 381.314 31.4812 381.394 31.4251C381.476 31.3674 381.567 31.3242 381.668 31.2953C381.769 31.2665 381.875 31.2521 381.984 31.2521ZM384.169 31.2999V33.8198H383.634V31.2999H384.169ZM383.905 30.3347C383.987 30.3347 384.058 30.3567 384.117 30.4007C384.178 30.4447 384.208 30.5206 384.208 30.6283C384.208 30.7346 384.178 30.8105 384.117 30.856C384.058 30.9 383.987 30.922 383.905 30.922C383.82 30.922 383.748 30.9 383.689 30.856C383.631 30.8105 383.602 30.7346 383.602 30.6283C383.602 30.5206 383.631 30.4447 383.689 30.4007C383.748 30.3567 383.82 30.3347 383.905 30.3347ZM385.952 33.8654C385.713 33.8654 385.507 33.8191 385.333 33.7265C385.158 33.6339 385.024 33.492 384.93 33.3008C384.836 33.1096 384.788 32.8668 384.788 32.5724C384.788 32.2658 384.84 32.0154 384.943 31.8212C385.046 31.6269 385.189 31.4835 385.371 31.3909C385.555 31.2984 385.765 31.2521 386.002 31.2521C386.152 31.2521 386.288 31.2672 386.409 31.2976C386.532 31.3264 386.636 31.3621 386.721 31.4046L386.562 31.8325C386.469 31.7946 386.374 31.7627 386.277 31.7369C386.18 31.7111 386.087 31.6982 385.997 31.6982C385.85 31.6982 385.727 31.7309 385.628 31.7961C385.531 31.8614 385.458 31.9585 385.41 32.0875C385.363 32.2165 385.339 32.3766 385.339 32.5678C385.339 32.753 385.364 32.9093 385.412 33.0368C385.461 33.1627 385.533 33.2583 385.628 33.3236C385.724 33.3873 385.842 33.4192 385.981 33.4192C386.119 33.4192 386.243 33.4025 386.352 33.3691C386.462 33.3357 386.565 33.2925 386.662 33.2393V33.7037C386.566 33.7584 386.464 33.7986 386.355 33.8244C386.245 33.8517 386.111 33.8654 385.952 33.8654ZM390.158 33.1005C390.158 33.2659 390.118 33.4055 390.038 33.5193C389.957 33.6332 389.84 33.7197 389.685 33.7788C389.532 33.8365 389.343 33.8654 389.12 33.8654C388.944 33.8654 388.793 33.8525 388.665 33.8267C388.539 33.8024 388.42 33.7644 388.308 33.7128V33.2507C388.428 33.3069 388.562 33.3554 388.711 33.3964C388.861 33.4374 389.003 33.4579 389.136 33.4579C389.312 33.4579 389.439 33.4306 389.516 33.3759C389.594 33.3198 389.633 33.2454 389.633 33.1528C389.633 33.0982 389.617 33.0496 389.585 33.0072C389.554 32.9631 389.497 32.9184 389.412 32.8729C389.328 32.8258 389.205 32.7697 389.043 32.7044C388.884 32.6407 388.749 32.5769 388.64 32.5132C388.531 32.4494 388.448 32.3728 388.392 32.2833C388.336 32.1922 388.308 32.0761 388.308 31.935C388.308 31.7119 388.396 31.5427 388.572 31.4274C388.749 31.3105 388.984 31.2521 389.275 31.2521C389.43 31.2521 389.576 31.268 389.712 31.2999C389.85 31.3302 389.985 31.375 390.117 31.4342L389.949 31.8371C389.835 31.787 389.721 31.746 389.605 31.7142C389.491 31.6808 389.375 31.6641 389.257 31.6641C389.119 31.6641 389.013 31.6853 388.941 31.7278C388.869 31.7703 388.834 31.831 388.834 31.9099C388.834 31.9691 388.851 32.0192 388.886 32.0602C388.921 32.1012 388.981 32.1421 389.066 32.1831C389.152 32.2241 389.272 32.2749 389.425 32.3356C389.576 32.3933 389.705 32.454 389.815 32.5177C389.925 32.58 390.01 32.6566 390.07 32.7477C390.129 32.8387 390.158 32.9563 390.158 33.1005ZM391.741 31.2521C391.965 31.2521 392.158 31.2984 392.319 31.3909C392.48 31.4835 392.603 31.6148 392.69 31.7847C392.776 31.9547 392.82 32.1581 392.82 32.3948V32.6816H391.137C391.143 32.926 391.209 33.1141 391.333 33.2462C391.459 33.3782 391.635 33.4442 391.861 33.4442C392.022 33.4442 392.166 33.429 392.294 33.3987C392.423 33.3668 392.555 33.3205 392.692 33.2598V33.6946C392.566 33.7538 392.438 33.7971 392.307 33.8244C392.177 33.8517 392.021 33.8654 391.838 33.8654C391.591 33.8654 391.373 33.8175 391.185 33.7219C390.998 33.6248 390.852 33.4806 390.746 33.2894C390.641 33.0982 390.589 32.8607 390.589 32.5769C390.589 32.2947 390.636 32.0549 390.732 31.8576C390.828 31.6603 390.962 31.5101 391.135 31.4069C391.308 31.3037 391.51 31.2521 391.741 31.2521ZM391.741 31.655C391.572 31.655 391.435 31.7096 391.331 31.8189C391.228 31.9282 391.167 32.0883 391.149 32.2992H392.296C392.294 32.1732 392.273 32.0617 392.232 31.9646C392.193 31.8675 392.132 31.7916 392.05 31.7369C391.97 31.6823 391.866 31.655 391.741 31.655ZM394.411 31.2521C394.729 31.2521 394.97 31.3226 395.132 31.4638C395.296 31.6049 395.378 31.825 395.378 32.1239V33.8198H394.998L394.896 33.4624H394.877C394.806 33.5535 394.732 33.6286 394.657 33.6878C394.581 33.747 394.493 33.791 394.392 33.8198C394.294 33.8502 394.173 33.8654 394.031 33.8654C393.88 33.8654 393.746 33.838 393.628 33.7834C393.509 33.7273 393.416 33.6423 393.348 33.5284C393.279 33.4146 393.245 33.2705 393.245 33.0959C393.245 32.8364 393.342 32.6414 393.534 32.5109C393.729 32.3804 394.021 32.3083 394.413 32.2947L394.85 32.2787V32.1467C394.85 31.9722 394.809 31.8477 394.727 31.7734C394.647 31.699 394.533 31.6618 394.386 31.6618C394.26 31.6618 394.138 31.68 394.019 31.7165C393.901 31.7529 393.785 31.7976 393.673 31.8508L393.5 31.4729C393.623 31.4076 393.763 31.3545 393.919 31.3135C394.077 31.2726 394.241 31.2521 394.411 31.2521ZM394.848 32.6156L394.522 32.627C394.255 32.6361 394.068 32.6816 393.96 32.7636C393.852 32.8455 393.798 32.9578 393.798 33.1005C393.798 33.2249 393.836 33.316 393.91 33.3737C393.984 33.4298 394.082 33.4579 394.204 33.4579C394.389 33.4579 394.542 33.4055 394.663 33.3008C394.786 33.1946 394.848 33.039 394.848 32.8342V32.6156ZM397.404 31.2521C397.447 31.2521 397.493 31.2543 397.543 31.2589C397.593 31.2635 397.636 31.2695 397.673 31.2771L397.623 31.7779C397.591 31.7688 397.551 31.762 397.504 31.7574C397.459 31.7529 397.418 31.7506 397.381 31.7506C397.286 31.7506 397.195 31.7665 397.108 31.7984C397.022 31.8288 396.945 31.8758 396.878 31.9395C396.812 32.0018 396.759 32.0799 396.721 32.174C396.683 32.2681 396.664 32.3774 396.664 32.5018V33.8198H396.127V31.2999H396.546L396.619 31.7438H396.644C396.694 31.6542 396.756 31.5723 396.83 31.4979C396.905 31.4236 396.99 31.3644 397.085 31.3204C397.183 31.2748 397.289 31.2521 397.404 31.2521ZM399.155 33.8654C398.916 33.8654 398.71 33.8191 398.536 33.7265C398.361 33.6339 398.227 33.492 398.133 33.3008C398.038 33.1096 397.991 32.8668 397.991 32.5724C397.991 32.2658 398.043 32.0154 398.146 31.8212C398.249 31.6269 398.392 31.4835 398.574 31.3909C398.758 31.2984 398.968 31.2521 399.205 31.2521C399.355 31.2521 399.491 31.2672 399.612 31.2976C399.735 31.3264 399.839 31.3621 399.924 31.4046L399.765 31.8325C399.672 31.7946 399.577 31.7627 399.48 31.7369C399.383 31.7111 399.29 31.6982 399.2 31.6982C399.053 31.6982 398.93 31.7309 398.831 31.7961C398.734 31.8614 398.661 31.9585 398.613 32.0875C398.566 32.2165 398.542 32.3766 398.542 32.5678C398.542 32.753 398.567 32.9093 398.615 33.0368C398.664 33.1627 398.736 33.2583 398.831 33.3236C398.927 33.3873 399.045 33.4192 399.184 33.4192C399.322 33.4192 399.446 33.4025 399.555 33.3691C399.665 33.3357 399.768 33.2925 399.865 33.2393V33.7037C399.769 33.7584 399.667 33.7986 399.558 33.8244C399.448 33.8517 399.314 33.8654 399.155 33.8654ZM400.992 30.2778V31.1678C400.992 31.2604 400.989 31.3507 400.983 31.4387C400.978 31.5268 400.973 31.595 400.967 31.6436H400.996C401.049 31.5556 401.115 31.4835 401.192 31.4274C401.269 31.3697 401.356 31.3264 401.452 31.2976C401.549 31.2688 401.652 31.2543 401.761 31.2543C401.954 31.2543 402.118 31.287 402.253 31.3522C402.388 31.416 402.491 31.5154 402.562 31.6504C402.635 31.7855 402.672 31.9608 402.672 32.1763V33.8198H402.137V32.2764C402.137 32.0807 402.097 31.9342 402.016 31.8371C401.936 31.7385 401.811 31.6891 401.643 31.6891C401.48 31.6891 401.351 31.7233 401.256 31.7916C401.162 31.8583 401.094 31.9577 401.053 32.0898C401.012 32.2203 400.992 32.3796 400.992 32.5678V33.8198H400.457V30.2778H400.992Z" fill="#808191"/>
<path d="M429.787 30.4901C430.074 30.4901 430.311 30.525 430.498 30.5949C430.686 30.6647 430.826 30.771 430.917 30.9137C431.01 31.0564 431.056 31.2379 431.056 31.458C431.056 31.622 431.026 31.7617 430.965 31.8771C430.904 31.9925 430.824 32.0882 430.726 32.1641C430.627 32.24 430.522 32.3007 430.409 32.3463L431.354 33.8198H430.737L429.933 32.4852H429.398V33.8198H428.851V30.4901H429.787ZM429.751 30.9456H429.398V32.0343H429.776C430.03 32.0343 430.213 31.9872 430.327 31.893C430.443 31.7989 430.5 31.66 430.5 31.4763C430.5 31.2834 430.439 31.1468 430.316 31.0663C430.194 30.9858 430.006 30.9456 429.751 30.9456ZM432.78 31.2508C433.005 31.2508 433.198 31.2971 433.359 31.3897C433.519 31.4823 433.643 31.6137 433.73 31.7837C433.816 31.9538 433.86 32.1572 433.86 32.3941V32.6811H432.177C432.183 32.9255 432.248 33.1138 432.372 33.2459C432.498 33.378 432.675 33.444 432.901 33.444C433.062 33.444 433.206 33.4289 433.333 33.3985C433.463 33.3666 433.595 33.3203 433.732 33.2596V33.6946C433.606 33.7538 433.478 33.797 433.347 33.8244C433.217 33.8517 433.06 33.8654 432.878 33.8654C432.631 33.8654 432.413 33.8175 432.224 33.7219C432.038 33.6247 431.891 33.4805 431.785 33.2892C431.68 33.0979 431.628 32.8602 431.628 32.5763C431.628 32.2939 431.675 32.054 431.771 31.8566C431.867 31.6592 432.001 31.5089 432.174 31.4057C432.347 31.3024 432.549 31.2508 432.78 31.2508ZM432.78 31.6539C432.612 31.6539 432.475 31.7086 432.37 31.8179C432.267 31.9272 432.206 32.0874 432.188 32.2984H433.336C433.334 32.1724 433.313 32.0608 433.272 31.9636C433.233 31.8665 433.172 31.7906 433.09 31.7359C433.009 31.6812 432.906 31.6539 432.78 31.6539ZM435.723 31.7063H435.11V33.8198H434.575V31.7063H434.163V31.4489L434.575 31.2918V31.1164C434.575 30.9023 434.608 30.7323 434.675 30.6062C434.743 30.4802 434.84 30.3899 434.966 30.3352C435.094 30.279 435.246 30.251 435.422 30.251C435.537 30.251 435.643 30.2608 435.739 30.2806C435.834 30.2988 435.915 30.32 435.98 30.3443L435.841 30.7497C435.789 30.733 435.732 30.7178 435.668 30.7042C435.604 30.689 435.536 30.6814 435.463 30.6814C435.342 30.6814 435.252 30.7194 435.194 30.7953C435.138 30.8712 435.11 30.982 435.11 31.1278V31.2986H435.723V31.7063ZM437.41 31.7063H436.798V33.8198H436.262V31.7063H435.85V31.4489L436.262 31.2918V31.1164C436.262 30.9023 436.296 30.7323 436.363 30.6062C436.431 30.4802 436.528 30.3899 436.654 30.3352C436.782 30.279 436.933 30.251 437.11 30.251C437.225 30.251 437.331 30.2608 437.426 30.2806C437.522 30.2988 437.602 30.32 437.668 30.3443L437.529 30.7497C437.477 30.733 437.419 30.7178 437.356 30.7042C437.292 30.689 437.223 30.6814 437.151 30.6814C437.029 30.6814 436.94 30.7194 436.882 30.7953C436.826 30.8712 436.798 30.982 436.798 31.1278V31.2986H437.41V31.7063ZM438.843 31.2508C439.068 31.2508 439.26 31.2971 439.421 31.3897C439.582 31.4823 439.706 31.6137 439.793 31.7837C439.879 31.9538 439.922 32.1572 439.922 32.3941V32.6811H438.239C438.245 32.9255 438.311 33.1138 438.435 33.2459C438.561 33.378 438.737 33.444 438.964 33.444C439.124 33.444 439.269 33.4289 439.396 33.3985C439.525 33.3666 439.658 33.3203 439.795 33.2596V33.6946C439.669 33.7538 439.54 33.797 439.41 33.8244C439.279 33.8517 439.123 33.8654 438.941 33.8654C438.693 33.8654 438.475 33.8175 438.287 33.7219C438.1 33.6247 437.954 33.4805 437.848 33.2892C437.743 33.0979 437.69 32.8602 437.69 32.5763C437.69 32.2939 437.738 32.054 437.834 31.8566C437.93 31.6592 438.064 31.5089 438.237 31.4057C438.41 31.3024 438.612 31.2508 438.843 31.2508ZM438.843 31.6539C438.674 31.6539 438.538 31.7086 438.433 31.8179C438.33 31.9272 438.269 32.0874 438.251 32.2984H439.399C439.397 32.1724 439.376 32.0608 439.335 31.9636C439.295 31.8665 439.235 31.7906 439.153 31.7359C439.072 31.6812 438.969 31.6539 438.843 31.6539ZM441.804 31.2508C441.846 31.2508 441.892 31.2531 441.943 31.2576C441.993 31.2622 442.036 31.2682 442.072 31.2758L442.022 31.7769C441.99 31.7678 441.951 31.7609 441.904 31.7564C441.858 31.7518 441.817 31.7496 441.781 31.7496C441.685 31.7496 441.594 31.7655 441.508 31.7974C441.421 31.8278 441.344 31.8748 441.277 31.9386C441.211 32.0008 441.158 32.079 441.12 32.1732C441.082 32.2673 441.063 32.3766 441.063 32.5011V33.8198H440.526V31.2986H440.945L441.018 31.7427H441.043C441.093 31.6531 441.155 31.5712 441.23 31.4968C441.304 31.4224 441.389 31.3631 441.485 31.3191C441.582 31.2736 441.688 31.2508 441.804 31.2508ZM443.528 31.2508C443.847 31.2508 444.087 31.3214 444.25 31.4626C444.414 31.6038 444.496 31.824 444.496 32.1231V33.8198H444.115L444.013 33.4623H443.995C443.923 33.5534 443.85 33.6285 443.774 33.6877C443.698 33.7469 443.61 33.791 443.509 33.8198C443.411 33.8502 443.29 33.8654 443.147 33.8654C442.997 33.8654 442.863 33.838 442.744 33.7834C442.626 33.7272 442.532 33.6422 442.464 33.5283C442.396 33.4144 442.362 33.2702 442.362 33.0956C442.362 32.8359 442.458 32.6408 442.651 32.5103C442.845 32.3797 443.138 32.3076 443.53 32.2939L443.967 32.2779V32.1459C443.967 31.9712 443.926 31.8467 443.844 31.7723C443.764 31.6979 443.65 31.6607 443.503 31.6607C443.377 31.6607 443.254 31.679 443.136 31.7154C443.017 31.7518 442.902 31.7966 442.79 31.8498L442.617 31.4717C442.74 31.4064 442.879 31.3533 443.036 31.3123C443.194 31.2713 443.358 31.2508 443.528 31.2508ZM443.965 32.615L443.639 32.6264C443.372 32.6355 443.185 32.6811 443.077 32.7631C442.969 32.845 442.915 32.9574 442.915 33.1001C442.915 33.2246 442.952 33.3157 443.027 33.3734C443.101 33.4296 443.199 33.4577 443.32 33.4577C443.506 33.4577 443.659 33.4053 443.78 33.3006C443.903 33.1943 443.965 33.0386 443.965 32.8337V32.615ZM445.782 33.8198H445.245V30.276H445.782V33.8198Z" fill="#808191"/>
<path d="M472.734 32.9134C472.734 33.1108 472.685 33.2808 472.588 33.4235C472.492 33.5663 472.354 33.6756 472.173 33.7515C471.994 33.8274 471.78 33.8654 471.531 33.8654C471.41 33.8654 471.293 33.8585 471.183 33.8449C471.072 33.8312 470.967 33.8115 470.868 33.7857C470.771 33.7583 470.682 33.7257 470.602 33.6877V33.173C470.737 33.2322 470.888 33.2861 471.055 33.3347C471.222 33.3818 471.392 33.4053 471.565 33.4053C471.706 33.4053 471.823 33.3871 471.916 33.3507C472.01 33.3127 472.08 33.2596 472.125 33.1912C472.171 33.1214 472.194 33.0402 472.194 32.9475C472.194 32.8488 472.167 32.7653 472.114 32.697C472.061 32.6287 471.98 32.5664 471.873 32.5103C471.766 32.4526 471.633 32.3911 471.472 32.3258C471.362 32.2817 471.258 32.2316 471.157 32.1755C471.059 32.1193 470.971 32.0532 470.893 31.9773C470.816 31.9014 470.754 31.8118 470.709 31.7086C470.665 31.6038 470.643 31.4808 470.643 31.3396C470.643 31.1513 470.688 30.9904 470.777 30.8568C470.868 30.7232 470.996 30.6207 471.16 30.5493C471.325 30.4779 471.518 30.4423 471.738 30.4423C471.913 30.4423 472.077 30.4605 472.23 30.4969C472.385 30.5334 472.537 30.585 472.686 30.6518L472.513 31.0914C472.376 31.0352 472.243 30.9904 472.114 30.957C471.987 30.9236 471.856 30.9069 471.722 30.9069C471.607 30.9069 471.509 30.9243 471.429 30.9593C471.348 30.9942 471.287 31.0435 471.244 31.1073C471.203 31.1696 471.183 31.244 471.183 31.3305C471.183 31.4277 471.206 31.5097 471.253 31.5765C471.302 31.6418 471.376 31.7017 471.476 31.7564C471.578 31.8111 471.709 31.8718 471.868 31.9386C472.052 32.0145 472.207 32.0942 472.335 32.1777C472.464 32.2612 472.563 32.3615 472.631 32.4784C472.699 32.5938 472.734 32.7388 472.734 32.9134ZM475.553 32.5535C475.553 32.7631 475.526 32.9491 475.471 33.1115C475.416 33.274 475.337 33.4114 475.232 33.5237C475.127 33.6346 475.001 33.7196 474.854 33.7788C474.707 33.8365 474.54 33.8654 474.355 33.8654C474.182 33.8654 474.023 33.8365 473.879 33.7788C473.735 33.7196 473.61 33.6346 473.503 33.5237C473.399 33.4114 473.317 33.274 473.26 33.1115C473.202 32.9491 473.173 32.7631 473.173 32.5535C473.173 32.2757 473.221 32.0403 473.317 31.8475C473.414 31.6531 473.552 31.5051 473.731 31.4034C473.91 31.3017 474.124 31.2508 474.371 31.2508C474.603 31.2508 474.808 31.3017 474.986 31.4034C475.164 31.5051 475.303 31.6531 475.403 31.8475C475.503 32.0418 475.553 32.2772 475.553 32.5535ZM473.724 32.5535C473.724 32.7372 473.746 32.8944 473.79 33.025C473.836 33.1555 473.906 33.2558 474 33.3256C474.094 33.3939 474.215 33.4281 474.364 33.4281C474.513 33.4281 474.634 33.3939 474.729 33.3256C474.823 33.2558 474.892 33.1555 474.936 33.025C474.98 32.8944 475.002 32.7372 475.002 32.5535C475.002 32.3698 474.98 32.2142 474.936 32.0866C474.892 31.9576 474.823 31.8596 474.729 31.7928C474.634 31.7245 474.512 31.6903 474.362 31.6903C474.14 31.6903 473.979 31.7647 473.877 31.9135C473.775 32.0623 473.724 32.2757 473.724 32.5535ZM477.184 33.8654C476.945 33.8654 476.739 33.8191 476.564 33.7264C476.39 33.6338 476.255 33.4919 476.161 33.3006C476.067 33.1092 476.02 32.8663 476.02 32.5717C476.02 32.265 476.072 32.0145 476.175 31.8202C476.278 31.6258 476.421 31.4823 476.603 31.3897C476.787 31.2971 476.997 31.2508 477.234 31.2508C477.384 31.2508 477.52 31.266 477.642 31.2963C477.765 31.3252 477.869 31.3609 477.954 31.4034L477.794 31.8316C477.702 31.7936 477.607 31.7617 477.509 31.7359C477.412 31.7101 477.319 31.6972 477.229 31.6972C477.082 31.6972 476.959 31.7298 476.86 31.7951C476.763 31.8604 476.69 31.9576 476.642 32.0866C476.595 32.2157 476.571 32.3759 476.571 32.5672C476.571 32.7524 476.595 32.9088 476.644 33.0364C476.693 33.1624 476.765 33.258 476.86 33.3233C476.956 33.3871 477.074 33.419 477.213 33.419C477.352 33.419 477.475 33.4023 477.585 33.3689C477.694 33.3355 477.797 33.2922 477.894 33.2391V33.7037C477.799 33.7583 477.696 33.7986 477.587 33.8244C477.478 33.8517 477.343 33.8654 477.184 33.8654ZM479.022 31.2986V33.8198H478.487V31.2986H479.022ZM478.758 30.3329C478.84 30.3329 478.91 30.355 478.969 30.399C479.03 30.443 479.06 30.5189 479.06 30.6267C479.06 30.733 479.03 30.8089 478.969 30.8545C478.91 30.8985 478.84 30.9205 478.758 30.9205C478.673 30.9205 478.6 30.8985 478.541 30.8545C478.483 30.8089 478.455 30.733 478.455 30.6267C478.455 30.5189 478.483 30.443 478.541 30.399C478.6 30.355 478.673 30.3329 478.758 30.3329ZM480.778 31.2508C481.097 31.2508 481.337 31.3214 481.5 31.4626C481.664 31.6038 481.746 31.824 481.746 32.1231V33.8198H481.365L481.263 33.4623H481.245C481.173 33.5534 481.1 33.6285 481.024 33.6877C480.948 33.7469 480.86 33.791 480.759 33.8198C480.661 33.8502 480.54 33.8654 480.397 33.8654C480.247 33.8654 480.113 33.838 479.994 33.7834C479.876 33.7272 479.782 33.6422 479.714 33.5283C479.646 33.4144 479.612 33.2702 479.612 33.0956C479.612 32.8359 479.708 32.6408 479.901 32.5103C480.095 32.3797 480.388 32.3076 480.78 32.2939L481.217 32.2779V32.1459C481.217 31.9712 481.176 31.8467 481.094 31.7723C481.014 31.6979 480.9 31.6607 480.753 31.6607C480.627 31.6607 480.504 31.679 480.386 31.7154C480.268 31.7518 480.152 31.7966 480.04 31.8498L479.867 31.4717C479.99 31.4064 480.129 31.3533 480.286 31.3123C480.444 31.2713 480.608 31.2508 480.778 31.2508ZM481.215 32.615L480.889 32.6264C480.622 32.6355 480.435 32.6811 480.327 32.7631C480.219 32.845 480.165 32.9574 480.165 33.1001C480.165 33.2246 480.202 33.3157 480.277 33.3734C480.351 33.4296 480.449 33.4577 480.57 33.4577C480.756 33.4577 480.909 33.4053 481.031 33.3006C481.154 33.1943 481.215 33.0386 481.215 32.8337V32.615ZM483.032 33.8198H482.495V30.276H483.032V33.8198ZM487.859 31.2508C488.141 31.2508 488.353 31.3237 488.496 31.4694C488.64 31.6152 488.713 31.849 488.713 32.1709V33.8198H488.177V32.2666C488.177 32.0752 488.14 31.931 488.066 31.8338C487.991 31.7367 487.878 31.6881 487.726 31.6881C487.514 31.6881 487.36 31.7564 487.266 31.893C487.174 32.0282 487.127 32.2248 487.127 32.4829V33.8198H486.592V32.2666C486.592 32.139 486.576 32.0327 486.542 31.9477C486.51 31.8612 486.461 31.7966 486.394 31.7541C486.327 31.7101 486.243 31.6881 486.141 31.6881C485.994 31.6881 485.876 31.7215 485.788 31.7883C485.702 31.8551 485.639 31.9538 485.601 32.0844C485.564 32.2134 485.545 32.3721 485.545 32.5604V33.8198H485.009V31.2986H485.426L485.501 31.638H485.531C485.583 31.5499 485.646 31.4778 485.722 31.4216C485.8 31.3639 485.885 31.3214 485.98 31.2941C486.074 31.2652 486.172 31.2508 486.273 31.2508C486.462 31.2508 486.62 31.2842 486.749 31.351C486.878 31.4163 486.975 31.5165 487.039 31.6516H487.08C487.159 31.515 487.269 31.414 487.41 31.3487C487.551 31.2834 487.701 31.2508 487.859 31.2508ZM490.464 31.2508C490.689 31.2508 490.882 31.2971 491.042 31.3897C491.203 31.4823 491.327 31.6137 491.414 31.7837C491.5 31.9538 491.544 32.1572 491.544 32.3941V32.6811H489.86C489.867 32.9255 489.932 33.1138 490.056 33.2459C490.182 33.378 490.358 33.444 490.585 33.444C490.746 33.444 490.89 33.4289 491.017 33.3985C491.146 33.3666 491.279 33.3203 491.416 33.2596V33.6946C491.29 33.7538 491.162 33.797 491.031 33.8244C490.901 33.8517 490.744 33.8654 490.562 33.8654C490.314 33.8654 490.097 33.8175 489.908 33.7219C489.722 33.6247 489.575 33.4805 489.469 33.2892C489.364 33.0979 489.312 32.8602 489.312 32.5763C489.312 32.2939 489.359 32.054 489.455 31.8566C489.551 31.6592 489.685 31.5089 489.858 31.4057C490.031 31.3024 490.233 31.2508 490.464 31.2508ZM490.464 31.6539C490.295 31.6539 490.159 31.7086 490.054 31.8179C489.951 31.9272 489.89 32.0874 489.872 32.2984H491.02C491.018 32.1724 490.997 32.0608 490.956 31.9636C490.916 31.8665 490.856 31.7906 490.774 31.7359C490.693 31.6812 490.59 31.6539 490.464 31.6539ZM492.994 33.8654C492.694 33.8654 492.452 33.7561 492.27 33.5374C492.089 33.3173 491.999 32.9931 491.999 32.5649C491.999 32.1322 492.091 31.805 492.275 31.5833C492.46 31.3616 492.704 31.2508 493.006 31.2508C493.133 31.2508 493.245 31.2682 493.34 31.3032C493.436 31.3366 493.518 31.3821 493.586 31.4398C493.656 31.4975 493.716 31.562 493.764 31.6334H493.789C493.782 31.5863 493.772 31.5188 493.762 31.4307C493.753 31.3411 493.748 31.2584 493.748 31.1825V30.276H494.286V33.8198H493.867L493.771 33.4759H493.748C493.703 33.5488 493.645 33.6148 493.575 33.6741C493.507 33.7318 493.425 33.7781 493.329 33.813C493.235 33.8479 493.123 33.8654 492.994 33.8654ZM493.145 33.4304C493.374 33.4304 493.536 33.3643 493.63 33.2322C493.724 33.1001 493.772 32.902 493.775 32.6378V32.5672C493.775 32.2848 493.73 32.0684 493.639 31.9181C493.548 31.7663 493.381 31.6903 493.14 31.6903C492.947 31.6903 492.8 31.7685 492.698 31.9249C492.598 32.0798 492.548 32.2962 492.548 32.574C492.548 32.8519 492.598 33.0644 492.698 33.2117C492.8 33.3575 492.949 33.4304 493.145 33.4304ZM495.588 31.2986V33.8198H495.053V31.2986H495.588ZM495.324 30.3329C495.406 30.3329 495.477 30.355 495.536 30.399C495.597 30.443 495.627 30.5189 495.627 30.6267C495.627 30.733 495.597 30.8089 495.536 30.8545C495.477 30.8985 495.406 30.9205 495.324 30.9205C495.239 30.9205 495.167 30.8985 495.108 30.8545C495.05 30.8089 495.021 30.733 495.021 30.6267C495.021 30.5189 495.05 30.443 495.108 30.399C495.167 30.355 495.239 30.3329 495.324 30.3329ZM497.344 31.2508C497.663 31.2508 497.904 31.3214 498.066 31.4626C498.23 31.6038 498.312 31.824 498.312 32.1231V33.8198H497.932L497.829 33.4623H497.811C497.74 33.5534 497.666 33.6285 497.59 33.6877C497.514 33.7469 497.426 33.791 497.326 33.8198C497.227 33.8502 497.107 33.8654 496.964 33.8654C496.814 33.8654 496.679 33.838 496.561 33.7834C496.442 33.7272 496.349 33.6422 496.281 33.5283C496.212 33.4144 496.178 33.2702 496.178 33.0956C496.178 32.8359 496.275 32.6408 496.468 32.5103C496.662 32.3797 496.955 32.3076 497.347 32.2939L497.784 32.2779V32.1459C497.784 31.9712 497.743 31.8467 497.661 31.7723C497.58 31.6979 497.467 31.6607 497.319 31.6607C497.193 31.6607 497.071 31.679 496.953 31.7154C496.834 31.7518 496.719 31.7966 496.606 31.8498L496.433 31.4717C496.556 31.4064 496.696 31.3533 496.852 31.3123C497.01 31.2713 497.174 31.2508 497.344 31.2508ZM497.782 32.615L497.456 32.6264C497.189 32.6355 497.001 32.6811 496.893 32.7631C496.786 32.845 496.732 32.9574 496.732 33.1001C496.732 33.2246 496.769 33.3157 496.843 33.3734C496.918 33.4296 497.016 33.4577 497.137 33.4577C497.322 33.4577 497.476 33.4053 497.597 33.3006C497.72 33.1943 497.782 33.0386 497.782 32.8337V32.615Z" fill="#808191"/>
<rect x="356.905" y="28.2288" width="8.27379" height="8.27379" rx="4.13689" fill="#FF3A6E"/>
<rect x="416.003" y="28.2288" width="8.27379" height="8.27379" rx="4.13689" fill="#FFAF75"/>
<rect x="457.963" y="28.2288" width="8.27379" height="8.27379" rx="4.13689" fill="#2787DF"/>
<defs>
<filter id="filter0_d_48_2529" x="0.494021" y="0.916025" width="544.866" height="258.829" filterUnits="userSpaceOnUse" color-interpolation-filters="sRGB">
<feFlood flood-opacity="0" result="BackgroundImageFix"/>
<feColorMatrix in="SourceAlpha" type="matrix" values="0 0 0 0 0 0 0 0 0 0 0 0 0 0 0 0 0 0 127 0" result="hardAlpha"/>
<feOffset dx="-1.83094" dy="18.1819"/>
<feGaussianBlur stdDeviation="17.1329"/>
<feComposite in2="hardAlpha" operator="out"/>
<feColorMatrix type="matrix" values="0 0 0 0 0.712934 0 0 0 0 0.731068 0 0 0 0 0.795833 0 0 0 0.3 0"/>
<feBlend mode="normal" in2="BackgroundImageFix" result="effect1_dropShadow_48_2529"/>
<feBlend mode="normal" in="SourceGraphic" in2="effect1_dropShadow_48_2529" result="shape"/>
</filter>
</defs>
</svg>
