<svg width="147" height="147" viewBox="0 0 147 147" fill="none" xmlns="http://www.w3.org/2000/svg">
<path d="M57.1513 118.803L48.8649 117.248L48.8649 117.248L57.1513 118.803ZM57.2899 118.065L65.5764 119.62L65.5764 119.62L57.2899 118.065ZM89.7146 118.065L81.4281 119.62L81.4281 119.62L89.7146 118.065ZM89.8532 118.803L98.1397 117.248L98.1397 117.248L89.8532 118.803ZM87.7763 134.796L95.3894 138.419L95.3894 138.419L87.7763 134.796ZM79.3264 132.931C77.3255 137.136 79.1119 142.167 83.3165 144.168C87.521 146.168 92.5516 144.382 94.5525 140.177L79.3264 132.931ZM59.2282 134.796L51.6151 138.419L51.6151 138.419L59.2282 134.796ZM52.452 140.177C54.453 144.382 59.4835 146.168 63.6881 144.167C67.8927 142.167 69.6791 137.136 67.6781 132.931L52.452 140.177ZM68.9233 105.346L66.6691 97.222L66.6691 97.222L68.9233 105.346ZM78.0812 105.346L80.3354 97.222L80.3354 97.222L78.0812 105.346ZM65.4378 120.359L65.5764 119.62L49.0035 116.509L48.8649 117.248L65.4378 120.359ZM81.4281 119.62L81.5667 120.359L98.1397 117.248L98.0011 116.509L81.4281 119.62ZM80.1633 131.173L79.3264 132.931L94.5525 140.177L95.3894 138.419L80.1633 131.173ZM51.6151 138.419L52.452 140.177L67.6781 132.931L66.8412 131.173L51.6151 138.419ZM81.5667 120.359C82.2548 124.024 81.7617 127.814 80.1633 131.173L95.3894 138.419C98.5233 131.834 99.4854 124.417 98.1397 117.248L81.5667 120.359ZM48.8649 117.248C47.5191 124.417 48.4813 131.834 51.6151 138.419L66.8413 131.173C65.2429 127.814 64.7497 124.024 65.4378 120.359L48.8649 117.248ZM71.1775 113.471C72.6994 113.048 74.3052 113.048 75.827 113.471L80.3354 97.222C75.8637 95.9813 71.1408 95.9813 66.6691 97.222L71.1775 113.471ZM98.0011 116.509C96.2623 107.246 89.4296 99.7454 80.3354 97.222L75.827 113.471C78.6727 114.26 80.8664 116.627 81.4281 119.62L98.0011 116.509ZM65.5764 119.62C66.1382 116.627 68.3318 114.26 71.1775 113.471L66.6691 97.222C57.5749 99.7454 50.7422 107.246 49.0035 116.509L65.5764 119.62Z" fill="#CECECE"/>
<path d="M134.176 57.1549C134.176 52.4985 130.402 48.7237 125.745 48.7237C121.089 48.7237 117.314 52.4985 117.314 57.1549H134.176ZM29.6888 57.1549C29.6888 52.4985 25.914 48.7237 21.2576 48.7237C16.6012 48.7237 12.8264 52.4985 12.8264 57.1549H29.6888ZM91.5127 135.901L89.5743 127.696L91.5127 135.901ZM55.4901 135.901L57.4285 127.696L55.4901 135.901ZM93.7714 23.4379L87.7886 29.3785L93.7714 23.4379ZM132.017 73.9217C135.298 77.2259 140.636 77.2449 143.941 73.964C147.245 70.6831 147.264 65.3448 143.983 62.0406L132.017 73.9217ZM53.2315 23.4379L59.2144 29.3785V29.3785L53.2315 23.4379ZM3.02009 62.0406C-0.260799 65.3448 -0.241879 70.6831 3.06235 73.964C6.36658 77.2449 11.7049 77.2259 14.9858 73.9217L3.02009 62.0406ZM117.314 57.1549V92.4023H134.176V57.1549H117.314ZM29.6888 92.4023V57.1549H12.8264V92.4023H29.6888ZM89.5743 127.696C79.0023 130.193 68.0005 130.193 57.4285 127.696L53.5517 144.106C66.6732 147.206 80.3296 147.206 93.4511 144.106L89.5743 127.696ZM57.4285 127.696C41.2163 123.866 29.6888 109.276 29.6888 92.4023H12.8264C12.8264 117.019 29.6555 138.461 53.5517 144.106L57.4285 127.696ZM93.4511 144.106C117.347 138.461 134.176 117.019 134.176 92.4023H117.314C117.314 109.276 105.787 123.866 89.5743 127.696L93.4511 144.106ZM87.7886 29.3785L132.017 73.9217L143.983 62.0406L99.7542 17.4973L87.7886 29.3785ZM47.2487 17.4973L3.02009 62.0406L14.9858 73.9217L59.2144 29.3785L47.2487 17.4973ZM99.7542 17.4973C95.1449 12.8552 91.1021 8.75817 87.4166 5.92624C83.5391 2.94673 79.073 0.571748 73.5015 0.571748V17.4341C73.8668 17.4341 74.7581 17.465 77.1424 19.2971C79.7188 21.2768 82.8425 24.3973 87.7886 29.3785L99.7542 17.4973ZM59.2144 29.3785C64.1604 24.3973 67.2841 21.2768 69.8605 19.2971C72.2449 17.465 73.1361 17.4341 73.5015 17.4341V0.571748C67.9299 0.571748 63.4638 2.94673 59.5863 5.92624C55.9008 8.75817 51.858 12.8552 47.2487 17.4973L59.2144 29.3785Z" fill="white"/>
</svg>
