<svg width="15" height="15" viewBox="0 0 15 15" fill="none" xmlns="http://www.w3.org/2000/svg">
<path d="M5.99156 11.8945L5.17079 11.7405L5.17079 11.7405L5.99156 11.8945ZM6.00529 11.8214L6.82606 11.9755L6.82606 11.9755L6.00529 11.8214ZM9.21694 11.8214L8.39617 11.9755L8.39617 11.9755L9.21694 11.8214ZM9.23067 11.8946L10.0514 11.7405L10.0514 11.7405L9.23067 11.8946ZM9.02496 13.4786L9.77903 13.8375L9.77903 13.8375L9.02496 13.4786ZM8.18799 13.2939C7.9898 13.7104 8.16675 14.2087 8.58321 14.4069C8.99967 14.6051 9.49794 14.4281 9.69614 14.0117L8.18799 13.2939ZM6.19728 13.4786L5.4432 13.8375L5.44321 13.8375L6.19728 13.4786ZM5.5261 14.0117C5.72429 14.4281 6.22257 14.6051 6.63903 14.4069C7.05549 14.2087 7.23243 13.7104 7.03424 13.2939L5.5261 14.0117ZM7.15757 10.5616L6.93429 9.75695L6.93429 9.75695L7.15757 10.5616ZM8.06466 10.5616L8.28794 9.75695L8.28794 9.75695L8.06466 10.5616ZM6.81233 12.0486L6.82606 11.9755L5.18452 11.6673L5.17079 11.7405L6.81233 12.0486ZM8.39617 11.9755L8.4099 12.0486L10.0514 11.7405L10.0377 11.6673L8.39617 11.9755ZM8.27089 13.1198L8.18799 13.2939L9.69614 14.0117L9.77903 13.8375L8.27089 13.1198ZM5.44321 13.8375L5.5261 14.0117L7.03424 13.2939L6.95134 13.1198L5.44321 13.8375ZM8.4099 12.0486C8.47805 12.4117 8.42921 12.7871 8.27089 13.1198L9.77903 13.8375C10.0894 13.1852 10.1847 12.4506 10.0514 11.7405L8.4099 12.0486ZM5.17079 11.7405C5.0375 12.4506 5.1328 13.1852 5.4432 13.8375L6.95135 13.1198C6.79303 12.7871 6.74418 12.4117 6.81234 12.0486L5.17079 11.7405ZM7.38085 11.3664C7.53159 11.3245 7.69064 11.3245 7.84138 11.3664L8.28794 9.75695C7.84501 9.63405 7.37722 9.63405 6.93429 9.75695L7.38085 11.3664ZM10.0377 11.6674C9.86549 10.7499 9.18871 10.0069 8.28794 9.75695L7.84138 11.3664C8.12325 11.4446 8.34053 11.679 8.39617 11.9755L10.0377 11.6674ZM6.82606 11.9755C6.8817 11.679 7.09898 11.4446 7.38085 11.3664L6.93429 9.75695C6.03352 10.0069 5.35674 10.7499 5.18452 11.6674L6.82606 11.9755Z" fill="#CECECE"/>
<path d="M13.621 5.78896C13.621 5.32775 13.2471 4.95386 12.7859 4.95386C12.3247 4.95386 11.9508 5.32775 11.9508 5.78896H13.621ZM3.27158 5.78896C3.27158 5.32775 2.89769 4.95386 2.43648 4.95386C1.97526 4.95386 1.60137 5.32775 1.60137 5.78896H3.27158ZM9.39521 13.5887L9.20321 12.776L9.39521 13.5887ZM5.82719 13.5887L6.01919 12.776L5.82719 13.5887ZM9.61894 2.44931L9.02634 3.03772L9.61894 2.44931ZM13.4072 7.44971C13.7321 7.77699 14.2609 7.77886 14.5882 7.45389C14.9155 7.12892 14.9173 6.60017 14.5924 6.27288L13.4072 7.44971ZM5.60348 2.44931L6.19608 3.03772L5.60348 2.44931ZM0.630059 6.27288C0.305088 6.60017 0.306962 7.12892 0.634245 7.45389C0.961527 7.77887 1.49028 7.77699 1.81525 7.44971L0.630059 6.27288ZM11.9508 5.78896V9.2802H13.621V5.78896H11.9508ZM3.27158 9.2802V5.78896H1.60137V9.2802H3.27158ZM9.20321 12.776C8.15606 13.0234 7.06634 13.0234 6.01919 12.776L5.63519 14.4015C6.93487 14.7085 8.28753 14.7085 9.58721 14.4015L9.20321 12.776ZM6.01919 12.776C4.41337 12.3966 3.27158 10.9515 3.27158 9.2802H1.60137C1.60137 11.7185 3.26829 13.8423 5.63519 14.4015L6.01919 12.776ZM9.58721 14.4015C11.9541 13.8423 13.621 11.7185 13.621 9.2802H11.9508C11.9508 10.9515 10.809 12.3966 9.20321 12.776L9.58721 14.4015ZM9.02634 3.03772L13.4072 7.44971L14.5924 6.27288L10.2115 1.8609L9.02634 3.03772ZM5.01088 1.8609L0.630059 6.27288L1.81525 7.44971L6.19608 3.03772L5.01088 1.8609ZM10.2115 1.8609C9.75498 1.4011 9.35454 0.995288 8.9895 0.714786C8.60543 0.419667 8.16307 0.184426 7.61121 0.184426V1.85464C7.6474 1.85464 7.73567 1.85769 7.97184 2.03917C8.22704 2.23526 8.53644 2.54434 9.02634 3.03772L10.2115 1.8609ZM6.19608 3.03772C6.68598 2.54434 6.99538 2.23526 7.25057 2.03917C7.48674 1.85769 7.57502 1.85464 7.61121 1.85464V0.184426C7.05935 0.184426 6.61699 0.419667 6.23292 0.714786C5.86787 0.995288 5.46743 1.4011 5.01088 1.8609L6.19608 3.03772Z" fill="#51459D"/>
</svg>
