<svg width="137" height="24" viewBox="0 0 137 24" fill="none" xmlns="http://www.w3.org/2000/svg">
<path d="M9.17407 18.36L7.93924 18.1282L7.93924 18.1282L9.17407 18.36ZM9.19472 18.2499L10.4296 18.4817L10.4296 18.4817L9.19472 18.2499ZM14.0266 18.2499L12.7917 18.4817L12.7917 18.4817L14.0266 18.2499ZM14.0472 18.36L15.2821 18.1282L15.2821 18.1282L14.0472 18.36ZM13.7377 20.7432L14.8722 21.2831L14.8722 21.2831L13.7377 20.7432ZM12.4786 20.4653C12.1804 21.0919 12.4466 21.8415 13.0731 22.1397C13.6997 22.4379 14.4493 22.1717 14.7475 21.5451L12.4786 20.4653ZM9.48356 20.7432L8.34907 21.2831L8.34908 21.2831L9.48356 20.7432ZM8.47379 21.5451C8.77196 22.1717 9.52161 22.4379 10.1482 22.1397C10.7747 21.8415 11.0409 21.0919 10.7427 20.4653L8.47379 21.5451ZM10.9283 16.3547L10.5924 15.144L10.5924 15.144L10.9283 16.3547ZM12.293 16.3547L12.6289 15.144L12.6289 15.144L12.293 16.3547ZM10.4089 18.5918L10.4296 18.4817L7.95989 18.0182L7.93924 18.1282L10.4089 18.5918ZM12.7917 18.4817L12.8124 18.5918L15.2821 18.1282L15.2614 18.0182L12.7917 18.4817ZM12.6033 20.2033L12.4786 20.4653L14.7475 21.5451L14.8722 21.2831L12.6033 20.2033ZM8.34908 21.2831L8.47379 21.5451L10.7427 20.4653L10.618 20.2033L8.34908 21.2831ZM12.8124 18.5918C12.9149 19.138 12.8415 19.7028 12.6033 20.2033L14.8722 21.2831C15.3392 20.3018 15.4826 19.1966 15.2821 18.1282L12.8124 18.5918ZM7.93924 18.1282C7.73869 19.1966 7.88207 20.3018 8.34907 21.2831L10.618 20.2033C10.3798 19.7028 10.3064 19.138 10.4089 18.5918L7.93924 18.1282ZM11.2642 17.5653C11.491 17.5024 11.7303 17.5024 11.9571 17.5653L12.6289 15.144C11.9625 14.9591 11.2588 14.9591 10.5924 15.144L11.2642 17.5653ZM15.2614 18.0182C15.0023 16.6378 13.9841 15.52 12.6289 15.144L11.9571 17.5653C12.3811 17.683 12.708 18.0358 12.7917 18.4817L15.2614 18.0182ZM10.4296 18.4817C10.5133 18.0358 10.8402 17.683 11.2642 17.5653L10.5924 15.144C9.23719 15.52 8.21899 16.6378 7.95989 18.0182L10.4296 18.4817Z" fill="#CECECE"/>
<path d="M20.6531 9.17551C20.6531 8.48162 20.0906 7.91912 19.3967 7.91912C18.7028 7.91912 18.1403 8.48162 18.1403 9.17551H20.6531ZM5.08256 9.17551C5.08256 8.48162 4.52006 7.91912 3.82617 7.91912C3.13228 7.91912 2.56977 8.48162 2.56977 9.17551H5.08256ZM14.2954 20.9101L14.0066 19.6874H14.0066L14.2954 20.9101ZM8.92743 20.9101L9.21629 19.6874L8.92743 20.9101ZM14.632 4.15107L13.7405 5.03632H13.7405L14.632 4.15107ZM20.3313 11.6741C20.8203 12.1665 21.6158 12.1693 22.1081 11.6804C22.6005 11.1915 22.6034 10.396 22.1144 9.90356L20.3313 11.6741ZM8.59086 4.15107L9.48241 5.03632L8.59086 4.15107ZM1.10845 9.90356C0.619537 10.396 0.622357 11.1915 1.11475 11.6804C1.60714 12.1693 2.40264 12.1665 2.89155 11.6741L1.10845 9.90356ZM18.1403 9.17551V14.428H20.6531V9.17551H18.1403ZM5.08256 14.428V9.17551H2.56977V14.428H5.08256ZM14.0066 19.6874C12.4312 20.0595 10.7917 20.0595 9.21629 19.6874L8.63857 22.1329C10.5939 22.5948 12.629 22.5948 14.5843 22.1329L14.0066 19.6874ZM9.21629 19.6874C6.80037 19.1166 5.08256 16.9425 5.08256 14.428H2.56977C2.56977 18.0963 5.07761 21.2916 8.63857 22.1329L9.21629 19.6874ZM14.5843 22.1329C18.1453 21.2916 20.6531 18.0963 20.6531 14.428H18.1403C18.1403 16.9425 16.4225 19.1166 14.0066 19.6874L14.5843 22.1329ZM13.7405 5.03632L20.3313 11.6741L22.1144 9.90356L15.5236 3.26582L13.7405 5.03632ZM7.69931 3.26582L1.10845 9.90356L2.89155 11.6741L9.48241 5.03632L7.69931 3.26582ZM15.5236 3.26582C14.8367 2.57406 14.2343 1.96353 13.6851 1.54152C13.1072 1.09752 12.4417 0.743602 11.6114 0.743602V3.2564C11.6659 3.2564 11.7987 3.26099 12.154 3.53402C12.5379 3.82903 13.0034 4.29404 13.7405 5.03632L15.5236 3.26582ZM9.48241 5.03632C10.2195 4.29404 10.6849 3.82903 11.0689 3.53402C11.4242 3.261 11.557 3.2564 11.6114 3.2564V0.743602C10.7812 0.743602 10.1157 1.09752 9.53784 1.54152C8.98863 1.96353 8.38618 2.57406 7.69931 3.26582L9.48241 5.03632Z" fill="white"/>
<path d="M42.1126 13.6007C42.1126 14.9745 41.8484 16.1231 41.32 17.0464C40.7971 17.9642 40.0379 18.6567 39.0423 19.1239C38.0466 19.5856 36.848 19.8164 35.4463 19.8164H31.9922V7.61855H35.8218C37.1011 7.61855 38.2107 7.84659 39.1507 8.30269C40.0907 8.75323 40.8194 9.42347 41.3367 10.3134C41.8539 11.1978 42.1126 12.2936 42.1126 13.6007ZM39.426 13.6674C39.426 12.7663 39.2926 12.0266 39.0256 11.4481C38.7641 10.8641 38.3748 10.433 37.8575 10.1549C37.3458 9.87679 36.7117 9.73774 35.9552 9.73774H34.5786V17.6805H35.6883C36.9509 17.6805 37.8881 17.344 38.4999 16.671C39.1173 15.998 39.426 14.9968 39.426 13.6674ZM48.2616 10.2967C49.5131 10.2967 50.4725 10.5693 51.14 11.1144C51.8075 11.6595 52.1412 12.4882 52.1412 13.6007V19.8164H50.3641L49.8718 18.5482H49.8051C49.5381 18.882 49.2655 19.1545 48.9874 19.3659C48.7093 19.5772 48.3895 19.733 48.028 19.8331C47.6664 19.9332 47.227 19.9833 46.7097 19.9833C46.1591 19.9833 45.664 19.8776 45.2246 19.6662C44.7908 19.4549 44.4487 19.1323 44.1984 18.6984C43.9481 18.259 43.8229 17.7028 43.8229 17.0298C43.8229 16.0397 44.1706 15.311 44.8659 14.8438C45.5611 14.371 46.604 14.1096 47.9946 14.0595L49.6132 14.0095V13.6007C49.6132 13.1112 49.4852 12.7524 49.2294 12.5244C48.9735 12.2963 48.6175 12.1823 48.1615 12.1823C47.7109 12.1823 47.2687 12.2463 46.8349 12.3742C46.401 12.5021 45.9672 12.6634 45.5333 12.8581L44.6907 11.1394C45.1857 10.878 45.7391 10.6722 46.351 10.522C46.9684 10.3718 47.6052 10.2967 48.2616 10.2967ZM49.6132 15.4946L48.6287 15.528C47.8055 15.5502 47.2326 15.6976 46.91 15.9702C46.5929 16.2427 46.4344 16.6015 46.4344 17.0464C46.4344 17.4358 46.5484 17.7139 46.7765 17.8808C47.0045 18.0421 47.3021 18.1227 47.6692 18.1227C48.2143 18.1227 48.6732 17.9614 49.0458 17.6388C49.4241 17.3162 49.6132 16.8573 49.6132 16.2622V15.4946ZM61.2771 17.0464C61.2771 17.6805 61.1269 18.2173 60.8265 18.6567C60.5317 19.0905 60.0895 19.4215 59.5 19.6495C58.9104 19.872 58.1762 19.9833 57.2973 19.9833C56.6466 19.9833 56.0876 19.9416 55.6203 19.8581C55.1587 19.7747 54.6914 19.6356 54.2187 19.441V17.3385C54.7248 17.5665 55.2671 17.7556 55.8456 17.9058C56.4296 18.0504 56.9414 18.1227 57.3808 18.1227C57.8758 18.1227 58.229 18.0504 58.4404 17.9058C58.6573 17.7556 58.7657 17.5609 58.7657 17.3218C58.7657 17.166 58.7212 17.027 58.6323 16.9046C58.5488 16.7767 58.3653 16.6348 58.0816 16.4791C57.7979 16.3178 57.353 16.1092 56.7467 15.8534C56.1626 15.6086 55.6815 15.3611 55.3033 15.1108C54.9306 14.8605 54.6525 14.5657 54.469 14.2264C54.291 13.8816 54.202 13.4449 54.202 12.9165C54.202 12.0544 54.5357 11.4064 55.2032 10.9725C55.8762 10.5331 56.7745 10.3134 57.898 10.3134C58.4765 10.3134 59.0272 10.3718 59.55 10.4886C60.0784 10.6054 60.6207 10.7918 61.177 11.0476L60.4094 12.8831C59.9477 12.6829 59.5111 12.5188 59.0995 12.3909C58.6934 12.263 58.2791 12.199 57.8563 12.199C57.4837 12.199 57.2028 12.2491 57.0137 12.3492C56.8245 12.4493 56.73 12.6023 56.73 12.8081C56.73 12.9582 56.7773 13.0917 56.8718 13.2085C56.9719 13.3253 57.1611 13.4561 57.4392 13.6007C57.7228 13.7397 58.1372 13.9205 58.6823 14.143C59.2107 14.3599 59.6696 14.588 60.059 14.8271C60.4483 15.0607 60.7487 15.3528 60.96 15.7032C61.1714 16.048 61.2771 16.4958 61.2771 17.0464ZM65.8075 6.83428V9.47909C65.8075 9.94076 65.7908 10.3802 65.7574 10.7973C65.7296 11.2145 65.7073 11.5093 65.6907 11.6817H65.8242C66.0244 11.3591 66.2608 11.0977 66.5333 10.8975C66.8114 10.6972 67.1174 10.5498 67.4511 10.4553C67.7848 10.3607 68.1436 10.3134 68.5274 10.3134C69.2004 10.3134 69.7872 10.433 70.2878 10.6722C70.7884 10.9058 71.1778 11.2757 71.4559 11.7818C71.734 12.2824 71.873 12.9332 71.873 13.7342V19.8164H69.3283V14.3683C69.3283 13.7008 69.206 13.1974 68.9612 12.8581C68.7165 12.5188 68.3383 12.3492 67.8265 12.3492C67.3148 12.3492 66.9116 12.4688 66.6168 12.7079C66.322 12.9416 66.1134 13.2892 65.991 13.7508C65.8686 14.2069 65.8075 14.7659 65.8075 15.4278V19.8164H63.2628V6.83428H65.8075ZM77.0375 6.83428V9.85454C77.0375 10.205 77.0264 10.5526 77.0041 10.8975C76.9874 11.2423 76.9652 11.5093 76.9374 11.6984H77.0375C77.2822 11.3146 77.616 10.9892 78.0387 10.7222C78.4614 10.4497 79.0093 10.3134 79.6823 10.3134C80.728 10.3134 81.5762 10.7222 82.227 11.5399C82.8778 12.3575 83.2032 13.5562 83.2032 15.1358C83.2032 16.1982 83.053 17.0909 82.7526 17.814C82.4523 18.5315 82.0323 19.0739 81.4928 19.441C80.9533 19.8025 80.3275 19.9833 79.6156 19.9833C78.9314 19.9833 78.3919 19.8609 77.997 19.6162C77.6021 19.3714 77.2822 19.0961 77.0375 18.7902H76.8623L76.4368 19.8164H74.4928V6.83428H77.0375ZM78.8647 12.3492C78.4197 12.3492 78.0665 12.441 77.8051 12.6245C77.5437 12.8081 77.3518 13.0834 77.2294 13.4505C77.1126 13.8176 77.0486 14.282 77.0375 14.8438V15.1191C77.0375 16.0258 77.171 16.7211 77.438 17.205C77.705 17.6833 78.1917 17.9225 78.8981 17.9225C79.4209 17.9225 79.8353 17.6805 80.1412 17.1966C80.4527 16.7127 80.6084 16.0147 80.6084 15.1025C80.6084 14.1903 80.4527 13.5033 80.1412 13.0417C79.8297 12.58 79.4042 12.3492 78.8647 12.3492ZM93.7824 15.1358C93.7824 15.9145 93.6768 16.6042 93.4654 17.205C93.2596 17.8057 92.9565 18.3146 92.556 18.7318C92.1611 19.1434 91.6827 19.4549 91.1209 19.6662C90.5647 19.8776 89.9362 19.9833 89.2354 19.9833C88.579 19.9833 87.9755 19.8776 87.4249 19.6662C86.8798 19.4549 86.4042 19.1434 85.9982 18.7318C85.5977 18.3146 85.2862 17.8057 85.0637 17.205C84.8468 16.6042 84.7383 15.9145 84.7383 15.1358C84.7383 14.1013 84.9219 13.2252 85.289 12.5077C85.6561 11.7902 86.1789 11.2451 86.8575 10.8724C87.5361 10.4998 88.3454 10.3134 89.2854 10.3134C90.1587 10.3134 90.9318 10.4998 91.6049 10.8724C92.2834 11.2451 92.8146 11.7902 93.1984 12.5077C93.5878 13.2252 93.7824 14.1013 93.7824 15.1358ZM87.3331 15.1358C87.3331 15.7477 87.3998 16.2622 87.5333 16.6793C87.6668 17.0965 87.8754 17.4108 88.1591 17.6221C88.4428 17.8335 88.8126 17.9392 89.2687 17.9392C89.7193 17.9392 90.0836 17.8335 90.3617 17.6221C90.6454 17.4108 90.8512 17.0965 90.9791 16.6793C91.1126 16.2622 91.1793 15.7477 91.1793 15.1358C91.1793 14.5184 91.1126 14.0067 90.9791 13.6007C90.8512 13.1891 90.6454 12.8804 90.3617 12.6746C90.078 12.4688 89.7082 12.3659 89.2521 12.3659C88.579 12.3659 88.0896 12.5967 87.7836 13.0584C87.4833 13.52 87.3331 14.2125 87.3331 15.1358ZM99.7062 10.2967C100.958 10.2967 101.917 10.5693 102.585 11.1144C103.252 11.6595 103.586 12.4882 103.586 13.6007V19.8164H101.809L101.316 18.5482H101.25C100.983 18.882 100.71 19.1545 100.432 19.3659C100.154 19.5772 99.8341 19.733 99.4726 19.8331C99.111 19.9332 98.6716 19.9833 98.1543 19.9833C97.6037 19.9833 97.1086 19.8776 96.6692 19.6662C96.2354 19.4549 95.8933 19.1323 95.643 18.6984C95.3927 18.259 95.2676 17.7028 95.2676 17.0298C95.2676 16.0397 95.6152 15.311 96.3105 14.8438C97.0057 14.371 98.0486 14.1096 99.4392 14.0595L101.058 14.0095V13.6007C101.058 13.1112 100.93 12.7524 100.674 12.5244C100.418 12.2963 100.062 12.1823 99.6061 12.1823C99.1555 12.1823 98.7133 12.2463 98.2795 12.3742C97.8456 12.5021 97.4118 12.6634 96.9779 12.8581L96.1353 11.1394C96.6303 10.878 97.1837 10.6722 97.7956 10.522C98.413 10.3718 99.0498 10.2967 99.7062 10.2967ZM101.058 15.4946L100.073 15.528C99.2501 15.5502 98.6772 15.6976 98.3546 15.9702C98.0375 16.2427 97.879 16.6015 97.879 17.0464C97.879 17.4358 97.993 17.7139 98.2211 17.8808C98.4491 18.0421 98.7467 18.1227 99.1138 18.1227C99.6589 18.1227 100.118 17.9614 100.49 17.6388C100.869 17.3162 101.058 16.8573 101.058 16.2622V15.4946ZM111.42 10.3134C111.548 10.3134 111.695 10.3218 111.862 10.3385C112.035 10.3496 112.174 10.3663 112.279 10.3885L112.088 12.7747C112.004 12.7469 111.885 12.7274 111.729 12.7163C111.579 12.6996 111.448 12.6913 111.337 12.6913C111.009 12.6913 110.689 12.733 110.377 12.8164C110.071 12.8998 109.796 13.0361 109.551 13.2252C109.306 13.4088 109.112 13.6535 108.967 13.9594C108.828 14.2598 108.759 14.6297 108.759 15.0691V19.8164H106.214V10.4886H108.141L108.517 12.0572H108.642C108.825 11.7401 109.053 11.4509 109.326 11.1895C109.604 10.9225 109.918 10.7111 110.269 10.5554C110.625 10.3941 111.009 10.3134 111.42 10.3134ZM116.927 19.9833C115.887 19.9833 115.038 19.5772 114.382 18.7652C113.731 17.9475 113.406 16.7489 113.406 15.1692C113.406 13.5729 113.737 12.3659 114.399 11.5482C115.061 10.725 115.925 10.3134 116.993 10.3134C117.438 10.3134 117.831 10.3746 118.17 10.497C118.509 10.6193 118.801 10.7834 119.046 10.9892C119.296 11.195 119.508 11.4259 119.68 11.6817H119.763C119.73 11.5037 119.688 11.2423 119.638 10.8975C119.594 10.547 119.572 10.1883 119.572 9.82117V6.83428H122.125V19.8164H120.172L119.68 18.6066H119.572C119.41 18.8625 119.207 19.0961 118.962 19.3075C118.723 19.5133 118.437 19.6774 118.103 19.7997C117.769 19.9221 117.377 19.9833 116.927 19.9833ZM117.819 17.9559C118.515 17.9559 119.004 17.7501 119.288 17.3385C119.577 16.9213 119.73 16.2955 119.747 15.4612V15.1859C119.747 14.2793 119.608 13.5868 119.33 13.1084C119.051 12.6245 118.534 12.3826 117.778 12.3826C117.216 12.3826 116.777 12.6245 116.459 13.1084C116.142 13.5923 115.984 14.2904 115.984 15.2026C115.984 16.1148 116.142 16.8017 116.459 17.2634C116.782 17.725 117.235 17.9559 117.819 17.9559Z" fill="white"/>
<path d="M128.029 6.77042C128.489 6.77042 128.824 6.86938 129.035 7.0673C129.245 7.2636 129.351 7.53452 129.351 7.88007C129.351 8.03581 129.327 8.18506 129.28 8.32783C129.233 8.46897 129.156 8.59469 129.049 8.70501C128.944 8.81533 128.803 8.90293 128.626 8.96782C128.449 9.03109 128.231 9.06273 127.971 9.06273H127.647V10.3281H126.893V6.77042H128.029ZM127.991 7.38851H127.647V8.44463H127.896C128.037 8.44463 128.159 8.42598 128.263 8.38866C128.367 8.35135 128.447 8.29295 128.504 8.21345C128.561 8.13396 128.589 8.03176 128.589 7.90684C128.589 7.73163 128.541 7.60185 128.443 7.51749C128.346 7.4315 128.195 7.38851 127.991 7.38851ZM131.059 6.77042C131.382 6.77042 131.648 6.80935 131.857 6.88722C132.068 6.96509 132.225 7.08271 132.327 7.24007C132.429 7.39744 132.48 7.59617 132.48 7.83627C132.48 7.9985 132.449 8.14045 132.388 8.26212C132.326 8.3838 132.245 8.48681 132.144 8.57117C132.044 8.65553 131.935 8.72448 131.818 8.77801L132.865 10.3281H132.028L131.178 8.96296H130.777V10.3281H130.022V6.77042H131.059ZM131.006 7.38851H130.777V8.34973H131.02C131.27 8.34973 131.448 8.30836 131.556 8.22562C131.664 8.14126 131.719 8.01797 131.719 7.85574C131.719 7.68702 131.66 7.56697 131.543 7.49558C131.428 7.4242 131.249 7.38851 131.006 7.38851ZM136.542 8.5444C136.542 8.81857 136.508 9.06841 136.44 9.29391C136.371 9.51778 136.268 9.71084 136.128 9.87307C135.99 10.0353 135.815 10.1602 135.602 10.2478C135.39 10.3338 135.138 10.3768 134.848 10.3768C134.558 10.3768 134.306 10.3338 134.094 10.2478C133.881 10.1602 133.705 10.0353 133.566 9.87307C133.428 9.71084 133.325 9.51697 133.257 9.29147C133.188 9.06597 133.154 8.81533 133.154 8.53954C133.154 8.17127 133.214 7.85087 133.334 7.57832C133.456 7.30415 133.643 7.09163 133.894 6.94076C134.146 6.78988 134.465 6.71445 134.853 6.71445C135.239 6.71445 135.556 6.78988 135.804 6.94076C136.054 7.09163 136.239 7.30415 136.359 7.57832C136.481 7.85249 136.542 8.17452 136.542 8.5444ZM133.945 8.5444C133.945 8.79262 133.976 9.00676 134.038 9.18684C134.101 9.36529 134.199 9.50318 134.332 9.60052C134.465 9.69624 134.637 9.7441 134.848 9.7441C135.062 9.7441 135.236 9.69624 135.369 9.60052C135.502 9.50318 135.598 9.36529 135.658 9.18684C135.72 9.00676 135.751 8.79262 135.751 8.5444C135.751 8.17127 135.681 7.87764 135.542 7.66349C135.402 7.44935 135.172 7.34228 134.853 7.34228C134.64 7.34228 134.467 7.39095 134.332 7.48828C134.199 7.584 134.101 7.7219 134.038 7.90197C133.976 8.08042 133.945 8.29457 133.945 8.5444Z" fill="#CECECE"/>
</svg>
