<svg width="137" height="24" viewBox="0 0 137 24" fill="none" xmlns="http://www.w3.org/2000/svg">
<path d="M9.17504 18.3612L7.94021 18.1294L7.94021 18.1294L9.17504 18.3612ZM9.1957 18.2512L10.4305 18.4829L10.4305 18.4829L9.1957 18.2512ZM14.0276 18.2512L12.7927 18.4829L12.7927 18.483L14.0276 18.2512ZM14.0482 18.3612L15.283 18.1294L15.283 18.1294L14.0482 18.3612ZM13.7387 20.7444L14.8732 21.2843L14.8732 21.2843L13.7387 20.7444ZM12.4795 20.4666C12.1814 21.0931 12.4476 21.8428 13.0741 22.1409C13.7007 22.4391 14.4503 22.1729 14.7485 21.5463L12.4795 20.4666ZM9.48453 20.7444L8.35005 21.2843L8.35005 21.2843L9.48453 20.7444ZM8.47476 21.5464C8.77294 22.1729 9.52258 22.4391 10.1491 22.1409C10.7757 21.8428 11.0419 21.0931 10.7437 20.4666L8.47476 21.5464ZM10.9293 16.3559L10.5934 15.1452L10.5934 15.1452L10.9293 16.3559ZM12.294 16.3559L12.6299 15.1452L12.6299 15.1452L12.294 16.3559ZM10.4099 18.593L10.4305 18.4829L7.96087 18.0194L7.94021 18.1294L10.4099 18.593ZM12.7927 18.483L12.8134 18.593L15.283 18.1294L15.2624 18.0194L12.7927 18.483ZM12.6042 20.2045L12.4795 20.4666L14.7485 21.5463L14.8732 21.2843L12.6042 20.2045ZM8.35005 21.2843L8.47476 21.5464L10.7437 20.4666L10.619 20.2045L8.35005 21.2843ZM12.8134 18.593C12.9159 19.1392 12.8424 19.704 12.6042 20.2045L14.8732 21.2843C15.3402 20.303 15.4836 19.1978 15.283 18.1294L12.8134 18.593ZM7.94021 18.1294C7.73967 19.1978 7.88305 20.303 8.35005 21.2843L10.619 20.2045C10.3808 19.704 10.3073 19.1392 10.4099 18.593L7.94021 18.1294ZM11.2652 17.5665C11.492 17.5036 11.7313 17.5036 11.9581 17.5665L12.6299 15.1452C11.9635 14.9603 11.2597 14.9603 10.5934 15.1452L11.2652 17.5665ZM15.2624 18.0194C15.0033 16.639 13.9851 15.5212 12.6299 15.1452L11.9581 17.5665C12.3821 17.6842 12.709 18.037 12.7927 18.4829L15.2624 18.0194ZM10.4305 18.4829C10.5142 18.037 10.8411 17.6842 11.2652 17.5665L10.5934 15.1452C9.23817 15.5212 8.21997 16.639 7.96087 18.0194L10.4305 18.4829Z" fill="#CECECE"/>
<path d="M20.6531 9.17551C20.6531 8.48162 20.0906 7.91912 19.3967 7.91912C18.7028 7.91912 18.1403 8.48162 18.1403 9.17551H20.6531ZM5.08256 9.17551C5.08256 8.48162 4.52006 7.91912 3.82617 7.91912C3.13228 7.91912 2.56977 8.48162 2.56977 9.17551H5.08256ZM14.2954 20.9101L14.0066 19.6874H14.0066L14.2954 20.9101ZM8.92743 20.9101L9.21629 19.6874L8.92743 20.9101ZM14.632 4.15107L13.7405 5.03632H13.7405L14.632 4.15107ZM20.3313 11.6741C20.8203 12.1665 21.6158 12.1693 22.1081 11.6804C22.6005 11.1915 22.6034 10.396 22.1144 9.90356L20.3313 11.6741ZM8.59086 4.15107L9.48241 5.03632L8.59086 4.15107ZM1.10845 9.90356C0.619537 10.396 0.622357 11.1915 1.11475 11.6804C1.60714 12.1693 2.40264 12.1665 2.89155 11.6741L1.10845 9.90356ZM18.1403 9.17551V14.428H20.6531V9.17551H18.1403ZM5.08256 14.428V9.17551H2.56977V14.428H5.08256ZM14.0066 19.6874C12.4312 20.0595 10.7917 20.0595 9.21629 19.6874L8.63857 22.1329C10.5939 22.5948 12.629 22.5948 14.5843 22.1329L14.0066 19.6874ZM9.21629 19.6874C6.80037 19.1166 5.08256 16.9425 5.08256 14.428H2.56977C2.56977 18.0963 5.07761 21.2916 8.63857 22.1329L9.21629 19.6874ZM14.5843 22.1329C18.1453 21.2916 20.6531 18.0963 20.6531 14.428H18.1403C18.1403 16.9425 16.4225 19.1166 14.0066 19.6874L14.5843 22.1329ZM13.7405 5.03632L20.3313 11.6741L22.1144 9.90356L15.5236 3.26582L13.7405 5.03632ZM7.69931 3.26582L1.10845 9.90356L2.89155 11.6741L9.48241 5.03632L7.69931 3.26582ZM15.5236 3.26582C14.8367 2.57406 14.2343 1.96353 13.6851 1.54152C13.1072 1.09752 12.4417 0.743602 11.6114 0.743602V3.2564C11.6659 3.2564 11.7987 3.26099 12.154 3.53402C12.5379 3.82903 13.0034 4.29404 13.7405 5.03632L15.5236 3.26582ZM9.48241 5.03632C10.2195 4.29404 10.6849 3.82903 11.0689 3.53402C11.4242 3.261 11.557 3.2564 11.6114 3.2564V0.743602C10.7812 0.743602 10.1157 1.09752 9.53784 1.54152C8.98863 1.96353 8.38618 2.57406 7.69931 3.26582L9.48241 5.03632Z" fill="#51459D"/>
<path d="M31.6365 18.8165H35.8912C39.7187 18.8165 42.0425 16.4927 42.0425 12.7848C42.0425 9.29906 39.7187 6.85562 35.8912 6.85562H31.6365V18.8165ZM34.3363 16.4756V9.19654H35.7716C37.5315 9.19654 39.2232 10.2047 39.2232 12.7848C39.2232 15.5016 37.5145 16.4756 35.7716 16.4756H34.3363ZM47.4898 19.0387C48.9764 19.0387 49.7282 18.2014 49.9845 17.7913H50.1212V18.8165H52.7526V9.79458H50.1041V10.8198H49.9674C49.6599 10.3414 48.8397 9.57245 47.4215 9.57245C44.9951 9.57245 43.3206 11.5204 43.3206 14.3568C43.3206 17.1933 45.0122 19.0387 47.4898 19.0387ZM48.0879 16.6465C46.8405 16.6465 46.0032 15.7067 46.0032 14.3056C46.0032 12.9215 46.8405 11.9646 48.0708 11.9646C49.2839 11.9646 50.1554 12.8702 50.1554 14.3056C50.1554 15.6383 49.3523 16.6465 48.0879 16.6465ZM58.0452 19.0387C60.6082 19.0387 62.0094 17.7742 62.0094 16.0313C62.0094 12.033 56.7466 13.7929 56.7466 12.3235C56.7466 11.845 57.2592 11.5204 58.0623 11.5204C58.9337 11.5204 59.3951 11.8963 59.4805 12.4431H61.7701C61.6505 10.5635 60.1469 9.57245 58.0623 9.57245C55.653 9.57245 54.3544 10.9052 54.3544 12.4431C54.3544 16.3218 59.4463 14.5448 59.4463 16.168C59.4463 16.6807 58.9508 17.0053 58.0623 17.0053C57.1908 17.0053 56.6611 16.6807 56.5928 16.0484H54.1835C54.2348 17.8767 55.448 19.0387 58.0452 19.0387ZM63.7736 18.8165H66.4221V13.7246C66.4221 12.7848 67.0714 12.033 67.9941 12.033C68.8997 12.033 69.4807 12.6994 69.4807 13.6221V18.8165H72.1291V12.8019C72.1291 10.9223 70.916 9.57245 68.9168 9.57245C67.7036 9.57245 66.9005 10.1705 66.5417 10.7856H66.405V6.00126H63.7736V18.8165ZM79.3487 19.0387C81.8092 19.0387 83.5008 17.1933 83.5008 14.3568C83.5008 11.5204 81.8434 9.57245 79.417 9.57245C77.9817 9.57245 77.1786 10.3414 76.8711 10.8198H76.7344V6.00126H74.0859V18.8165H76.7002V17.7913H76.8369C77.0932 18.2014 77.845 19.0387 79.3487 19.0387ZM78.7506 16.6465C77.4862 16.6465 76.6831 15.6383 76.6831 14.3056C76.6831 12.8702 77.5375 11.9646 78.7506 11.9646C79.9809 11.9646 80.8182 12.9215 80.8182 14.3056C80.8182 15.7067 79.9809 16.6465 78.7506 16.6465ZM89.5893 19.0387C92.4941 19.0387 94.4591 16.9711 94.4591 14.3056C94.4591 11.64 92.4941 9.57245 89.6064 9.57245C86.6845 9.57245 84.7366 11.64 84.7366 14.3056C84.7366 16.9711 86.7016 19.0387 89.5893 19.0387ZM89.5893 16.6465C88.3419 16.6465 87.4192 15.6896 87.4192 14.3056C87.4192 12.9386 88.3419 11.9646 89.5893 11.9646C90.8537 11.9646 91.7764 12.9386 91.7764 14.3056C91.7764 15.6725 90.8537 16.6465 89.5893 16.6465ZM99.8522 19.0387C101.339 19.0387 102.091 18.2014 102.347 17.7913H102.484V18.8165H105.115V9.79458H102.466V10.8198H102.33C102.022 10.3414 101.202 9.57245 99.7838 9.57245C97.3575 9.57245 95.6829 11.5204 95.6829 14.3568C95.6829 17.1933 97.3745 19.0387 99.8522 19.0387ZM100.45 16.6465C99.2029 16.6465 98.3656 15.7067 98.3656 14.3056C98.3656 12.9215 99.2029 11.9646 100.433 11.9646C101.646 11.9646 102.518 12.8702 102.518 14.3056C102.518 15.6383 101.715 16.6465 100.45 16.6465ZM107.058 18.8165H109.707V14.7156C109.707 13.1607 110.544 12.2209 111.843 12.2209H112.885V9.72624H112.014C110.801 9.72624 109.997 10.4952 109.69 11.1615H109.553V9.79458H107.058V18.8165ZM118.007 19.0387C119.494 19.0387 120.246 18.2014 120.502 17.7913H120.639V18.8165H123.27V6.00126H120.621V10.8198H120.485C120.177 10.3414 119.357 9.57245 117.939 9.57245C115.512 9.57245 113.838 11.5204 113.838 14.3568C113.838 17.1933 115.53 19.0387 118.007 19.0387ZM118.605 16.6465C117.358 16.6465 116.521 15.7067 116.521 14.3056C116.521 12.9215 117.358 11.9646 118.588 11.9646C119.801 11.9646 120.673 12.8702 120.673 14.3056C120.673 15.6383 119.87 16.6465 118.605 16.6465Z" fill="#333333"/>
<path d="M126.79 10.3296H127.578V9.18334H128.141C128.814 9.18334 129.357 8.68995 129.357 8.00718C129.357 7.31943 128.833 6.84099 128.141 6.84099H126.79V10.3296ZM127.578 8.51552V7.51379H128.061C128.345 7.51379 128.554 7.70317 128.554 8.00718C128.554 8.31119 128.345 8.51552 128.061 8.51552H127.578ZM129.832 10.3296H130.619V9.1634H131.088L131.681 10.3296H132.558L131.816 9.00891C132.169 8.82949 132.433 8.4607 132.433 7.99223C132.433 7.30946 131.91 6.84099 131.198 6.84099H129.832V10.3296ZM130.619 8.4906V7.51379H131.118C131.427 7.51379 131.626 7.70317 131.626 7.99223C131.626 8.31617 131.412 8.4906 131.128 8.4906H130.619ZM134.7 10.3944C135.762 10.3944 136.554 9.60695 136.554 8.58529C136.554 7.56861 135.767 6.7762 134.7 6.7762C133.634 6.7762 132.846 7.55864 132.846 8.58529C132.846 9.61692 133.629 10.3944 134.7 10.3944ZM134.7 9.63685C134.092 9.63685 133.663 9.18832 133.663 8.58529C133.663 7.99223 134.092 7.53373 134.7 7.53373C135.303 7.53373 135.732 7.99223 135.732 8.58529C135.732 9.18832 135.303 9.63685 134.7 9.63685Z" fill="#CECECE"/>
</svg>
